<svg width="35" height="34" viewBox="0 0 35 34" fill="none" xmlns="http://www.w3.org/2000/svg">
<rect width="34.2857" height="33.3333" rx="7.61905" fill="#F3F3F3"/>
<g transform="translate(17.5 17) scale(0.88) translate(-17.5 -17)">
<path d="M21.142 9.72098V23.4115C21.142 24.9357 22.1825 25.7936 23.3234 25.7936C24.3638 25.7936 25.5047 25.0726 25.5047 23.4115V9.82138C25.5047 8.41583 24.4642 7.53963 23.3234 7.53963C22.1825 7.53963 21.142 8.50709 21.142 9.72098ZM15.4376 16.6666V23.4115C15.4376 24.9448 16.4964 25.7936 17.619 25.7936C18.6595 25.7936 19.8003 25.0726 19.8003 23.4115V16.767C19.8003 15.3615 18.7599 14.4853 17.619 14.4853C16.4781 14.4853 15.4376 15.4527 15.4376 16.6666ZM11.9146 21.44C13.1194 21.44 14.096 22.4166 14.096 23.6123C14.096 24.1908 13.8662 24.7456 13.4571 25.1547C13.048 25.5638 12.4932 25.7936 11.9146 25.7936C11.3361 25.7936 10.7813 25.5638 10.3722 25.1547C9.9631 24.7456 9.73328 24.1908 9.73328 23.6123C9.73328 22.4166 10.7099 21.44 11.9146 21.44Z" fill="#333333"/>
</g>
</svg>
