<svg width="35" height="34" viewBox="0 0 35 34" fill="none" xmlns="http://www.w3.org/2000/svg">
<rect width="34.2857" height="33.3333" rx="7.61905" fill="#F3F3F3"/>
<g transform="translate(17.5 17) scale(0.88) translate(-17.5 -17)">
<path fill-rule="evenodd" clip-rule="evenodd" d="M14.2103 9.66069L24.2222 15.8214C24.3666 15.9102 24.4859 16.0345 24.5687 16.1824C24.6514 16.3304 24.6949 16.4971 24.6949 16.6666C24.6949 16.8362 24.6514 17.0029 24.5687 17.1509C24.4859 17.2988 24.3666 17.4231 24.2222 17.5119L14.2103 23.6726C14.0599 23.7651 13.8876 23.8158 13.7111 23.8195C13.5347 23.8232 13.3604 23.7797 13.2063 23.6936C13.0523 23.6074 12.9239 23.4817 12.8347 23.3295C12.7454 23.1772 12.6983 23.0039 12.6984 22.8274V10.5059C12.6983 10.3294 12.7454 10.1561 12.8347 10.0038C12.9239 9.85154 13.0523 9.72585 13.2063 9.63971C13.3604 9.55358 13.5347 9.51011 13.7111 9.5138C13.8876 9.51748 14.0599 9.56819 14.2103 9.66069Z" fill="#333333"/>
</g>
</svg>
