<svg width="35" height="34" viewBox="0 0 35 34" fill="none" xmlns="http://www.w3.org/2000/svg">
<rect width="34.2857" height="33.3333" rx="7.61905" fill="#F3F3F3"/>
<path d="M9.14296 14.2857H25.143M9.14296 20H25.143M8.57153 17.1428C8.57153 18.2685 8.79324 19.3831 9.22399 20.423C9.65475 21.4629 10.2861 22.4078 11.082 23.2038C11.878 23.9997 12.8229 24.6311 13.8628 25.0618C14.9028 25.4926 16.0173 25.7143 17.143 25.7143C18.2686 25.7143 19.3832 25.4926 20.4231 25.0618C21.463 24.6311 22.4079 23.9997 23.2039 23.2038C23.9998 22.4078 24.6312 21.4629 25.0619 20.423C25.4927 19.3831 25.7144 18.2685 25.7144 17.1428C25.7144 14.8696 24.8113 12.6894 23.2039 11.0819C21.5964 9.47448 19.4162 8.57142 17.143 8.57142C14.8697 8.57142 12.6895 9.47448 11.082 11.0819C9.47459 12.6894 8.57153 14.8696 8.57153 17.1428Z" stroke="#333333" stroke-width="1.90476" stroke-linecap="round" stroke-linejoin="round"/>
<path d="M16.6667 8.5714C15.0623 11.1425 14.2117 14.1122 14.2117 17.1428C14.2117 20.1734 15.0623 23.1432 16.6667 25.7143M17.6191 8.5714C19.2235 11.1425 20.0741 14.1122 20.0741 17.1428C20.0741 20.1734 19.2235 23.1432 17.6191 25.7143" stroke="#333333" stroke-width="1.90476" stroke-linecap="round" stroke-linejoin="round"/>
</svg>
