<svg width="215" height="26" viewBox="0 0 215 26" fill="none" xmlns="http://www.w3.org/2000/svg">
<rect width="99.5" height="26" rx="3" fill="#E9E9E9"/>
<g opacity="0.5">
<path d="M5.5 6.25H20.5Z" fill="#737373"/>
<path d="M5.5 6.25H20.5" stroke="#737373" stroke-width="1.125" stroke-linecap="round"/>
</g>
<path d="M9.625 9.25C8.92375 9.25 8.5735 9.25 8.3125 9.40075C8.14149 9.49949 7.99949 9.64149 7.90075 9.8125C7.75 10.0735 7.75 10.4237 7.75 11.125V17.875C7.75 18.5763 7.75 18.9265 7.90075 19.1875C7.99949 19.3585 8.14149 19.5005 8.3125 19.5992C8.5735 19.75 8.92375 19.75 9.625 19.75C10.3263 19.75 10.6765 19.75 10.9375 19.5992C11.1085 19.5005 11.2505 19.3585 11.3492 19.1875C11.5 18.9265 11.5 18.5763 11.5 17.875V11.125C11.5 10.4237 11.5 10.0735 11.3492 9.8125C11.2505 9.64149 11.1085 9.49949 10.9375 9.40075C10.6765 9.25 10.3263 9.25 9.625 9.25ZM16.375 9.25C15.6737 9.25 15.3235 9.25 15.0625 9.40075C14.8915 9.49949 14.7495 9.64149 14.6508 9.8125C14.5 10.0735 14.5 10.4237 14.5 11.125V15.625C14.5 16.3263 14.5 16.6765 14.6508 16.9375C14.7495 17.1085 14.8915 17.2505 15.0625 17.3492C15.3235 17.5 15.6737 17.5 16.375 17.5C17.0763 17.5 17.4265 17.5 17.6875 17.3492C17.8585 17.2505 18.0005 17.1085 18.0992 16.9375C18.25 16.6765 18.25 16.3263 18.25 15.625V11.125C18.25 10.4237 18.25 10.0735 18.0992 9.8125C18.0005 9.64149 17.8585 9.49949 17.6875 9.40075C17.4265 9.25 17.0763 9.25 16.375 9.25Z" fill="#737373" stroke="#737373" stroke-width="1.125"/>
<g clip-path="url(#clip0_101_4145)">
<path d="M43.5625 13H41.3125ZM51.4375 13H48.0625ZM58.1875 13H55.9375ZM48.0625 6.4375V19.5625C48.0625 19.5625 48.0625 20.3125 47.3125 20.3125H44.3125C44.3125 20.3125 43.5625 20.3125 43.5625 19.5625V6.4375C43.5625 6.4375 43.5625 5.6875 44.3125 5.6875H47.3125C47.3125 5.6875 48.0625 5.6875 48.0625 6.4375ZM55.9375 8.6875V17.3125C55.9375 17.3125 55.9375 18.0625 55.1875 18.0625H52.1875C52.1875 18.0625 51.4375 18.0625 51.4375 17.3125V8.6875C51.4375 8.6875 51.4375 7.9375 52.1875 7.9375H55.1875C55.1875 7.9375 55.9375 7.9375 55.9375 8.6875Z" fill="#737373"/>
<path d="M43.5625 13H41.3125M51.4375 13H48.0625M58.1875 13H55.9375M48.0625 6.4375V19.5625C48.0625 19.5625 48.0625 20.3125 47.3125 20.3125H44.3125C44.3125 20.3125 43.5625 20.3125 43.5625 19.5625V6.4375C43.5625 6.4375 43.5625 5.6875 44.3125 5.6875H47.3125C47.3125 5.6875 48.0625 5.6875 48.0625 6.4375ZM55.9375 8.6875V17.3125C55.9375 17.3125 55.9375 18.0625 55.1875 18.0625H52.1875C52.1875 18.0625 51.4375 18.0625 51.4375 17.3125V8.6875C51.4375 8.6875 51.4375 7.9375 52.1875 7.9375H55.1875C55.1875 7.9375 55.9375 7.9375 55.9375 8.6875Z" stroke="#737373" stroke-width="1.125" stroke-linecap="round" stroke-linejoin="round"/>
</g>
<g opacity="0.5">
<path d="M79 19.75H94Z" fill="#737373"/>
<path d="M79 19.75H94" stroke="#737373" stroke-width="1.125" stroke-linecap="round"/>
</g>
<path d="M83.125 16.75C82.4237 16.75 82.0735 16.75 81.8125 16.5992C81.6415 16.5005 81.4995 16.3585 81.4008 16.1875C81.25 15.9265 81.25 15.5763 81.25 14.875V8.125C81.25 7.42375 81.25 7.0735 81.4008 6.8125C81.4995 6.64149 81.6415 6.49949 81.8125 6.40075C82.0735 6.25 82.4237 6.25 83.125 6.25C83.8263 6.25 84.1765 6.25 84.4375 6.40075C84.6085 6.49949 84.7505 6.64149 84.8492 6.8125C85 7.0735 85 7.42375 85 8.125V14.875C85 15.5763 85 15.9265 84.8492 16.1875C84.7505 16.3585 84.6085 16.5005 84.4375 16.5992C84.1765 16.75 83.8263 16.75 83.125 16.75ZM89.875 16.75C89.1737 16.75 88.8235 16.75 88.5625 16.5992C88.3915 16.5005 88.2495 16.3585 88.1508 16.1875C88 15.9265 88 15.5763 88 14.875V10.375C88 9.67375 88 9.3235 88.1508 9.0625C88.2495 8.89149 88.3915 8.74949 88.5625 8.65075C88.8235 8.5 89.1737 8.5 89.875 8.5C90.5763 8.5 90.9265 8.5 91.1875 8.65075C91.3585 8.74949 91.5005 8.89149 91.5992 9.0625C91.75 9.3235 91.75 9.67375 91.75 10.375V14.875C91.75 15.5763 91.75 15.9265 91.5992 16.1875C91.5005 16.3585 91.3585 16.5005 91.1875 16.5992C90.9265 16.75 90.5763 16.75 89.875 16.75Z" fill="#737373" stroke="#737373" stroke-width="1.125"/>
<rect x="115.5" width="99.5" height="26" rx="3" fill="#E9E9E9"/>
<g opacity="0.5">
<path d="M121.75 20.5V5.5Z" fill="#737373"/>
<path d="M121.75 20.5V5.5" stroke="#737373" stroke-width="1.125" stroke-linecap="round"/>
</g>
<path d="M124.75 16.375C124.75 17.0763 124.75 17.4265 124.901 17.6875C124.999 17.8585 125.141 18.0005 125.312 18.0992C125.573 18.25 125.924 18.25 126.625 18.25H133.375C134.076 18.25 134.427 18.25 134.688 18.0992C134.859 18.0005 135.001 17.8585 135.099 17.6875C135.25 17.4265 135.25 17.0763 135.25 16.375C135.25 15.6737 135.25 15.3235 135.099 15.0625C135.001 14.8915 134.859 14.7495 134.688 14.6508C134.427 14.5 134.076 14.5 133.375 14.5H126.625C125.924 14.5 125.573 14.5 125.312 14.6508C125.141 14.7495 124.999 14.8915 124.901 15.0625C124.75 15.3235 124.75 15.6737 124.75 16.375ZM124.75 9.625C124.75 10.3263 124.75 10.6765 124.901 10.9375C124.999 11.1085 125.141 11.2505 125.312 11.3492C125.573 11.5 125.924 11.5 126.625 11.5H131.125C131.826 11.5 132.177 11.5 132.438 11.3492C132.609 11.2505 132.751 11.1085 132.849 10.9375C133 10.6765 133 10.3263 133 9.625C133 8.92375 133 8.5735 132.849 8.3125C132.751 8.14149 132.609 7.99949 132.438 7.90075C132.177 7.75 131.826 7.75 131.125 7.75H126.625C125.924 7.75 125.573 7.75 125.312 7.90075C125.141 7.99949 124.999 8.14149 124.901 8.3125C124.75 8.5735 124.75 8.92375 124.75 9.625Z" fill="#737373" stroke="#737373" stroke-width="1.125"/>
<path d="M165.25 19.1875V21.4375ZM165.25 11.3125V14.6875ZM165.25 4.5625V6.8125ZM158.688 14.6875H171.812C171.812 14.6875 172.562 14.6875 172.562 15.4375V18.4375C172.562 18.4375 172.562 19.1875 171.812 19.1875H158.688C158.688 19.1875 157.938 19.1875 157.938 18.4375V15.4375C157.938 15.4375 157.938 14.6875 158.688 14.6875ZM160.938 6.8125H169.562C169.562 6.8125 170.312 6.8125 170.312 7.5625V10.5625C170.312 10.5625 170.312 11.3125 169.562 11.3125H160.938C160.938 11.3125 160.188 11.3125 160.188 10.5625V7.5625C160.188 7.5625 160.188 6.8125 160.938 6.8125Z" fill="#737373"/>
<path d="M165.25 19.1875V21.4375M165.25 11.3125V14.6875M165.25 4.5625V6.8125M158.688 14.6875H171.812C171.812 14.6875 172.562 14.6875 172.562 15.4375V18.4375C172.562 18.4375 172.562 19.1875 171.812 19.1875H158.688C158.688 19.1875 157.938 19.1875 157.938 18.4375V15.4375C157.938 15.4375 157.938 14.6875 158.688 14.6875ZM160.938 6.8125H169.562C169.562 6.8125 170.312 6.8125 170.312 7.5625V10.5625C170.312 10.5625 170.312 11.3125 169.562 11.3125H160.938C160.938 11.3125 160.188 11.3125 160.188 10.5625V7.5625C160.188 7.5625 160.188 6.8125 160.938 6.8125Z" stroke="#737373" stroke-width="1.125" stroke-linecap="round" stroke-linejoin="round"/>
<g opacity="0.5">
<path d="M208.75 5.5V20.5Z" fill="#737373"/>
<path d="M208.75 5.5V20.5" stroke="#737373" stroke-width="1.125" stroke-linecap="round"/>
</g>
<path d="M205.75 9.625C205.75 8.92375 205.75 8.5735 205.599 8.3125C205.501 8.14149 205.359 7.99949 205.188 7.90075C204.927 7.75 204.576 7.75 203.875 7.75H197.125C196.424 7.75 196.073 7.75 195.812 7.90075C195.641 7.99949 195.499 8.14149 195.401 8.3125C195.25 8.5735 195.25 8.92375 195.25 9.625C195.25 10.3263 195.25 10.6765 195.401 10.9375C195.499 11.1085 195.641 11.2505 195.812 11.3492C196.073 11.5 196.424 11.5 197.125 11.5H203.875C204.576 11.5 204.927 11.5 205.188 11.3492C205.359 11.2505 205.501 11.1085 205.599 10.9375C205.75 10.6765 205.75 10.3263 205.75 9.625ZM205.75 16.375C205.75 15.6737 205.75 15.3235 205.599 15.0625C205.501 14.8915 205.359 14.7495 205.188 14.6508C204.927 14.5 204.576 14.5 203.875 14.5H199.375C198.674 14.5 198.323 14.5 198.062 14.6508C197.891 14.7495 197.749 14.8915 197.651 15.0625C197.5 15.3235 197.5 15.6737 197.5 16.375C197.5 17.0763 197.5 17.4265 197.651 17.6875C197.749 17.8585 197.891 18.0005 198.062 18.0992C198.323 18.25 198.674 18.25 199.375 18.25H203.875C204.576 18.25 204.927 18.25 205.188 18.0992C205.359 18.0005 205.501 17.8585 205.599 17.6875C205.75 17.4265 205.75 17.0763 205.75 16.375Z" fill="#737373" stroke="#737373" stroke-width="1.125"/>
<defs>
<clipPath id="clip0_101_4145">
<rect width="18" height="18" fill="white" transform="translate(40.75 4)"/>
</clipPath>
</defs>
</svg>
