<svg width="153" height="68" viewBox="0 0 153 68" fill="none" xmlns="http://www.w3.org/2000/svg">
<g filter="url(#filter0_d_1_6675)">
<rect x="4" width="145" height="60" rx="4" fill="none" shape-rendering="crispEdges"/>
<rect x="4.5" y="0.5" width="144" height="59" rx="3.5" stroke="none" shape-rendering="crispEdges"/>
<path d="M19.3352 12.1818V18H18.5284L15.571 13.733H15.517V18H14.6392V12.1818H15.4517L18.4119 16.4545H18.4659V12.1818H19.3352ZM22.3857 18.0881C21.9766 18.0881 21.6196 17.9943 21.3146 17.8068C21.0097 17.6193 20.773 17.357 20.6044 17.0199C20.4358 16.6828 20.3516 16.2888 20.3516 15.8381C20.3516 15.3854 20.4358 14.9896 20.6044 14.6506C20.773 14.3116 21.0097 14.0483 21.3146 13.8608C21.6196 13.6733 21.9766 13.5795 22.3857 13.5795C22.7947 13.5795 23.1518 13.6733 23.4567 13.8608C23.7616 14.0483 23.9983 14.3116 24.1669 14.6506C24.3355 14.9896 24.4197 15.3854 24.4197 15.8381C24.4197 16.2888 24.3355 16.6828 24.1669 17.0199C23.9983 17.357 23.7616 17.6193 23.4567 17.8068C23.1518 17.9943 22.7947 18.0881 22.3857 18.0881ZM22.3885 17.375C22.6536 17.375 22.8733 17.3049 23.0476 17.1648C23.2218 17.0246 23.3506 16.8381 23.4339 16.6051C23.5192 16.3722 23.5618 16.1155 23.5618 15.8352C23.5618 15.5568 23.5192 15.3011 23.4339 15.0682C23.3506 14.8333 23.2218 14.6449 23.0476 14.5028C22.8733 14.3608 22.6536 14.2898 22.3885 14.2898C22.1214 14.2898 21.8999 14.3608 21.7237 14.5028C21.5495 14.6449 21.4197 14.8333 21.3345 15.0682C21.2512 15.3011 21.2095 15.5568 21.2095 15.8352C21.2095 16.1155 21.2512 16.3722 21.3345 16.6051C21.4197 16.8381 21.5495 17.0246 21.7237 17.1648C21.8999 17.3049 22.1214 17.375 22.3885 17.375ZM29.3232 18.0881C28.9008 18.0881 28.5372 17.9924 28.2322 17.8011C27.9292 17.608 27.6963 17.3419 27.5334 17.0028C27.3705 16.6638 27.2891 16.2756 27.2891 15.8381C27.2891 15.3949 27.3724 15.0038 27.5391 14.6648C27.7057 14.3239 27.9406 14.0578 28.2436 13.8665C28.5466 13.6752 28.9036 13.5795 29.3146 13.5795C29.6461 13.5795 29.9415 13.6411 30.201 13.7642C30.4605 13.8854 30.6697 14.0559 30.8288 14.2756C30.9898 14.4953 31.0855 14.7519 31.1158 15.0455H30.2891C30.2436 14.8409 30.1394 14.6648 29.9766 14.517C29.8156 14.3693 29.5997 14.2955 29.3288 14.2955C29.0921 14.2955 28.8847 14.358 28.7067 14.483C28.5305 14.6061 28.3932 14.7822 28.2947 15.0114C28.1963 15.2386 28.147 15.5076 28.147 15.8182C28.147 16.1364 28.1953 16.411 28.2919 16.642C28.3885 16.8731 28.5249 17.0521 28.701 17.179C28.879 17.3059 29.0883 17.3693 29.3288 17.3693C29.4898 17.3693 29.6357 17.34 29.7663 17.2812C29.8989 17.2206 30.0097 17.1345 30.0987 17.0227C30.1896 16.911 30.2531 16.7765 30.2891 16.6193H31.1158C31.0855 16.9015 30.9936 17.1534 30.8402 17.375C30.6868 17.5966 30.4813 17.7708 30.2237 17.8977C29.968 18.0246 29.6679 18.0881 29.3232 18.0881ZM33.8622 18.0881C33.4531 18.0881 33.0961 17.9943 32.7912 17.8068C32.4863 17.6193 32.2495 17.357 32.081 17.0199C31.9124 16.6828 31.8281 16.2888 31.8281 15.8381C31.8281 15.3854 31.9124 14.9896 32.081 14.6506C32.2495 14.3116 32.4863 14.0483 32.7912 13.8608C33.0961 13.6733 33.4531 13.5795 33.8622 13.5795C34.2713 13.5795 34.6283 13.6733 34.9332 13.8608C35.2382 14.0483 35.4749 14.3116 35.6435 14.6506C35.812 14.9896 35.8963 15.3854 35.8963 15.8381C35.8963 16.2888 35.812 16.6828 35.6435 17.0199C35.4749 17.357 35.2382 17.6193 34.9332 17.8068C34.6283 17.9943 34.2713 18.0881 33.8622 18.0881ZM33.8651 17.375C34.1302 17.375 34.3499 17.3049 34.5241 17.1648C34.6984 17.0246 34.8272 16.8381 34.9105 16.6051C34.9957 16.3722 35.0384 16.1155 35.0384 15.8352C35.0384 15.5568 34.9957 15.3011 34.9105 15.0682C34.8272 14.8333 34.6984 14.6449 34.5241 14.5028C34.3499 14.3608 34.1302 14.2898 33.8651 14.2898C33.598 14.2898 33.3764 14.3608 33.2003 14.5028C33.026 14.6449 32.8963 14.8333 32.8111 15.0682C32.7277 15.3011 32.6861 15.5568 32.6861 15.8352C32.6861 16.1155 32.7277 16.3722 32.8111 16.6051C32.8963 16.8381 33.026 17.0246 33.2003 17.1648C33.3764 17.3049 33.598 17.375 33.8651 17.375ZM36.8445 18V13.6364H37.6598V14.3466H37.7138C37.8047 14.1061 37.9534 13.9186 38.1598 13.7841C38.3662 13.6477 38.6134 13.5795 38.9013 13.5795C39.1929 13.5795 39.4373 13.6477 39.6342 13.7841C39.8331 13.9205 39.9799 14.108 40.0746 14.3466H40.12C40.2242 14.1136 40.3899 13.928 40.6172 13.7898C40.8445 13.6496 41.1153 13.5795 41.4297 13.5795C41.8255 13.5795 42.1484 13.7036 42.3984 13.9517C42.6503 14.1998 42.7763 14.5739 42.7763 15.0739V18H41.9268V15.1534C41.9268 14.858 41.8464 14.6439 41.6854 14.5114C41.5244 14.3788 41.3321 14.3125 41.1087 14.3125C40.8321 14.3125 40.6172 14.3977 40.4638 14.5682C40.3104 14.7367 40.2337 14.9536 40.2337 15.2188V18H39.3871V15.0994C39.3871 14.8627 39.3132 14.6723 39.1655 14.5284C39.0178 14.3845 38.8255 14.3125 38.5888 14.3125C38.4278 14.3125 38.2791 14.3551 38.1428 14.4403C38.0083 14.5237 37.8994 14.6402 37.8161 14.7898C37.7346 14.9394 37.6939 15.1127 37.6939 15.3097V18H36.8445ZM43.9148 19.6364V13.6364H44.7443V14.3438H44.8153C44.8646 14.2528 44.9356 14.1477 45.0284 14.0284C45.1212 13.9091 45.25 13.8049 45.4148 13.7159C45.5795 13.625 45.7973 13.5795 46.0682 13.5795C46.4205 13.5795 46.7348 13.6686 47.0114 13.8466C47.2879 14.0246 47.5047 14.2812 47.6619 14.6165C47.821 14.9517 47.9006 15.3551 47.9006 15.8267C47.9006 16.2983 47.822 16.7027 47.6648 17.0398C47.5076 17.375 47.2917 17.6335 47.017 17.8153C46.7424 17.9953 46.429 18.0852 46.0767 18.0852C45.8116 18.0852 45.5947 18.0407 45.4261 17.9517C45.2595 17.8627 45.1288 17.7585 45.0341 17.6392C44.9394 17.5199 44.8665 17.4138 44.8153 17.321H44.7642V19.6364H43.9148ZM44.7472 15.8182C44.7472 16.125 44.7917 16.3939 44.8807 16.625C44.9697 16.8561 45.0985 17.0369 45.267 17.1676C45.4356 17.2964 45.642 17.3608 45.8864 17.3608C46.1402 17.3608 46.3523 17.2936 46.5227 17.1591C46.6932 17.0227 46.822 16.8381 46.9091 16.6051C46.9981 16.3722 47.0426 16.1098 47.0426 15.8182C47.0426 15.5303 46.9991 15.2718 46.9119 15.0426C46.8267 14.8134 46.6979 14.6326 46.5256 14.5C46.3551 14.3674 46.142 14.3011 45.8864 14.3011C45.6402 14.3011 45.4318 14.3646 45.2614 14.4915C45.0928 14.6184 44.965 14.7955 44.8778 15.0227C44.7907 15.25 44.7472 15.5152 44.7472 15.8182ZM50.6903 18.0881C50.2813 18.0881 49.9242 17.9943 49.6193 17.8068C49.3144 17.6193 49.0777 17.357 48.9091 17.0199C48.7405 16.6828 48.6562 16.2888 48.6562 15.8381C48.6562 15.3854 48.7405 14.9896 48.9091 14.6506C49.0777 14.3116 49.3144 14.0483 49.6193 13.8608C49.9242 13.6733 50.2813 13.5795 50.6903 13.5795C51.0994 13.5795 51.4564 13.6733 51.7614 13.8608C52.0663 14.0483 52.303 14.3116 52.4716 14.6506C52.6402 14.9896 52.7244 15.3854 52.7244 15.8381C52.7244 16.2888 52.6402 16.6828 52.4716 17.0199C52.303 17.357 52.0663 17.6193 51.7614 17.8068C51.4564 17.9943 51.0994 18.0881 50.6903 18.0881ZM50.6932 17.375C50.9583 17.375 51.178 17.3049 51.3523 17.1648C51.5265 17.0246 51.6553 16.8381 51.7386 16.6051C51.8239 16.3722 51.8665 16.1155 51.8665 15.8352C51.8665 15.5568 51.8239 15.3011 51.7386 15.0682C51.6553 14.8333 51.5265 14.6449 51.3523 14.5028C51.178 14.3608 50.9583 14.2898 50.6932 14.2898C50.4261 14.2898 50.2045 14.3608 50.0284 14.5028C49.8542 14.6449 49.7244 14.8333 49.6392 15.0682C49.5559 15.3011 49.5142 15.5568 49.5142 15.8352C49.5142 16.1155 49.5559 16.3722 49.6392 16.6051C49.7244 16.8381 49.8542 17.0246 50.0284 17.1648C50.2045 17.3049 50.4261 17.375 50.6932 17.375ZM54.522 15.4091V18H53.6726V13.6364H54.4879V14.3466H54.5419C54.6423 14.1155 54.7995 13.9299 55.0135 13.7898C55.2294 13.6496 55.5012 13.5795 55.8288 13.5795C56.1262 13.5795 56.3866 13.642 56.6101 13.767C56.8336 13.8902 57.0069 14.0739 57.13 14.3182C57.2531 14.5625 57.3146 14.8646 57.3146 15.2244V18H56.4652V15.3267C56.4652 15.0104 56.3828 14.7633 56.218 14.5852C56.0533 14.4053 55.8269 14.3153 55.5391 14.3153C55.3421 14.3153 55.1669 14.358 55.0135 14.4432C54.862 14.5284 54.7417 14.6534 54.6527 14.8182C54.5656 14.9811 54.522 15.178 54.522 15.4091ZM60.3345 18.0881C59.9046 18.0881 59.5343 17.9962 59.2237 17.8125C58.915 17.6269 58.6764 17.3665 58.5078 17.0312C58.3411 16.6941 58.2578 16.2992 58.2578 15.8466C58.2578 15.3996 58.3411 15.0057 58.5078 14.6648C58.6764 14.3239 58.9112 14.0578 59.2124 13.8665C59.5154 13.6752 59.8696 13.5795 60.2749 13.5795C60.5211 13.5795 60.7597 13.6203 60.9908 13.7017C61.2218 13.7831 61.4292 13.911 61.6129 14.0852C61.7966 14.2595 61.9415 14.4858 62.0476 14.7642C62.1536 15.0407 62.2067 15.3769 62.2067 15.7727V16.0739H58.7379V15.4375H61.3743C61.3743 15.214 61.3288 15.0161 61.2379 14.8438C61.147 14.6695 61.0192 14.5322 60.8544 14.4318C60.6915 14.3314 60.5002 14.2812 60.2805 14.2812C60.0419 14.2812 59.8336 14.34 59.6555 14.4574C59.4794 14.5729 59.343 14.7244 59.2464 14.9119C59.1518 15.0975 59.1044 15.2992 59.1044 15.517V16.0142C59.1044 16.3059 59.1555 16.554 59.2578 16.7585C59.362 16.9631 59.5069 17.1193 59.6925 17.2273C59.8781 17.3333 60.0949 17.3864 60.343 17.3864C60.504 17.3864 60.6508 17.3636 60.7834 17.3182C60.916 17.2708 61.0305 17.2008 61.1271 17.108C61.2237 17.0152 61.2976 16.9006 61.3487 16.7642L62.1527 16.9091C62.0883 17.1458 61.9728 17.3532 61.8061 17.5312C61.6413 17.7074 61.4339 17.8447 61.1839 17.9432C60.9358 18.0398 60.6527 18.0881 60.3345 18.0881ZM63.9986 15.4091V18H63.1491V13.6364H63.9645V14.3466H64.0185C64.1188 14.1155 64.276 13.9299 64.4901 13.7898C64.706 13.6496 64.9777 13.5795 65.3054 13.5795C65.6027 13.5795 65.8632 13.642 66.0866 13.767C66.3101 13.8902 66.4834 14.0739 66.6065 14.3182C66.7296 14.5625 66.7912 14.8646 66.7912 15.2244V18H65.9418V15.3267C65.9418 15.0104 65.8594 14.7633 65.6946 14.5852C65.5298 14.4053 65.3035 14.3153 65.0156 14.3153C64.8187 14.3153 64.6435 14.358 64.4901 14.4432C64.3385 14.5284 64.2183 14.6534 64.1293 14.8182C64.0421 14.9811 63.9986 15.178 63.9986 15.4091ZM69.9673 13.6364V14.3182H67.5838V13.6364H69.9673ZM68.223 12.5909H69.0724V16.7188C69.0724 16.8835 69.0971 17.0076 69.1463 17.0909C69.1955 17.1723 69.259 17.2282 69.3366 17.2585C69.4162 17.2869 69.5024 17.3011 69.5952 17.3011C69.6634 17.3011 69.723 17.2964 69.7741 17.2869C69.8253 17.2775 69.8651 17.2699 69.8935 17.2642L70.0469 17.9659C69.9976 17.9848 69.9276 18.0038 69.8366 18.0227C69.7457 18.0436 69.6321 18.0549 69.4957 18.0568C69.2723 18.0606 69.0639 18.0208 68.8707 17.9375C68.6776 17.8542 68.5213 17.7254 68.402 17.5511C68.2827 17.3769 68.223 17.1581 68.223 16.8949V12.5909ZM74.1065 14.7017L73.3366 14.8381C73.3045 14.7396 73.2533 14.6458 73.1832 14.5568C73.1151 14.4678 73.0223 14.3949 72.9048 14.3381C72.7874 14.2812 72.6406 14.2528 72.4645 14.2528C72.224 14.2528 72.0232 14.3068 71.8622 14.4148C71.7012 14.5208 71.6207 14.6581 71.6207 14.8267C71.6207 14.9725 71.6747 15.09 71.7827 15.179C71.8906 15.268 72.0649 15.3409 72.3054 15.3977L72.9986 15.5568C73.4001 15.6496 73.6993 15.7926 73.8963 15.9858C74.0933 16.179 74.1918 16.4299 74.1918 16.7386C74.1918 17 74.116 17.233 73.9645 17.4375C73.8149 17.6402 73.6056 17.7992 73.3366 17.9148C73.0696 18.0303 72.7599 18.0881 72.4077 18.0881C71.919 18.0881 71.5204 17.9839 71.2116 17.7756C70.9029 17.5653 70.7135 17.267 70.6435 16.8807L71.4645 16.7557C71.5156 16.9697 71.6207 17.1316 71.7798 17.2415C71.9389 17.3494 72.1463 17.4034 72.402 17.4034C72.6804 17.4034 72.9029 17.3456 73.0696 17.2301C73.2363 17.1127 73.3196 16.9697 73.3196 16.8011C73.3196 16.6648 73.2685 16.5502 73.1662 16.4574C73.0658 16.3646 72.9115 16.2945 72.7031 16.2472L71.9645 16.0852C71.5573 15.9924 71.2562 15.8447 71.0611 15.642C70.8679 15.4394 70.7713 15.1828 70.7713 14.8722C70.7713 14.6146 70.8433 14.3892 70.9872 14.196C71.1312 14.0028 71.33 13.8523 71.5838 13.7443C71.8376 13.6345 72.1283 13.5795 72.456 13.5795C72.9276 13.5795 73.2988 13.6818 73.5696 13.8864C73.8404 14.089 74.0194 14.3608 74.1065 14.7017ZM77.2429 18V13.6364H78.0923V18H77.2429ZM77.6719 12.9631C77.5241 12.9631 77.3973 12.9138 77.2912 12.8153C77.187 12.715 77.1349 12.5956 77.1349 12.4574C77.1349 12.3172 77.187 12.1979 77.2912 12.0994C77.3973 11.9991 77.5241 11.9489 77.6719 11.9489C77.8196 11.9489 77.9455 11.9991 78.0497 12.0994C78.1558 12.1979 78.2088 12.3172 78.2088 12.4574C78.2088 12.5956 78.1558 12.715 78.0497 12.8153C77.9455 12.9138 77.8196 12.9631 77.6719 12.9631ZM80.0845 15.4091V18H79.2351V13.6364H80.0504V14.3466H80.1044C80.2048 14.1155 80.362 13.9299 80.576 13.7898C80.7919 13.6496 81.0637 13.5795 81.3913 13.5795C81.6887 13.5795 81.9491 13.642 82.1726 13.767C82.3961 13.8902 82.5694 14.0739 82.6925 14.3182C82.8156 14.5625 82.8771 14.8646 82.8771 15.2244V18H82.0277V15.3267C82.0277 15.0104 81.9453 14.7633 81.7805 14.5852C81.6158 14.4053 81.3894 14.3153 81.1016 14.3153C80.9046 14.3153 80.7294 14.358 80.576 14.4432C80.4245 14.5284 80.3042 14.6534 80.2152 14.8182C80.1281 14.9811 80.0845 15.178 80.0845 15.4091ZM88.1705 13.6364V14.3182H85.7869V13.6364H88.1705ZM86.4261 12.5909H87.2756V16.7188C87.2756 16.8835 87.3002 17.0076 87.3494 17.0909C87.3987 17.1723 87.4621 17.2282 87.5398 17.2585C87.6193 17.2869 87.7055 17.3011 87.7983 17.3011C87.8665 17.3011 87.9261 17.2964 87.9773 17.2869C88.0284 17.2775 88.0682 17.2699 88.0966 17.2642L88.25 17.9659C88.2008 17.9848 88.1307 18.0038 88.0398 18.0227C87.9489 18.0436 87.8352 18.0549 87.6989 18.0568C87.4754 18.0606 87.267 18.0208 87.0739 17.9375C86.8807 17.8542 86.7244 17.7254 86.6051 17.5511C86.4858 17.3769 86.4261 17.1581 86.4261 16.8949V12.5909ZM90.0533 15.4091V18H89.2038V12.1818H90.0419V14.3466H90.0959C90.1982 14.1117 90.3544 13.9252 90.5646 13.7869C90.7749 13.6487 91.0495 13.5795 91.3885 13.5795C91.6877 13.5795 91.9491 13.6411 92.1726 13.7642C92.398 13.8873 92.5722 14.071 92.6953 14.3153C92.8203 14.5578 92.8828 14.8608 92.8828 15.2244V18H92.0334V15.3267C92.0334 15.0066 91.951 14.7585 91.7862 14.5824C91.6214 14.4044 91.3923 14.3153 91.0987 14.3153C90.898 14.3153 90.718 14.358 90.5589 14.4432C90.4018 14.5284 90.2777 14.6534 90.1868 14.8182C90.0978 14.9811 90.0533 15.178 90.0533 15.4091ZM94.0163 18V13.6364H94.8658V18H94.0163ZM94.4453 12.9631C94.2976 12.9631 94.1707 12.9138 94.0646 12.8153C93.9605 12.715 93.9084 12.5956 93.9084 12.4574C93.9084 12.3172 93.9605 12.1979 94.0646 12.0994C94.1707 11.9991 94.2976 11.9489 94.4453 11.9489C94.593 11.9489 94.719 11.9991 94.8232 12.0994C94.9292 12.1979 94.9822 12.3172 94.9822 12.4574C94.9822 12.5956 94.9292 12.715 94.8232 12.8153C94.719 12.9138 94.593 12.9631 94.4453 12.9631ZM99.2784 14.7017L98.5085 14.8381C98.4763 14.7396 98.4252 14.6458 98.3551 14.5568C98.2869 14.4678 98.1941 14.3949 98.0767 14.3381C97.9593 14.2812 97.8125 14.2528 97.6364 14.2528C97.3958 14.2528 97.1951 14.3068 97.0341 14.4148C96.8731 14.5208 96.7926 14.6581 96.7926 14.8267C96.7926 14.9725 96.8466 15.09 96.9545 15.179C97.0625 15.268 97.2367 15.3409 97.4773 15.3977L98.1705 15.5568C98.572 15.6496 98.8712 15.7926 99.0682 15.9858C99.2652 16.179 99.3636 16.4299 99.3636 16.7386C99.3636 17 99.2879 17.233 99.1364 17.4375C98.9867 17.6402 98.7775 17.7992 98.5085 17.9148C98.2415 18.0303 97.9318 18.0881 97.5795 18.0881C97.0909 18.0881 96.6922 17.9839 96.3835 17.7756C96.0748 17.5653 95.8854 17.267 95.8153 16.8807L96.6364 16.7557C96.6875 16.9697 96.7926 17.1316 96.9517 17.2415C97.1108 17.3494 97.3182 17.4034 97.5739 17.4034C97.8523 17.4034 98.0748 17.3456 98.2415 17.2301C98.4081 17.1127 98.4915 16.9697 98.4915 16.8011C98.4915 16.6648 98.4403 16.5502 98.3381 16.4574C98.2377 16.3646 98.0833 16.2945 97.875 16.2472L97.1364 16.0852C96.7292 15.9924 96.428 15.8447 96.233 15.642C96.0398 15.4394 95.9432 15.1828 95.9432 14.8722C95.9432 14.6146 96.0152 14.3892 96.1591 14.196C96.303 14.0028 96.5019 13.8523 96.7557 13.7443C97.0095 13.6345 97.3002 13.5795 97.6278 13.5795C98.0994 13.5795 98.4706 13.6818 98.7415 13.8864C99.0123 14.089 99.1913 14.3608 99.2784 14.7017ZM104.491 13.6364V14.3182H102.026V13.6364H104.491ZM102.702 18V13.1307C102.702 12.858 102.761 12.6316 102.881 12.4517C103 12.2699 103.158 12.1345 103.355 12.0455C103.552 11.9545 103.766 11.9091 103.997 11.9091C104.168 11.9091 104.313 11.9233 104.435 11.9517C104.556 11.9782 104.646 12.0028 104.705 12.0256L104.506 12.7131C104.466 12.7017 104.415 12.6884 104.352 12.6733C104.29 12.6562 104.214 12.6477 104.125 12.6477C103.919 12.6477 103.771 12.6989 103.682 12.8011C103.595 12.9034 103.551 13.0511 103.551 13.2443V18H102.702ZM105.368 18V13.6364H106.217V18H105.368ZM105.797 12.9631C105.649 12.9631 105.522 12.9138 105.416 12.8153C105.312 12.715 105.26 12.5956 105.26 12.4574C105.26 12.3172 105.312 12.1979 105.416 12.0994C105.522 11.9991 105.649 11.9489 105.797 11.9489C105.945 11.9489 106.071 11.9991 106.175 12.0994C106.281 12.1979 106.334 12.3172 106.334 12.4574C106.334 12.5956 106.281 12.715 106.175 12.8153C106.071 12.9138 105.945 12.9631 105.797 12.9631ZM108.21 12.1818V18H107.36V12.1818H108.21ZM111.233 18.0881C110.803 18.0881 110.433 17.9962 110.122 17.8125C109.813 17.6269 109.575 17.3665 109.406 17.0312C109.24 16.6941 109.156 16.2992 109.156 15.8466C109.156 15.3996 109.24 15.0057 109.406 14.6648C109.575 14.3239 109.81 14.0578 110.111 13.8665C110.414 13.6752 110.768 13.5795 111.173 13.5795C111.42 13.5795 111.658 13.6203 111.889 13.7017C112.12 13.7831 112.328 13.911 112.511 14.0852C112.695 14.2595 112.84 14.4858 112.946 14.7642C113.052 15.0407 113.105 15.3769 113.105 15.7727V16.0739H109.636V15.4375H112.273C112.273 15.214 112.227 15.0161 112.136 14.8438C112.045 14.6695 111.918 14.5322 111.753 14.4318C111.59 14.3314 111.399 14.2812 111.179 14.2812C110.94 14.2812 110.732 14.34 110.554 14.4574C110.378 14.5729 110.241 14.7244 110.145 14.9119C110.05 15.0975 110.003 15.2992 110.003 15.517V16.0142C110.003 16.3059 110.054 16.554 110.156 16.7585C110.26 16.9631 110.405 17.1193 110.591 17.2273C110.777 17.3333 110.993 17.3864 111.241 17.3864C111.402 17.3864 111.549 17.3636 111.682 17.3182C111.814 17.2708 111.929 17.2008 112.026 17.108C112.122 17.0152 112.196 16.9006 112.247 16.7642L113.051 16.9091C112.987 17.1458 112.871 17.3532 112.705 17.5312C112.54 17.7074 112.332 17.8447 112.082 17.9432C111.834 18.0398 111.551 18.0881 111.233 18.0881Z" fill="#616161"/>
<g filter="url(#filter1_d_1_6675)">
<rect x="14" y="24" width="125" height="26" rx="4" fill="white" shape-rendering="crispEdges"/>
<rect x="14.5" y="24.5" width="124" height="25" rx="3.5" stroke="#EAEAEA" shape-rendering="crispEdges"/>
<path d="M27.4716 36.0739H26.5852C26.5511 35.8845 26.4877 35.7178 26.3949 35.5739C26.3021 35.4299 26.1884 35.3078 26.054 35.2074C25.9195 35.107 25.7689 35.0312 25.6023 34.9801C25.4375 34.929 25.2623 34.9034 25.0767 34.9034C24.7415 34.9034 24.4413 34.9877 24.1761 35.1562C23.9129 35.3248 23.7045 35.572 23.5511 35.8977C23.3996 36.2235 23.3239 36.6212 23.3239 37.0909C23.3239 37.5644 23.3996 37.964 23.5511 38.2898C23.7045 38.6155 23.9138 38.8617 24.179 39.0284C24.4441 39.1951 24.7424 39.2784 25.0739 39.2784C25.2576 39.2784 25.4318 39.2538 25.5966 39.2045C25.7633 39.1534 25.9138 39.0786 26.0483 38.9801C26.1828 38.8816 26.2964 38.7614 26.3892 38.6193C26.4839 38.4754 26.5492 38.3106 26.5852 38.125L27.4716 38.1278C27.4242 38.4138 27.3324 38.6771 27.196 38.9176C27.0616 39.1562 26.8883 39.3627 26.6761 39.5369C26.4659 39.7093 26.2254 39.8428 25.9545 39.9375C25.6837 40.0322 25.3883 40.0795 25.0682 40.0795C24.5644 40.0795 24.1155 39.9602 23.7216 39.7216C23.3277 39.4811 23.017 39.1373 22.7898 38.6903C22.5644 38.2434 22.4517 37.7102 22.4517 37.0909C22.4517 36.4697 22.5653 35.9366 22.7926 35.4915C23.0199 35.0445 23.3305 34.7017 23.7244 34.4631C24.1184 34.2225 24.5663 34.1023 25.0682 34.1023C25.3769 34.1023 25.6648 34.1468 25.9318 34.2358C26.2008 34.3229 26.4422 34.4517 26.6562 34.6222C26.8703 34.7907 27.0473 34.9972 27.1875 35.2415C27.3277 35.4839 27.4223 35.7614 27.4716 36.0739ZM28.4538 40V35.6364H29.2749V36.3295H29.3203C29.3999 36.0947 29.54 35.91 29.7408 35.7756C29.9434 35.6392 30.1726 35.571 30.4283 35.571C30.4813 35.571 30.5438 35.5729 30.6158 35.5767C30.6896 35.5805 30.7474 35.5852 30.7891 35.5909V36.4034C30.755 36.3939 30.6944 36.3835 30.6072 36.3722C30.5201 36.3589 30.433 36.3523 30.3459 36.3523C30.1451 36.3523 29.9661 36.3949 29.8089 36.4801C29.6536 36.5634 29.5305 36.6799 29.4396 36.8295C29.3487 36.9773 29.3033 37.1458 29.3033 37.3352V40H28.4538ZM33.2486 40.0881C32.8187 40.0881 32.4484 39.9962 32.1378 39.8125C31.8291 39.6269 31.5904 39.3665 31.4219 39.0312C31.2552 38.6941 31.1719 38.2992 31.1719 37.8466C31.1719 37.3996 31.2552 37.0057 31.4219 36.6648C31.5904 36.3239 31.8253 36.0578 32.1264 35.8665C32.4295 35.6752 32.7836 35.5795 33.1889 35.5795C33.4351 35.5795 33.6738 35.6203 33.9048 35.7017C34.1359 35.7831 34.3433 35.911 34.527 36.0852C34.7107 36.2595 34.8556 36.4858 34.9616 36.7642C35.0677 37.0407 35.1207 37.3769 35.1207 37.7727V38.0739H31.652V37.4375H34.2884C34.2884 37.214 34.2429 37.0161 34.152 36.8438C34.0611 36.6695 33.9332 36.5322 33.7685 36.4318C33.6056 36.3314 33.4143 36.2812 33.1946 36.2812C32.956 36.2812 32.7476 36.34 32.5696 36.4574C32.3935 36.5729 32.2571 36.7244 32.1605 36.9119C32.0658 37.0975 32.0185 37.2992 32.0185 37.517V38.0142C32.0185 38.3059 32.0696 38.554 32.1719 38.7585C32.276 38.9631 32.4209 39.1193 32.6065 39.2273C32.7921 39.3333 33.009 39.3864 33.2571 39.3864C33.4181 39.3864 33.5649 39.3636 33.6974 39.3182C33.83 39.2708 33.9446 39.2008 34.0412 39.108C34.1378 39.0152 34.2116 38.9006 34.2628 38.7642L35.0668 38.9091C35.0024 39.1458 34.8868 39.3532 34.7202 39.5312C34.5554 39.7074 34.348 39.8447 34.098 39.9432C33.8499 40.0398 33.5668 40.0881 33.2486 40.0881ZM37.3331 40.0966C37.0566 40.0966 36.8066 40.0455 36.5831 39.9432C36.3596 39.839 36.1825 39.6884 36.0518 39.4915C35.9231 39.2945 35.8587 39.053 35.8587 38.767C35.8587 38.5208 35.906 38.3182 36.0007 38.1591C36.0954 38 36.2232 37.8741 36.3842 37.7812C36.5452 37.6884 36.7251 37.6184 36.924 37.571C37.1229 37.5237 37.3255 37.4877 37.532 37.4631C37.7933 37.4328 38.0054 37.4081 38.1683 37.3892C38.3312 37.3684 38.4496 37.3352 38.5234 37.2898C38.5973 37.2443 38.6342 37.1705 38.6342 37.0682V37.0483C38.6342 36.8002 38.5642 36.608 38.424 36.4716C38.2857 36.3352 38.0793 36.267 37.8047 36.267C37.5187 36.267 37.2933 36.3305 37.1286 36.4574C36.9657 36.5824 36.853 36.7216 36.7905 36.875L35.9922 36.6932C36.0869 36.428 36.2251 36.214 36.407 36.0511C36.5907 35.8864 36.8018 35.767 37.0405 35.6932C37.2791 35.6174 37.5301 35.5795 37.7933 35.5795C37.9676 35.5795 38.1522 35.6004 38.3473 35.642C38.5443 35.6818 38.728 35.7557 38.8984 35.8636C39.0708 35.9716 39.2119 36.1259 39.3217 36.3267C39.4316 36.5256 39.4865 36.7841 39.4865 37.1023V40H38.657V39.4034H38.6229C38.5679 39.5133 38.4856 39.6212 38.3757 39.7273C38.2659 39.8333 38.1248 39.9214 37.9524 39.9915C37.7801 40.0616 37.5736 40.0966 37.3331 40.0966ZM37.5178 39.4148C37.7526 39.4148 37.9534 39.3684 38.12 39.2756C38.2886 39.1828 38.4164 39.0616 38.5036 38.9119C38.5926 38.7604 38.6371 38.5985 38.6371 38.4261V37.8636C38.6068 37.8939 38.5481 37.9223 38.4609 37.9489C38.3757 37.9735 38.2782 37.9953 38.1683 38.0142C38.0585 38.0312 37.9515 38.0473 37.8473 38.0625C37.7431 38.0758 37.656 38.0871 37.5859 38.0966C37.4212 38.1174 37.2706 38.1525 37.1342 38.2017C36.9998 38.2509 36.8918 38.322 36.8104 38.4148C36.7308 38.5057 36.6911 38.6269 36.6911 38.7784C36.6911 38.9886 36.7687 39.1477 36.924 39.2557C37.0793 39.3617 37.2772 39.4148 37.5178 39.4148ZM42.6548 35.6364V36.3182H40.2713V35.6364H42.6548ZM40.9105 34.5909H41.7599V38.7188C41.7599 38.8835 41.7846 39.0076 41.8338 39.0909C41.883 39.1723 41.9465 39.2282 42.0241 39.2585C42.1037 39.2869 42.1899 39.3011 42.2827 39.3011C42.3509 39.3011 42.4105 39.2964 42.4616 39.2869C42.5128 39.2775 42.5526 39.2699 42.581 39.2642L42.7344 39.9659C42.6851 39.9848 42.6151 40.0038 42.5241 40.0227C42.4332 40.0436 42.3196 40.0549 42.1832 40.0568C41.9598 40.0606 41.7514 40.0208 41.5582 39.9375C41.3651 39.8542 41.2088 39.7254 41.0895 39.5511C40.9702 39.3769 40.9105 39.1581 40.9105 38.8949V34.5909ZM45.4283 40.0881C44.9983 40.0881 44.6281 39.9962 44.3175 39.8125C44.0088 39.6269 43.7701 39.3665 43.6016 39.0312C43.4349 38.6941 43.3516 38.2992 43.3516 37.8466C43.3516 37.3996 43.4349 37.0057 43.6016 36.6648C43.7701 36.3239 44.005 36.0578 44.3061 35.8665C44.6091 35.6752 44.9633 35.5795 45.3686 35.5795C45.6148 35.5795 45.8535 35.6203 46.0845 35.7017C46.3156 35.7831 46.523 35.911 46.7067 36.0852C46.8904 36.2595 47.0353 36.4858 47.1413 36.7642C47.2474 37.0407 47.3004 37.3769 47.3004 37.7727V38.0739H43.8317V37.4375H46.468C46.468 37.214 46.4226 37.0161 46.3317 36.8438C46.2408 36.6695 46.1129 36.5322 45.9482 36.4318C45.7853 36.3314 45.594 36.2812 45.3743 36.2812C45.1357 36.2812 44.9273 36.34 44.7493 36.4574C44.5732 36.5729 44.4368 36.7244 44.3402 36.9119C44.2455 37.0975 44.1982 37.2992 44.1982 37.517V38.0142C44.1982 38.3059 44.2493 38.554 44.3516 38.7585C44.4557 38.9631 44.6006 39.1193 44.7862 39.2273C44.9718 39.3333 45.1887 39.3864 45.4368 39.3864C45.5978 39.3864 45.7446 39.3636 45.8771 39.3182C46.0097 39.2708 46.1243 39.2008 46.2209 39.108C46.3175 39.0152 46.3913 38.9006 46.4425 38.7642L47.2464 38.9091C47.1821 39.1458 47.0665 39.3532 46.8999 39.5312C46.7351 39.7074 46.5277 39.8447 46.2777 39.9432C46.0296 40.0398 45.7464 40.0881 45.4283 40.0881ZM55.1243 34.1818V40H54.3175L51.3601 35.733H51.3061V40H50.4283V34.1818H51.2408L54.201 38.4545H54.255V34.1818H55.1243ZM58.2173 40.0881C57.7874 40.0881 57.4171 39.9962 57.1065 39.8125C56.7978 39.6269 56.5592 39.3665 56.3906 39.0312C56.224 38.6941 56.1406 38.2992 56.1406 37.8466C56.1406 37.3996 56.224 37.0057 56.3906 36.6648C56.5592 36.3239 56.794 36.0578 57.0952 35.8665C57.3982 35.6752 57.7524 35.5795 58.1577 35.5795C58.4039 35.5795 58.6425 35.6203 58.8736 35.7017C59.1046 35.7831 59.312 35.911 59.4957 36.0852C59.6795 36.2595 59.8243 36.4858 59.9304 36.7642C60.0365 37.0407 60.0895 37.3769 60.0895 37.7727V38.0739H56.6207V37.4375H59.2571C59.2571 37.214 59.2116 37.0161 59.1207 36.8438C59.0298 36.6695 58.902 36.5322 58.7372 36.4318C58.5743 36.3314 58.383 36.2812 58.1634 36.2812C57.9247 36.2812 57.7164 36.34 57.5384 36.4574C57.3622 36.5729 57.2259 36.7244 57.1293 36.9119C57.0346 37.0975 56.9872 37.2992 56.9872 37.517V38.0142C56.9872 38.3059 57.0384 38.554 57.1406 38.7585C57.2448 38.9631 57.3897 39.1193 57.5753 39.2273C57.7609 39.3333 57.9777 39.3864 58.2259 39.3864C58.3868 39.3864 58.5336 39.3636 58.6662 39.3182C58.7988 39.2708 58.9134 39.2008 59.0099 39.108C59.1065 39.0152 59.1804 38.9006 59.2315 38.7642L60.0355 38.9091C59.9711 39.1458 59.8556 39.3532 59.6889 39.5312C59.5241 39.7074 59.3168 39.8447 59.0668 39.9432C58.8187 40.0398 58.5355 40.0881 58.2173 40.0881ZM61.9702 40L60.6861 35.6364H61.5639L62.419 38.8409H62.4616L63.3196 35.6364H64.1974L65.0497 38.8267H65.0923L65.9418 35.6364H66.8196L65.5384 40H64.6719L63.7855 36.8494H63.7202L62.8338 40H61.9702ZM74.6435 36.0739H73.7571C73.723 35.8845 73.6596 35.7178 73.5668 35.5739C73.474 35.4299 73.3603 35.3078 73.2259 35.2074C73.0914 35.107 72.9408 35.0312 72.7741 34.9801C72.6094 34.929 72.4342 34.9034 72.2486 34.9034C71.9134 34.9034 71.6132 34.9877 71.348 35.1562C71.0848 35.3248 70.8764 35.572 70.723 35.8977C70.5715 36.2235 70.4957 36.6212 70.4957 37.0909C70.4957 37.5644 70.5715 37.964 70.723 38.2898C70.8764 38.6155 71.0857 38.8617 71.3509 39.0284C71.616 39.1951 71.9143 39.2784 72.2457 39.2784C72.4295 39.2784 72.6037 39.2538 72.7685 39.2045C72.9351 39.1534 73.0857 39.0786 73.2202 38.9801C73.3546 38.8816 73.4683 38.7614 73.5611 38.6193C73.6558 38.4754 73.7211 38.3106 73.7571 38.125L74.6435 38.1278C74.5961 38.4138 74.5043 38.6771 74.3679 38.9176C74.2334 39.1562 74.0601 39.3627 73.848 39.5369C73.6378 39.7093 73.3973 39.8428 73.1264 39.9375C72.8556 40.0322 72.5601 40.0795 72.2401 40.0795C71.7363 40.0795 71.2874 39.9602 70.8935 39.7216C70.4995 39.4811 70.1889 39.1373 69.9616 38.6903C69.7363 38.2434 69.6236 37.7102 69.6236 37.0909C69.6236 36.4697 69.7372 35.9366 69.9645 35.4915C70.1918 35.0445 70.5024 34.7017 70.8963 34.4631C71.2902 34.2225 71.7382 34.1023 72.2401 34.1023C72.5488 34.1023 72.8366 34.1468 73.1037 34.2358C73.3726 34.3229 73.6141 34.4517 73.8281 34.6222C74.0421 34.7907 74.2192 34.9972 74.3594 35.2415C74.4995 35.4839 74.5942 35.7614 74.6435 36.0739ZM77.4638 40.0881C77.0547 40.0881 76.6977 39.9943 76.3928 39.8068C76.0878 39.6193 75.8511 39.357 75.6825 39.0199C75.514 38.6828 75.4297 38.2888 75.4297 37.8381C75.4297 37.3854 75.514 36.9896 75.6825 36.6506C75.8511 36.3116 76.0878 36.0483 76.3928 35.8608C76.6977 35.6733 77.0547 35.5795 77.4638 35.5795C77.8729 35.5795 78.2299 35.6733 78.5348 35.8608C78.8397 36.0483 79.0765 36.3116 79.245 36.6506C79.4136 36.9896 79.4979 37.3854 79.4979 37.8381C79.4979 38.2888 79.4136 38.6828 79.245 39.0199C79.0765 39.357 78.8397 39.6193 78.5348 39.8068C78.2299 39.9943 77.8729 40.0881 77.4638 40.0881ZM77.4666 39.375C77.7318 39.375 77.9515 39.3049 78.1257 39.1648C78.3 39.0246 78.4287 38.8381 78.5121 38.6051C78.5973 38.3722 78.6399 38.1155 78.6399 37.8352C78.6399 37.5568 78.5973 37.3011 78.5121 37.0682C78.4287 36.8333 78.3 36.6449 78.1257 36.5028C77.9515 36.3608 77.7318 36.2898 77.4666 36.2898C77.1996 36.2898 76.978 36.3608 76.8018 36.5028C76.6276 36.6449 76.4979 36.8333 76.4126 37.0682C76.3293 37.3011 76.2876 37.5568 76.2876 37.8352C76.2876 38.1155 76.3293 38.3722 76.4126 38.6051C76.4979 38.8381 76.6276 39.0246 76.8018 39.1648C76.978 39.3049 77.1996 39.375 77.4666 39.375ZM80.446 40V35.6364H81.2614V36.3466H81.3153C81.4063 36.1061 81.5549 35.9186 81.7614 35.7841C81.9678 35.6477 82.215 35.5795 82.5028 35.5795C82.7945 35.5795 83.0388 35.6477 83.2358 35.7841C83.4347 35.9205 83.5814 36.108 83.6761 36.3466H83.7216C83.8258 36.1136 83.9915 35.928 84.2188 35.7898C84.446 35.6496 84.7169 35.5795 85.0312 35.5795C85.4271 35.5795 85.75 35.7036 86 35.9517C86.2519 36.1998 86.3778 36.5739 86.3778 37.0739V40H85.5284V37.1534C85.5284 36.858 85.4479 36.6439 85.2869 36.5114C85.1259 36.3788 84.9337 36.3125 84.7102 36.3125C84.4337 36.3125 84.2188 36.3977 84.0653 36.5682C83.9119 36.7367 83.8352 36.9536 83.8352 37.2188V40H82.9886V37.0994C82.9886 36.8627 82.9148 36.6723 82.767 36.5284C82.6193 36.3845 82.4271 36.3125 82.1903 36.3125C82.0294 36.3125 81.8807 36.3551 81.7443 36.4403C81.6098 36.5237 81.5009 36.6402 81.4176 36.7898C81.3362 36.9394 81.2955 37.1127 81.2955 37.3097V40H80.446ZM87.5163 41.6364V35.6364H88.3459V36.3438H88.4169C88.4661 36.2528 88.5372 36.1477 88.63 36.0284C88.7228 35.9091 88.8516 35.8049 89.0163 35.7159C89.1811 35.625 89.3989 35.5795 89.6697 35.5795C90.022 35.5795 90.3364 35.6686 90.6129 35.8466C90.8894 36.0246 91.1063 36.2812 91.2635 36.6165C91.4226 36.9517 91.5021 37.3551 91.5021 37.8267C91.5021 38.2983 91.4235 38.7027 91.2663 39.0398C91.1091 39.375 90.8932 39.6335 90.6186 39.8153C90.344 39.9953 90.0305 40.0852 89.6783 40.0852C89.4131 40.0852 89.1963 40.0407 89.0277 39.9517C88.861 39.8627 88.7304 39.7585 88.6357 39.6392C88.541 39.5199 88.468 39.4138 88.4169 39.321H88.3658V41.6364H87.5163ZM88.3487 37.8182C88.3487 38.125 88.3932 38.3939 88.4822 38.625C88.5713 38.8561 88.7 39.0369 88.8686 39.1676C89.0372 39.2964 89.2436 39.3608 89.4879 39.3608C89.7417 39.3608 89.9538 39.2936 90.1243 39.1591C90.2947 39.0227 90.4235 38.8381 90.5107 38.6051C90.5997 38.3722 90.6442 38.1098 90.6442 37.8182C90.6442 37.5303 90.6006 37.2718 90.5135 37.0426C90.4283 36.8134 90.2995 36.6326 90.1271 36.5C89.9567 36.3674 89.7436 36.3011 89.4879 36.3011C89.2417 36.3011 89.0334 36.3646 88.8629 36.4915C88.6944 36.6184 88.5665 36.7955 88.4794 37.0227C88.3923 37.25 88.3487 37.5152 88.3487 37.8182ZM94.2919 40.0881C93.8828 40.0881 93.5258 39.9943 93.2209 39.8068C92.916 39.6193 92.6792 39.357 92.5107 39.0199C92.3421 38.6828 92.2578 38.2888 92.2578 37.8381C92.2578 37.3854 92.3421 36.9896 92.5107 36.6506C92.6792 36.3116 92.916 36.0483 93.2209 35.8608C93.5258 35.6733 93.8828 35.5795 94.2919 35.5795C94.701 35.5795 95.058 35.6733 95.3629 35.8608C95.6679 36.0483 95.9046 36.3116 96.0732 36.6506C96.2417 36.9896 96.326 37.3854 96.326 37.8381C96.326 38.2888 96.2417 38.6828 96.0732 39.0199C95.9046 39.357 95.6679 39.6193 95.3629 39.8068C95.058 39.9943 94.701 40.0881 94.2919 40.0881ZM94.2947 39.375C94.5599 39.375 94.7796 39.3049 94.9538 39.1648C95.1281 39.0246 95.2569 38.8381 95.3402 38.6051C95.4254 38.3722 95.468 38.1155 95.468 37.8352C95.468 37.5568 95.4254 37.3011 95.3402 37.0682C95.2569 36.8333 95.1281 36.6449 94.9538 36.5028C94.7796 36.3608 94.5599 36.2898 94.2947 36.2898C94.0277 36.2898 93.8061 36.3608 93.63 36.5028C93.4557 36.6449 93.326 36.8333 93.2408 37.0682C93.1574 37.3011 93.1158 37.5568 93.1158 37.8352C93.1158 38.1155 93.1574 38.3722 93.2408 38.6051C93.326 38.8381 93.4557 39.0246 93.63 39.1648C93.8061 39.3049 94.0277 39.375 94.2947 39.375ZM98.1236 37.4091V40H97.2741V35.6364H98.0895V36.3466H98.1435C98.2438 36.1155 98.401 35.9299 98.6151 35.7898C98.831 35.6496 99.1027 35.5795 99.4304 35.5795C99.7277 35.5795 99.9882 35.642 100.212 35.767C100.435 35.8902 100.608 36.0739 100.732 36.3182C100.855 36.5625 100.916 36.8646 100.916 37.2244V40H100.067V37.3267C100.067 37.0104 99.9844 36.7633 99.8196 36.5852C99.6548 36.4053 99.4285 36.3153 99.1406 36.3153C98.9437 36.3153 98.7685 36.358 98.6151 36.4432C98.4635 36.5284 98.3433 36.6534 98.2543 36.8182C98.1671 36.9811 98.1236 37.178 98.1236 37.4091ZM103.936 40.0881C103.506 40.0881 103.136 39.9962 102.825 39.8125C102.517 39.6269 102.278 39.3665 102.109 39.0312C101.943 38.6941 101.859 38.2992 101.859 37.8466C101.859 37.3996 101.943 37.0057 102.109 36.6648C102.278 36.3239 102.513 36.0578 102.814 35.8665C103.117 35.6752 103.471 35.5795 103.876 35.5795C104.123 35.5795 104.361 35.6203 104.592 35.7017C104.823 35.7831 105.031 35.911 105.214 36.0852C105.398 36.2595 105.543 36.4858 105.649 36.7642C105.755 37.0407 105.808 37.3769 105.808 37.7727V38.0739H102.339V37.4375H104.976C104.976 37.214 104.93 37.0161 104.839 36.8438C104.749 36.6695 104.621 36.5322 104.456 36.4318C104.293 36.3314 104.102 36.2812 103.882 36.2812C103.643 36.2812 103.435 36.34 103.257 36.4574C103.081 36.5729 102.945 36.7244 102.848 36.9119C102.753 37.0975 102.706 37.2992 102.706 37.517V38.0142C102.706 38.3059 102.757 38.554 102.859 38.7585C102.964 38.9631 103.108 39.1193 103.294 39.2273C103.48 39.3333 103.696 39.3864 103.945 39.3864C104.106 39.3864 104.252 39.3636 104.385 39.3182C104.518 39.2708 104.632 39.2008 104.729 39.108C104.825 39.0152 104.899 38.9006 104.95 38.7642L105.754 38.9091C105.69 39.1458 105.574 39.3532 105.408 39.5312C105.243 39.7074 105.036 39.8447 104.786 39.9432C104.537 40.0398 104.254 40.0881 103.936 40.0881ZM107.6 37.4091V40H106.751V35.6364H107.566V36.3466H107.62C107.72 36.1155 107.878 35.9299 108.092 35.7898C108.308 35.6496 108.579 35.5795 108.907 35.5795C109.204 35.5795 109.465 35.642 109.688 35.767C109.912 35.8902 110.085 36.0739 110.208 36.3182C110.331 36.5625 110.393 36.8646 110.393 37.2244V40H109.543V37.3267C109.543 37.0104 109.461 36.7633 109.296 36.5852C109.131 36.4053 108.905 36.3153 108.617 36.3153C108.42 36.3153 108.245 36.358 108.092 36.4432C107.94 36.5284 107.82 36.6534 107.731 36.8182C107.644 36.9811 107.6 37.178 107.6 37.4091ZM113.569 35.6364V36.3182H111.185V35.6364H113.569ZM111.825 34.5909H112.674V38.7188C112.674 38.8835 112.699 39.0076 112.748 39.0909C112.797 39.1723 112.861 39.2282 112.938 39.2585C113.018 39.2869 113.104 39.3011 113.197 39.3011C113.265 39.3011 113.325 39.2964 113.376 39.2869C113.427 39.2775 113.467 39.2699 113.495 39.2642L113.648 39.9659C113.599 39.9848 113.529 40.0038 113.438 40.0227C113.347 40.0436 113.234 40.0549 113.097 40.0568C112.874 40.0606 112.665 40.0208 112.472 39.9375C112.279 39.8542 112.123 39.7254 112.004 39.5511C111.884 39.3769 111.825 39.1581 111.825 38.8949V34.5909Z" fill="#616161"/>
</g>
</g>
<defs>
<filter id="filter0_d_1_6675" x="0" y="0" width="153" height="68" filterUnits="userSpaceOnUse" color-interpolation-filters="sRGB">
<feFlood flood-opacity="0" result="BackgroundImageFix"/>
<feColorMatrix in="SourceAlpha" type="matrix" values="0 0 0 0 0 0 0 0 0 0 0 0 0 0 0 0 0 0 127 0" result="hardAlpha"/>
<feOffset dy="4"/>
<feGaussianBlur stdDeviation="2"/>
<feComposite in2="hardAlpha" operator="out"/>
<feColorMatrix type="matrix" values="0 0 0 0 0 0 0 0 0 0 0 0 0 0 0 0 0 0 0.25 0"/>
<feBlend mode="normal" in2="BackgroundImageFix" result="effect1_dropShadow_1_6675"/>
<feBlend mode="normal" in="SourceGraphic" in2="effect1_dropShadow_1_6675" result="shape"/>
</filter>
<filter id="filter1_d_1_6675" x="10" y="22" width="133" height="34" filterUnits="userSpaceOnUse" color-interpolation-filters="sRGB">
<feFlood flood-opacity="0" result="BackgroundImageFix"/>
<feColorMatrix in="SourceAlpha" type="matrix" values="0 0 0 0 0 0 0 0 0 0 0 0 0 0 0 0 0 0 127 0" result="hardAlpha"/>
<feOffset dy="2"/>
<feGaussianBlur stdDeviation="2"/>
<feComposite in2="hardAlpha" operator="out"/>
<feColorMatrix type="matrix" values="0 0 0 0 0.776765 0 0 0 0 0.776765 0 0 0 0 0.776765 0 0 0 0.25 0"/>
<feBlend mode="normal" in2="BackgroundImageFix" result="effect1_dropShadow_1_6675"/>
<feBlend mode="normal" in="SourceGraphic" in2="effect1_dropShadow_1_6675" result="shape"/>
</filter>
</defs>
</svg>
