<svg width="229" height="715" viewBox="0 0 229 715" fill="none" xmlns="http://www.w3.org/2000/svg">
<g clip-path="url(#clip0_44_3094)">
<path d="M13.0272 39H96.7705C96.8399 39.0445 99.6267 39.7187 100.137 39.9119C104.847 41.6932 108.153 45.4019 109.465 50.2554C110.046 52.3593 109.77 55.6526 109.766 57.9787L109.762 68.5054L109.757 114.217L109.767 129.482C109.774 131.822 109.855 134.297 109.809 136.621C109.772 138.448 108.745 140.722 107.924 142.299C105.896 146.064 102.216 148.442 98.16 149.56C97.8451 149.647 97.3343 149.753 97.0479 149.859H12.594C7.47086 148.307 3.54994 146.122 1.26644 140.972C0.672772 139.633 0.429849 138.376 0 137.019V51.9612C0.139211 51.601 0.185637 51.0482 0.304688 50.6222C0.637462 49.4315 1.00945 48.3527 1.56109 47.2372C3.26973 43.782 6.02665 41.325 9.61003 39.9272C10.8001 39.463 11.9409 39.3765 12.951 39.0269L13.0272 39Z" fill="#E5F1FB"/>
<path d="M42.4023 61.5896L79.5261 61.5969L87.55 61.5837C88.7246 61.5813 92.1443 61.512 93.0649 61.7686C94.0278 62.0033 94.8546 62.6182 95.3563 63.473C96.1115 64.7889 95.8176 74.3747 95.8177 76.6834L95.815 100.888C95.8146 101.702 95.8606 103.216 95.7911 103.976C94.9455 108.112 91.0707 107.337 87.8327 107.335L80.5136 107.335L57.5503 107.338L31.2001 107.337C26.8948 107.338 22.593 107.353 18.288 107.314C15.9298 107.293 14.2179 106.214 14.0428 103.672C13.8527 102.057 13.9866 97.2029 13.9919 95.4162L14.0072 79.3328C13.9119 75.1989 14.0495 70.9125 13.978 66.7656C13.9508 65.1864 13.9219 63.8468 15.138 62.7074C15.5767 62.2963 16.4697 61.7091 17.0478 61.6717C19.5299 61.511 22.3785 61.5765 24.855 61.5761L42.4023 61.5896Z" fill="#1B96E7"/>
<path d="M42.4023 61.5896L79.5261 61.5969L87.55 61.5837C88.7246 61.5813 92.1443 61.512 93.0649 61.7686C90.4433 62.0309 72.087 61.4482 71.3659 62.0527L71.0457 62.7005L71.1868 62.9325L71.0852 63.2724C71.2823 63.2017 71.2831 63.1884 71.4385 63.0607C71.7368 63.1498 72.1819 63.2436 72.3872 63.4493L72.088 63.7601C72.5797 63.9539 72.9924 63.5197 73.2383 63.7716L73.0509 63.9054L73.1191 64.0045C73.3144 64.0183 73.393 64.0426 73.5685 63.9532C74.4163 64.5909 74.9456 63.806 75.2033 65.158C75.7153 65.4054 75.7897 65.14 76.0755 65.4501C75.9281 65.5525 75.8634 65.592 75.705 65.6765L75.7549 65.8513C75.9457 65.934 76.1377 66.0138 76.3307 66.0909L76.3709 66.296C76.1657 66.4786 76.1434 66.4792 75.8805 66.5752L75.8196 66.722C76.1344 66.8013 76.8648 66.8522 77.0006 66.9779C76.9315 67.0644 76.435 67.2775 76.2023 67.4804L76.2159 67.6205C76.4713 67.6853 76.6779 67.7548 76.9414 67.7522L76.9273 67.8262C76.645 67.9886 75.9272 68.3369 75.8224 68.5874C76.2646 68.8167 76.8122 68.5972 77.3127 68.7989L77.3122 68.8023C76.8129 69.0879 76.1561 69.4389 75.6912 69.7558C75.2792 69.7475 74.8981 69.5433 74.495 69.5848C73.9048 69.6456 71.8552 71.4266 71.0633 71.8371C70.9868 71.4935 71.0402 71.4361 70.808 71.2668C69.9557 71.712 69.0397 72.33 68.1475 72.64C68.1313 72.262 68.4063 72.4158 68.228 71.9725C67.7764 71.9347 65.8089 73.0758 65.2233 73.3884L65.1763 73.5463L65.2942 73.6489C65.6025 73.5808 66.7232 73.2189 66.8795 73.2269C66.1321 73.9719 65.5661 73.845 65.0696 74.2888C65.2655 74.4274 65.2292 74.3828 65.5096 74.4024L65.3988 74.6473C65.742 75.2345 66.4427 75.4678 66.5536 75.7449C66.455 76.0269 66.4034 76.0498 66.1511 76.2179C66.3251 76.7069 66.8998 76.5117 66.7522 77.0896C65.5664 77.6495 64.4273 78.1733 63.178 78.5761C63.0606 78.5034 63.1013 78.5376 63.0237 78.418L62.7383 78.2783C62.8005 77.72 63.3811 77.5667 63.5422 77.2083C63.819 76.5924 63.857 74.6128 63.103 74.2906L62.9434 74.3035C61.9032 73.7673 61.5521 73.7091 60.4456 74.0248C59.569 72.9511 58.8536 74.5656 58.099 74.7295C57.3606 74.8898 56.911 75.0254 56.3736 75.5995C56.2091 75.775 56.0576 75.9624 55.9206 76.1599C55.5051 76.7636 54.0089 77.0148 53.6235 78.0287C53.4573 78.4658 53.1598 78.8091 52.6725 78.7903L52.626 78.8979L52.8319 79.1354L52.6886 79.4832L52.7545 79.638C51.5422 80.0605 51.6914 79.0148 50.3317 80.5308L50.3636 80.801C49.4428 82.2066 45.2679 88.3266 45.521 89.6435C45.608 90.0962 45.9831 90.5529 46.252 90.9169C46.6077 91.0165 47.0056 91.1378 47.3639 91.2085L47.5546 91.4377C47.8944 91.4623 48.2346 91.4839 48.575 91.5024L48.7125 91.6938C48.4004 91.9294 48.3987 91.8719 48.3308 92.2541C48.2298 92.823 48.2066 94.4066 47.8053 94.7978C47.1101 94.951 46.1999 94.9316 45.4527 94.9812C44.5489 95.0411 43.1503 95.6031 42.3115 95.6173C39.7972 95.66 37.1396 96.1261 34.666 96.2145C31.772 96.318 28.9053 96.1231 26.0192 96.4749C25.5497 96.5222 23.4647 97.5698 23.1846 97.8676C19.8018 97.9784 17.5006 97.9599 14.0356 97.6876C14.0325 99.642 13.9948 101.725 14.0428 103.672C13.8527 102.057 13.9866 97.2029 13.9919 95.4162L14.0072 79.3328C13.9119 75.1989 14.0495 70.9125 13.978 66.7656C13.9508 65.1864 13.9219 63.8468 15.138 62.7074C15.5767 62.2963 16.4697 61.7091 17.0478 61.6717C19.5299 61.511 22.3785 61.5765 24.855 61.5761L42.4023 61.5896Z" fill="#1B96E7"/>
<path d="M14.0073 79.3328C13.9119 75.1989 14.0495 70.9125 13.9781 66.7656C13.9509 65.1864 13.922 63.8468 15.1381 62.7074C15.5768 62.2963 16.4698 61.7091 17.0479 61.6717C19.53 61.511 22.3786 61.5765 24.8551 61.5761L42.4024 61.5896C43.5451 61.7059 45.2103 61.6708 46.3939 61.679L52.8673 61.7121C51.3 62.0115 50.1925 61.6995 48.9991 61.8453C49.5042 61.7918 50.9495 62.0906 51.3926 62.236L51.4697 62.3099C51.0641 63.1419 49.0915 63.3061 48.2742 63.5992C46.5407 64.2206 44.7553 64.6003 43.0149 65.1964C42.4486 65.3915 41.7859 65.4873 41.2952 65.8035C41.0021 65.9922 40.8854 66.0266 40.544 66.073C40.3495 66.0093 40.3278 66.0392 40.2234 65.9051C39.0264 66.7431 37.4309 67.5179 36.0692 68.4112C36.0387 68.4043 35.5543 68.2847 35.5716 68.2754C33.6565 69.3179 31.8252 70.8071 29.9271 71.8259C27.6542 73.0459 25.1006 73.9582 22.7868 75.1039C21.3488 75.8887 20.2498 77.1135 18.9581 78.0744C18.6475 78.3053 18.4855 78.7807 18.2708 78.9057C17.185 79.5379 16.2211 80.2708 15.2419 81.0623C14.8278 81.397 14.3739 81.1024 14.1894 81.5428C14.1186 82.6442 14.3278 83.2362 14.1214 84.4069C14.1144 83.3644 14.1579 80.2445 14.0073 79.3328Z" fill="#1B96E7"/>
<path d="M14.0356 97.6876C17.5006 97.9599 19.8018 97.9784 23.1846 97.8677C24.1791 98.0547 25.4489 98.3704 26.3818 98.765C28.7166 99.7525 30.5236 99.0204 32.9863 99.5299L33.0507 99.5576C33.8362 99.9042 34.5942 100.58 35.5205 100.35C37.5224 100.855 40.8353 100.838 42.8994 100.54C43.3875 100.47 44.6948 99.8127 45.1944 99.7436C46.0493 99.6251 46.3853 99.8407 47.2887 99.5286C50.2875 97.7033 50.8596 98.7793 53.749 99.9441C54.3131 99.7003 54.5458 99.6469 55.1383 99.5158C55.3025 99.7759 55.3584 99.9973 55.6963 100.051C56.5973 100.194 57.5221 100.175 58.4269 100.264C61.585 100.576 64.5541 101.912 67.6837 102.363C68.4592 102.475 70.3371 101.358 70.8873 101.528C71.2454 101.64 77.4037 103.721 77.204 103.54C79.4294 103.803 81.4388 104.101 83.6846 103.868C85.4201 103.689 87.2088 104.103 88.9528 104.01C90.7325 104.095 94.2129 103.348 95.6963 103.69L95.791 103.976C94.9455 108.112 91.0707 107.337 87.8327 107.335L80.5136 107.335L57.5502 107.338L31.2001 107.337C26.8947 107.338 22.593 107.353 18.288 107.314C15.9297 107.293 14.2179 106.214 14.0428 103.672C13.9947 101.725 14.0324 99.6421 14.0356 97.6876Z" fill="#09557E"/>
<path d="M47.2888 99.5285C50.2877 97.7032 50.8597 98.7793 53.7492 99.944C54.3132 99.7002 54.5459 99.6468 55.1385 99.5158C55.3027 99.7758 55.3586 99.9972 55.6965 100.051C56.5975 100.194 57.5223 100.174 58.4271 100.264C61.5852 100.576 64.5543 101.912 67.6838 102.363C68.4594 102.474 70.3373 101.358 70.8875 101.528C71.2456 101.64 77.4039 103.721 77.2042 103.54L77.0889 103.655C76.7223 103.603 76.3573 103.541 75.9875 103.54L75.9429 103.791C75.6326 103.96 72.6783 103.889 71.8817 104.104C69.5865 104.725 67.4676 105.422 65.0723 105.604C64.5991 105.64 63.373 106.593 62.9598 106.554C63.3489 105.732 65.3275 105.447 65.5173 105.264C64.9681 104.89 62.727 104.758 61.8956 104.021L61.8902 103.866C62.1601 103.853 62.2614 103.844 62.5241 103.783C62.4065 103.292 61.1171 102.752 60.6188 101.343C60.6802 101.184 60.7656 101.141 60.901 101.032L60.9572 100.988C60.2043 100.347 55.3339 100.452 54.0518 100.17C52.6171 99.8929 51.4092 98.8704 49.9627 98.6879C49.1687 98.5877 48.0017 99.6144 47.2888 99.5285Z" fill="#1B96E7"/>
<path d="M62.1028 85.3153C63.3311 84.5785 64.691 84.8185 66.0413 84.4489C66.0379 84.4498 66.5375 83.5408 66.5984 83.47C67.6817 82.2073 68.1976 80.525 69.6314 79.6093C69.9936 79.378 72.0223 79.6076 72.0919 79.5588C73.9114 78.2858 75.0169 78.852 76.9703 78.8251C77.5653 78.817 79.1185 76.7465 79.5745 76.3166C80.2772 76.0346 83.6924 75.0772 84.3617 75.1716C85.9308 75.3929 89.2456 75.3883 90.6166 75.6861C91.0897 76.3803 92.7986 78.991 92.8711 79.6519C92.902 79.933 92.9036 80.4269 93.0247 80.6741C93.3071 81.2505 94.2545 81.5602 94.4461 82.1908C94.8223 83.4287 93.2717 83.2151 94.5466 85.1827C93.6191 85.4679 93.3266 85.4982 93.1343 86.6752C93.0806 87.0036 93.0435 87.3805 93.1088 87.7092C93.5916 87.969 94.1412 87.5067 94.3268 87.7747C93.5565 88.1219 90.5521 88.3531 89.5997 88.5335C88.3761 88.7653 86.7064 89.555 85.5923 89.7864C85.3348 89.84 83.0719 89.7958 82.5074 89.8319C79.8752 90.0035 77.2668 90.4376 74.7209 91.1279C73.0076 91.5748 71.5157 92.2928 69.8206 92.7089C69.2039 92.8604 68.4378 91.8934 68.0073 92.1345C66.7231 92.8537 63.8123 93.2847 62.4768 92.8482C62.7315 92.479 63.3058 92.8377 63.1206 92.1857C62.8542 91.2484 62.0682 91.3562 61.3337 91.3985C61.6273 91.3372 61.9248 91.2789 62.2155 91.2064C62.7361 91.1962 63.3063 91.0799 63.7284 90.7564C65.4185 89.4609 63.0346 86.4864 62.1028 85.3153Z" fill="#1B96E7"/>
<path d="M50.3637 80.801C50.9418 80.2874 51.2072 79.7279 51.9974 79.7636C52.6489 79.793 53.301 80.2462 53.6845 80.7453C55.1022 82.5902 56.5241 85.729 57.8727 87.5074C58.9792 85.9377 59.8118 83.7248 62.1028 85.3153C63.0346 86.4864 65.4185 89.4609 63.7284 90.7564C63.3063 91.0799 62.7362 91.1962 62.2155 91.2064C60.5804 91.1269 58.3827 91.1865 56.7069 91.1876L47.364 91.2085C47.0057 91.1378 46.6078 91.0165 46.2521 90.9169C45.9832 90.5529 45.6081 90.0962 45.521 89.6435C45.268 88.3266 49.4429 82.2066 50.3637 80.801Z" fill="#E5F1FB"/>
<path d="M55.1384 99.5158C55.6225 99.3812 56.2479 99.2327 56.7372 99.2338C58.5038 99.238 59.9421 98.357 61.6154 97.8893C63.0239 97.4956 64.4933 97.2426 65.9469 96.9655C67.443 97.6459 67.9848 97.8053 69.2287 98.8458C70.3497 98.7303 71.2868 98.4118 72.3328 98.331C72.8002 98.295 73.537 98.8457 74.1995 98.9769C75.7362 99.2816 77.3088 99.2975 78.8123 99.4749C79.3473 99.5381 81.3201 100.314 81.9815 100.538C82.9815 100.285 83.5783 100.088 84.5 99.5972C86.7933 101.068 88.2396 102.326 91.1774 101.702C92.55 101.411 94.4516 100.842 95.8151 100.888C95.8147 101.702 95.8607 103.216 95.7912 103.976L95.6964 103.69C94.213 103.348 90.7327 104.095 88.9529 104.009C87.2089 104.103 85.4202 103.688 83.6847 103.868C81.439 104.101 79.4295 103.803 77.2042 103.54C77.4039 103.721 71.2456 101.64 70.8874 101.528C70.3372 101.358 68.4594 102.474 67.6838 102.363C64.5543 101.912 61.5851 100.576 58.427 100.264C57.5222 100.174 56.5974 100.194 55.6965 100.051C55.3585 99.9972 55.3027 99.7758 55.1384 99.5158Z" fill="#1B96E7"/>
<path d="M60.4456 74.0248C61.552 73.7091 61.9032 73.7673 62.9433 74.3036C63.8692 75.5642 63.7579 76.7044 62.7026 77.808L61.454 78.1294C59.916 77.8039 59.6441 77.4071 59.1306 76.0015C59.5183 75.0384 59.6214 74.6297 60.4456 74.0248Z" fill="#E5F1FB"/>
<path d="M34.846 99.0632C35.0056 99.5267 35.1079 99.9754 35.4668 100.301L35.5205 100.35C34.5942 100.58 33.8363 99.9041 33.0508 99.5576L32.9863 99.5299C33.7152 99.5325 34.169 99.3274 34.846 99.0632Z" fill="#1B96E7"/>
<path d="M61.8956 126.904L61.9893 127.088C62.3484 127.125 63.5706 126.029 63.6567 126.512C64.0611 128.778 64.3192 132.394 62.8724 134.249C61.629 134.695 60.5501 134.864 59.3109 134.249C58.9158 134.052 58.5639 133.749 58.7041 133.27C59.5234 132.875 61.8009 134.384 62.4773 132.88C62.597 132.614 62.6623 132.013 62.5557 131.702C62.4045 131.484 62.4002 131.476 62.1564 131.391C61.9836 131.626 61.3188 132.272 61.0832 132.511C60.4359 132.311 59.5358 131.9 59.0558 131.444C57.4876 129.954 58.2804 126.406 60.7452 126.495C61.2519 126.514 61.5434 126.532 61.8956 126.904Z" fill="#1B96E7"/>
<path d="M62.1007 131.012C59.0792 132.403 58.9215 127.154 61.3154 127.322C61.9105 127.809 62.3024 128.148 62.4419 128.922C62.5799 129.687 62.0831 130.746 62.1007 131.012Z" fill="#E5F1FB"/>
<path d="M48.5226 126.469C49.3847 126.539 49.6492 126.706 50.4262 127.07C50.6889 128.619 50.6495 130.582 50.6105 132.173C50.6079 132.281 50.5683 132.265 50.4352 132.373C50.0432 132.389 49.7418 132.432 49.3767 132.289C49.1125 131.51 49.7877 124.612 47.0461 128.423C47.0521 129.177 47.2236 131.968 46.7757 132.377C46.4301 132.431 46.3793 132.442 46.0481 132.337C45.7309 131.786 45.8469 129.611 45.8549 128.873C45.8533 128.706 45.8366 128.54 45.8047 128.377C45.6991 127.837 45.1041 127.536 44.6475 127.231C44.2771 127.648 43.9528 127.941 43.5449 128.314C43.5282 129.12 43.5756 131.635 43.4219 132.286L43.2014 132.411C42.9606 132.414 42.67 132.454 42.4898 132.319C42.1953 131.555 42.1794 127.374 42.3647 126.615C43.1106 126.105 43.361 126.995 43.679 127.227C44.5342 127.214 45.5354 125.187 46.6622 127.615C47.3261 127.017 47.6347 126.679 48.5226 126.469Z" fill="#1B96E7"/>
<path d="M53.9023 126.574C55.2326 126.453 55.5236 126.598 56.6528 127.253C56.8987 127.96 57.1917 131.894 56.714 132.405C55.7691 132.797 55.5657 131.814 55.4088 131.864C54.3316 132.201 53.5803 133.316 52.2459 131.661C51.9965 131.347 51.7743 130.736 51.8694 130.317C52.226 128.746 55.1706 129.357 55.407 128.057C55.2957 127.684 55.2807 127.631 54.9856 127.36C53.7625 127.059 53.3343 128.717 52.2658 127.866C52.1201 127.507 52.1189 127.648 52.2339 127.328C52.7274 126.825 53.229 126.702 53.9023 126.574Z" fill="#1B96E7"/>
<path d="M55.1988 129.703L55.3982 129.739C55.657 130.281 55.3803 130.929 54.8904 131.217C54.4597 131.47 53.9818 131.391 53.5055 131.37C53.1649 131.032 53.1311 130.871 53.2204 130.432C53.6191 129.881 54.5451 129.812 55.1988 129.703Z" fill="#E5F1FB"/>
<path d="M67.0183 126.568C69.6898 126.347 70.3334 127.293 70.61 129.773C69.4162 129.876 68.2633 129.739 67.0844 129.86C66.6099 129.909 66.5044 130.06 66.4899 130.48C67.0875 131.719 68.281 131.504 69.3193 130.963C69.6647 130.894 70.0197 130.778 70.2394 131.1C70.027 131.979 69.0115 132.439 68.1676 132.443C66.9438 132.449 66.1858 131.731 65.3647 130.936C64.9841 129.065 64.9543 127.437 67.0183 126.568Z" fill="#1B96E7"/>
<path d="M67.6607 127.285C68.1953 127.377 69.2707 128.009 69.1273 128.689C68.744 128.909 68.7414 128.835 68.2398 128.845C67.7095 128.853 66.5641 129.03 66.5549 128.356C66.7885 127.926 67.2706 127.597 67.6607 127.285Z" fill="#E5F1FB"/>
<path d="M39.1987 124.378C39.5868 124.367 40.0149 124.321 40.3671 124.466C40.6338 124.966 40.4897 131.372 40.4617 132.402L39.2566 132.38C39.1429 129.942 39.2094 126.861 39.1987 124.378Z" fill="#1B96E7"/>
</g>
<g clip-path="url(#clip1_44_3094)">
<path d="M131.004 39H214.761C214.775 39.0107 214.789 39.0215 214.803 39.0322C215.898 39.3067 216.973 39.4783 218.058 39.8865C223.138 41.7994 226.44 45.7474 227.648 51.0117C227.911 52.1578 227.813 55.2082 227.812 56.528L227.801 66.4774L227.799 105.209L227.8 126.828L227.818 133.15C227.828 134.702 227.947 136.405 227.618 137.898C226.425 143.291 222.754 147.36 217.532 149.128C216.698 149.41 215.776 149.59 214.983 149.859H130.596C125.439 148.305 121.503 146.087 119.236 140.898C118.664 139.589 118.428 138.347 118 137.023V51.9612C118.122 51.6538 118.145 51.3384 118.209 51.0492C119.427 45.5044 123.494 40.8425 129.094 39.4938C129.49 39.3984 130.71 39.172 131.004 39ZM161.54 93.8148C161.864 93.9792 164.215 93.9223 164.591 93.7864C164.455 92.9625 164.46 90.0464 164.446 89.0923C164.399 85.202 164.401 81.3112 164.453 77.4209C164.47 76.3031 164.605 73.0751 164.357 72.1121C163.868 71.8836 162.25 71.9988 161.627 72.0231C161.42 73.7457 161.513 77.7328 161.511 79.6088L161.54 93.8148Z" fill="#EEEEEE"/>
<path d="M134.798 59.763C138.736 59.5822 143.6 59.7093 147.586 59.7097L171.087 59.7135L196.97 59.719C201.415 59.7188 205.886 59.6843 210.33 59.7347C211.013 59.7424 211.502 59.8191 212.093 60.1474C212.91 60.6306 213.931 61.7892 214.091 62.772C214.369 64.4741 214.265 66.5604 214.264 68.2883L214.256 78.3168L214.263 93.4676C214.267 95.5094 214.278 97.5557 214.271 99.597C214.267 100.948 214.399 102.799 213.684 103.978C213.083 104.95 212.123 105.645 211.013 105.913C209.407 106.13 204.43 106.007 202.537 106.006L185.414 106.003L152.294 106.004C146.8 106.004 141.306 106.032 135.813 105.997C130.724 105.964 131.613 100.18 131.62 96.6804L131.632 86.6554L131.621 71.5458C131.62 68.8758 131.58 66.1412 131.671 63.4725C131.727 61.8062 133.151 60.1569 134.798 59.763ZM161.54 93.8148C161.865 93.9791 164.215 93.9223 164.591 93.7864C164.455 92.9625 164.461 90.0464 164.446 89.0923C164.399 85.202 164.401 81.3112 164.453 77.4209C164.47 76.3031 164.605 73.0751 164.358 72.1121C163.868 71.8835 162.25 71.9988 161.627 72.0231C161.421 73.7457 161.513 77.7328 161.511 79.6088L161.54 93.8148Z" fill="#5E5E5E"/>
<path d="M174.601 68.7601C175.629 68.6713 176.862 68.6903 177.908 68.6809C177.855 69.799 177.857 70.6949 177.88 71.8059C178.916 71.8393 179.951 71.8442 180.987 71.8205C180.989 72.922 180.975 74.0577 181.041 75.1545C181.894 75.1443 183.366 75.084 184.17 75.157C184.207 75.7586 184.478 78.1485 184.065 78.4676L184.075 78.5139C184.131 78.5798 184.199 78.659 184.277 78.7514C184.48 82.8145 184.36 89.8049 184.288 93.6031C184.311 94.6959 184.281 95.9134 184.275 97.0148L161.561 97.0013C161.515 95.9744 161.538 94.8498 161.54 93.8148C161.865 93.9792 164.215 93.9224 164.591 93.7865C164.455 92.9625 164.461 90.0465 164.446 89.0924C164.399 85.2021 164.401 81.3112 164.453 77.421C164.47 76.3031 164.605 73.0751 164.357 72.1122C163.868 71.8836 162.25 71.9988 161.627 72.0231L161.619 71.8861L161.604 68.7358C165.864 68.7205 170.365 68.6386 174.601 68.7601Z" fill="#5D5C5C"/>
<path d="M181.02 93.7098C182.11 93.695 183.2 93.6595 184.288 93.6031C184.311 94.6959 184.281 95.9134 184.275 97.0148L161.561 97.0013C161.515 95.9744 161.538 94.8498 161.54 93.8148C161.865 93.9792 164.215 93.9223 164.591 93.7865L164.857 93.7148C170.245 93.6737 175.632 93.6719 181.02 93.7098Z" fill="#15C0F4"/>
<path d="M174.601 68.7601C175.629 68.6713 176.861 68.6903 177.908 68.6809C177.855 69.799 177.857 70.6949 177.88 71.8059C178.915 71.8393 179.951 71.8442 180.987 71.8205C180.989 72.922 180.975 74.0577 181.041 75.1545C181.894 75.1443 183.366 75.084 184.17 75.157C184.207 75.7586 184.477 78.1485 184.065 78.4676C183.194 78.3942 182.027 78.4335 181.131 78.4393C179.137 78.5431 176.567 78.451 174.532 78.4345C174.428 76.5025 174.491 73.9605 174.489 71.9762C174.528 71.0079 174.586 70.0117 174.54 69.0458L174.601 68.7601Z" fill="#FD5B59"/>
<path d="M181.131 78.4393C182.027 78.4335 183.194 78.3942 184.065 78.4675L184.074 78.5138C184.131 78.5798 184.198 78.659 184.277 78.7513C184.48 82.8145 184.36 89.8048 184.288 93.6031C183.2 93.6595 182.11 93.695 181.02 93.7097C181.095 90.8854 180.915 87.822 180.986 84.9827C181.005 84.1984 180.935 82.0347 181.117 81.3568L181.131 78.4393Z" fill="#9521FE"/>
<path d="M181.131 78.4393C182.027 78.4335 183.194 78.3942 184.065 78.4675L184.075 78.5138C183.1 79.3447 182.076 80.7556 181.117 81.3568L181.131 78.4393Z" fill="#5D01AB"/>
<path d="M161.604 68.7358C165.864 68.7205 170.365 68.6385 174.601 68.76L174.54 69.0458C174.586 70.0116 174.528 71.0078 174.489 71.9761C173.662 71.9706 172.336 72.0374 171.586 71.8251C170.349 72 166.239 71.8942 164.872 71.8824C163.939 71.9433 162.582 71.893 161.619 71.886L161.604 68.7358Z" fill="#FEF84A"/>
<path d="M174.54 69.0458C174.586 70.0116 174.528 71.0078 174.489 71.9761C173.662 71.9706 172.336 72.0374 171.586 71.8251C172.362 71.3489 173.11 69.894 174.54 69.0458Z" fill="#819B3E"/>
<path d="M161.619 71.886C162.583 71.893 163.939 71.9433 164.872 71.8824L164.892 86.6445C164.891 88.3817 165.001 92.0964 164.857 93.7148L164.591 93.7865C164.455 92.9625 164.46 90.0465 164.446 89.0923C164.399 85.2021 164.401 81.3112 164.453 77.4209C164.47 76.3031 164.605 73.0751 164.357 72.1122C163.868 71.8836 162.25 71.9988 161.627 72.0231L161.619 71.886Z" fill="#68FFCC"/>
<path d="M161.627 72.0231C162.25 71.9988 163.868 71.8835 164.357 72.1121C164.605 73.0751 164.47 76.3031 164.453 77.4209C164.401 81.3112 164.399 85.202 164.446 89.0923C164.46 90.0464 164.455 92.9625 164.591 93.7864C164.215 93.9223 161.864 93.9791 161.54 93.8148L161.511 79.6088C161.513 77.7328 161.42 73.7457 161.627 72.0231Z" fill="#00FE97" fill-opacity="0.988235"/>
<path d="M167.116 124.307C168.531 124.229 170.832 124.61 171.028 126.345C170.901 126.653 170.993 126.559 170.682 126.691C170.092 126.644 168.826 125.469 168.084 124.982L167.989 125.031C166.93 125.582 166.243 125.911 165.853 127.139C165.372 128.648 165.993 130.71 167.652 131.139C168.14 131.269 168.66 131.191 169.089 130.924C169.644 130.584 170.376 129.725 169.925 129.067L169.589 129.046C169.06 129.086 168.616 129.242 168.291 128.807C168.275 128.461 168.222 128.437 168.369 128.152C168.863 127.988 170.714 128.05 171.369 128.052C171.354 128.451 171.341 129.795 171.186 130.09C168.684 134.862 162.689 130.929 164.795 126.272C165.311 125.129 166.005 124.725 167.116 124.307Z" fill="#959494"/>
<path d="M175.971 124.233C176.451 124.25 177.251 124.248 177.688 124.369C177.628 124.683 177.62 124.552 177.744 124.87L177.907 124.978C177.639 125.018 177.525 125.011 177.311 125.172L177.283 125.233C177.27 126.088 177.29 126.977 177.297 127.835C178.038 127.877 179.995 127.758 180.53 127.95C180.659 128.212 180.608 128.366 180.573 128.66C180.092 128.967 177.979 128.851 177.295 128.841C177.282 129.557 177.3 131.552 177.077 132.096C176.672 132.161 176.599 132.143 176.195 132.071C175.856 131.679 176 125.348 175.971 124.233Z" fill="#959494"/>
<path d="M172.997 124.226C173.401 124.248 173.881 124.241 174.293 124.246C174.242 126.859 174.305 129.492 174.248 132.123C173.856 132.133 173.366 132.203 173.059 132.005C172.9 130.922 172.993 125.648 172.997 124.226Z" fill="#959494"/>
<path d="M177.688 124.369C178.315 124.391 180.633 124.305 180.968 124.612L181.066 125.018C180.404 126.043 178.232 125.686 177.283 125.233L177.311 125.172C177.525 125.011 177.64 125.018 177.908 124.978L177.744 124.87C177.62 124.552 177.628 124.683 177.688 124.369Z" fill="#DEDCDD"/>
<path d="M177.688 124.369C178.315 124.391 180.632 124.305 180.968 124.612L181.066 125.018C179.943 124.975 179.041 124.957 177.908 124.978L177.744 124.87C177.62 124.552 177.628 124.683 177.688 124.369Z" fill="#5D5C5C"/>
</g>
<g clip-path="url(#clip2_44_3094)">
<path d="M13.128 209H97.9613C98.2745 209.191 100.897 209.732 101.592 210.019C105.706 211.714 108.856 214.996 110.283 219.22C110.543 219.976 110.85 221.756 111 222.147V306.977C109.623 312.78 107.074 316.681 101.355 319.048C100.811 319.274 98.5309 319.838 98.2907 320H12.6993C11.9705 319.785 11.2649 319.543 10.5461 319.319C5.60648 317.781 1.62009 313.697 0.44025 308.63C0.332318 308.166 0.221397 307.561 0.0312067 307.132L0 307.064V222.142C0.244858 221.678 0.555102 219.564 0.898384 218.713C2.5203 214.696 5.2869 211.764 9.28596 210.065C10.4448 209.573 12.2554 209.42 13.128 209Z" fill="#FFF3E6"/>
<path d="M18.2995 229.416C22.3355 229.229 27.5815 229.378 31.7133 229.378L57.2959 229.38L80.9782 229.378C85.1568 229.378 89.3974 229.338 93.575 229.43C94.3134 229.446 95.4205 229.603 95.981 230.059C96.6694 230.619 97.6243 231.751 97.6906 232.65C97.8372 234.639 97.7863 236.759 97.787 238.755L97.7888 250.391L97.7866 264.826C97.7861 267.501 97.8659 270.278 97.6694 272.945C97.5934 273.978 96.6725 275.084 95.8169 275.624C95.1324 276.055 94.58 276.077 93.7914 276.171C92.7996 276.275 91.02 276.227 89.9613 276.226L83.1632 276.223L61.1286 276.219L32.6936 276.218L23.5225 276.225C21.8675 276.226 19.752 276.282 18.1275 276.17C17.2254 276.115 16.3602 275.792 15.6428 275.243C13.8065 273.851 14.2956 268.98 14.2983 266.825L14.3099 256.035L14.3024 241.2C14.3015 238.624 14.2572 236.043 14.3514 233.469C14.4475 230.843 15.7611 229.692 18.2995 229.416Z" fill="#FFA106"/>
<path d="M52.2338 242.409C52.2637 242.406 52.2935 242.403 52.3235 242.402C53.0927 242.377 62.9936 248.453 63.8756 249.306C64.2041 249.624 64.5251 249.95 64.5341 250.421C64.0071 251.608 60.8375 253.177 59.5713 253.904C57.2782 255.323 54.7285 256.977 52.3501 258.175C52.0672 258.014 51.5387 257.783 51.3561 257.523C50.9294 256.915 51.0077 244.124 51.2682 242.855C51.4698 242.581 51.8932 242.509 52.2338 242.409Z" fill="#FFF3E6"/>
<path d="M44.521 270.263C46.1691 270.058 49.2917 270.14 51.0416 270.14L62.4545 270.141L82.3946 270.14C85.7306 270.14 89.08 270.133 92.4172 270.148C92.8255 270.149 93.1045 270.197 93.4409 270.431C93.7527 270.865 93.6062 271.339 93.5209 271.86L93.4913 272.039C89.4343 272.244 84.057 272.091 79.9157 272.09L56.3559 272.079C52.3417 272.077 47.9922 271.992 44.0002 272.086C44.2814 272.029 44.3493 272.026 44.5818 271.862C44.8688 271.317 45.11 270.697 44.521 270.263Z" fill="#FFA944"/>
<path d="M18.568 271.963C18.4671 271.291 18.2981 270.86 18.6852 270.332C19.7443 269.976 42.6153 269.955 44.5208 270.263C45.1098 270.697 44.8686 271.317 44.5816 271.862C44.3491 272.026 44.2812 272.029 44 272.086L26.7024 272.09C25.2146 272.092 19.7924 272.198 18.568 271.963Z" fill="#FFF3E6"/>
<path d="M55.8524 294.605L57.2508 294.679C57.1788 296.604 57.362 300.95 57.1596 302.557C56.859 302.67 56.4326 302.708 56.1166 302.642C55.912 302.599 55.8912 302.209 55.7298 301.901C54.4465 302.356 55.6452 302.988 53.1464 302.541C52.6778 302.372 52.6089 302.278 52.334 301.883C51.1789 300.222 51.6888 298.429 52.6679 296.876C53.4785 296.61 54.2919 296.447 55.0776 296.846C55.3094 296.964 55.495 297.101 55.7369 297.106C55.8675 296.719 55.8463 295.11 55.8524 294.605Z" fill="#FFA944"/>
<path d="M53.9314 297.793C55.424 297.609 55.8825 298.386 55.8109 299.906C55.7782 300.597 55.4785 301.156 54.9159 301.577C53.4979 301.51 53.3588 301.039 52.9128 299.797C53.0881 298.773 53.1142 298.414 53.9314 297.793Z" fill="#FFF3E6"/>
<path d="M67.6377 296.604C68.2446 296.549 69.1124 296.752 69.7378 296.868C71.2012 298.76 71.1616 300.416 69.8022 302.328L68.5308 302.683C67.5311 302.784 66.9311 302.517 66.0827 302.081C64.9922 300.329 64.9517 298.912 66.1247 297.169C66.7645 296.846 66.927 296.775 67.6377 296.604Z" fill="#FFA944"/>
<path d="M67.3974 297.781C68.9811 297.533 69.2602 298.338 69.6409 299.624C69.4046 300.421 69.3431 300.824 68.7219 301.389C66.3501 302.165 66.2619 299.134 67.3974 297.781Z" fill="#FFF3E6"/>
<path d="M46.4398 294.588C46.7889 294.6 47.3517 294.581 47.6356 294.732L47.6637 294.989C47.5275 295.223 47.449 295.373 47.3878 295.636C46.9808 296.919 45.6356 301.437 45.1123 302.344C45.0165 302.51 44.8892 302.546 44.7078 302.591C44.3065 302.69 43.574 302.73 43.2202 302.47C42.7037 302.092 40.6614 295.674 40.4136 294.626L42.0028 294.656C42.4142 296.656 43.4604 299.043 44.0174 301.449C44.4874 299.916 45.6585 295.717 46.4398 294.588Z" fill="#FFA944"/>
<path d="M61.0436 296.604C63.5395 296.314 63.9368 298.002 64.2558 299.955L61.9547 299.916C61.4685 299.906 60.3634 299.81 60.0298 300.13C60.033 302.597 62.2896 301.176 63.2769 300.96L63.3681 300.941C63.5417 300.976 63.6972 301.03 63.8652 301.084L63.9538 301.306C63.7713 303.075 60.9432 302.965 59.7843 302.196C58.3943 301.273 58.2371 299.157 59.0475 297.801C59.5154 297.019 60.1665 296.761 61.0436 296.604Z" fill="#FFA944"/>
<path d="M61.0054 297.686C61.7418 297.659 63.0103 298.061 62.6459 298.999C62.2166 299.264 62.0935 299.178 61.5432 299.182C60.8199 299.207 60.604 299.318 60.0988 298.875C59.901 298.221 60.4595 297.895 61.0054 297.686Z" fill="#FFF3E6"/>
<path d="M48.7907 296.556C49.2817 296.557 49.9351 296.628 50.4367 296.668C50.3241 298.625 50.4946 300.708 50.3778 302.571C49.8734 302.655 49.294 302.655 48.7778 302.671L48.7907 296.556Z" fill="#FFA944"/>
<path d="M49.5266 294.072C49.9182 294.126 50.4296 294.76 50.7104 295.061C50.4056 295.304 50.0267 295.488 49.6796 295.673C49.4081 295.695 49.0661 295.567 48.8636 295.387C48.575 294.621 48.9339 294.399 49.5266 294.072Z" fill="#FFA944"/>
</g>
<g clip-path="url(#clip3_44_3094)">
<path d="M131.124 209H215.969C216.378 209.213 217.07 209.301 217.571 209.415C222.028 210.432 226.368 213.917 227.992 218.44C228.286 219.266 228.536 220.107 228.741 220.96C228.812 221.26 228.91 221.932 229 222.158V306.973C227.609 312.747 225.162 316.589 219.47 319.007C218.934 319.235 216.523 319.844 216.294 320H130.643C125.223 318.321 121.314 316.121 119.037 310.555C118.576 309.43 118.439 308.196 118.031 307.136L118 307.058V222.148C118.145 221.842 118.144 221.59 118.203 221.268C119.239 215.588 123.677 210.694 129.365 209.447C129.828 209.345 130.721 209.202 131.124 209Z" fill="#FEE9EC"/>
<path d="M181.59 229.403L201.258 229.395L207.459 229.38C212.01 229.368 215.346 228.857 215.362 234.818L215.343 254.022C215.344 258.113 215.43 262.533 215.325 266.603C215.367 269.886 216.232 275.995 211.44 276.167C208.568 276.271 205.617 276.217 202.737 276.217L185.696 276.215L151.71 276.207C146.901 276.205 142.09 276.202 137.281 276.225C136.71 276.228 135.959 276.22 135.415 276.108C133.466 275.995 131.899 274.477 131.76 272.531C131.653 272.065 131.662 271.42 131.658 270.933L131.655 244.873L131.654 237.352C131.654 235.928 131.586 234.256 131.768 232.86C131.961 231.373 133.4 229.647 134.975 229.517C137.052 229.346 139.089 229.384 141.162 229.384L151.331 229.389C161.311 229.393 171.645 229.254 181.59 229.403Z" fill="#FF3E6F"/>
<path d="M181.59 229.403L201.258 229.395L207.459 229.38C212.01 229.368 215.346 228.857 215.362 234.818L215.343 254.021C215.345 258.113 215.43 262.533 215.325 266.603C215.269 266.787 215.227 267.144 215.196 267.348L215.231 267.299L215.081 267.255C215.112 266.257 215.21 264.04 215.071 263.157C214.785 262.79 214.459 263.233 214.02 263.16C213.686 263.057 213.399 262.553 213.127 262.402C210.415 260.906 207.782 257.57 205.559 255.359C199.731 249.647 193.958 243.878 188.243 238.053C187.154 236.926 181.176 231.472 180.909 230.631C180.82 230.35 180.759 230.098 180.903 229.821C181.205 229.643 181.223 229.707 181.632 229.712C181.308 229.56 177.96 229.647 177.226 229.581C178.009 229.514 181.276 229.615 181.59 229.403Z" fill="#FF5DB8"/>
<path d="M163.215 270.273C164.015 270.069 167.047 270.14 168.007 270.143L176.009 270.152L197.965 270.138C199.592 270.137 210.119 269.909 211.037 270.448C211.324 270.891 211.245 271.602 210.84 271.956C209.346 272.18 206.916 272.11 205.324 272.109L196.676 272.096L174.734 272.081C170.885 272.078 166.827 272.01 162.992 272.086L163.124 271.977C163.352 271.487 163.278 270.791 163.215 270.273Z" fill="#FE7FA1"/>
<path d="M135.784 270.616C136.356 269.902 141.795 270.123 142.972 270.122L152.759 270.12L158.957 270.122C160.146 270.123 162.089 270.073 163.215 270.273C163.279 270.791 163.352 271.487 163.125 271.977L162.992 272.086L147.121 272.092C144.138 272.09 140.948 272.031 137.98 272.106C136.452 272.074 135.837 272.337 135.784 270.616Z" fill="#FEFEFE"/>
<path d="M131.76 272.531C131.951 271.184 131.68 268.732 131.861 267.295C131.921 268.312 131.972 269.348 132.069 270.361C132.81 269.653 134.379 272.246 135.784 270.616C135.836 272.337 136.452 272.074 137.979 272.106C138.257 272.308 138.256 272.242 138.662 272.255C137.977 272.552 136.571 271.617 137.158 274.036C137.326 274.729 139.039 275.54 139.178 275.935C138.56 276.207 136.295 275.99 135.415 276.108C133.466 275.995 131.9 274.477 131.76 272.531Z" fill="#FE1517"/>
<path d="M169.418 242.654C172.444 242.564 175.472 242.568 178.498 242.666C179.859 242.701 183.297 242.595 184.202 243.583C186.105 245.661 185.565 249.991 185.597 252.65C185.676 259.229 183.156 258.737 177.863 258.769C176.903 258.772 174.92 259.02 173.83 258.872C171.166 258.491 163.782 259.643 162.196 257.223C160.734 254.991 161.508 246.828 162.058 244.253C164.429 242.332 166.409 242.699 169.418 242.654Z" fill="#FEFEFE"/>
<path d="M170.966 247.239L177.395 250.43C176.666 250.985 175.746 251.413 174.921 251.825C173.783 252.425 171.809 253.137 171.027 253.993C170.829 252.451 170.863 248.808 170.966 247.239Z" fill="#FF2B71"/>
<path d="M183.879 294.651L185.311 294.619C185.314 295.464 185.238 296.426 185.336 297.254L185.432 297.313C185.744 296.849 186.047 296.868 186.519 296.715C188.271 296.146 189.433 297.567 189.556 299.201C189.649 300.427 189.455 301.099 188.708 302.034C188.246 302.507 187.735 302.697 187.074 302.735C186.234 302.782 185.895 302.028 185.415 301.797C185.29 302.088 185.261 302.239 185.193 302.539C184.901 302.719 184.274 302.633 183.895 302.616C183.969 300.041 183.901 297.236 183.879 294.651Z" fill="#FF2B71"/>
<path d="M186.344 297.77C188.155 297.691 188.402 298.972 188.041 300.572C187.925 301.088 187.763 301.246 187.307 301.486C186.395 301.529 185.749 301.477 185.428 300.504C185.096 299.501 185.236 298.145 186.344 297.77Z" fill="#FEE9EC"/>
<path d="M159.71 296.61C161.326 296.557 162.354 297.222 162.736 298.864C163.059 300.25 162.433 301.346 161.562 302.358C161.262 302.469 160.746 302.587 160.419 302.672C159.696 302.676 159.037 302.7 158.442 302.241C156.24 300.538 156.82 297.07 159.71 296.61Z" fill="#FF2B71"/>
<path d="M159.272 297.783C159.563 297.765 160.14 297.715 160.396 297.831C161.984 298.547 161.999 300.71 160.42 301.454C159.156 301.664 158.639 301.158 158.54 299.835C158.483 299.069 158.74 298.352 159.272 297.783Z" fill="#FEE9EC"/>
<path d="M193.197 296.614C195.683 296.488 195.992 297.865 196.478 299.941C195.027 299.917 193.575 299.922 192.124 299.957C192.763 302.402 193.613 301.564 195.511 300.937C195.794 301.068 195.839 301.068 196.005 301.316C196.005 301.406 196.025 301.581 195.971 301.642C193.305 304.725 189.298 301.091 191.202 297.804C191.638 297.052 192.384 296.783 193.197 296.614Z" fill="#FF2B71"/>
<path d="M192.945 297.682C193.792 297.631 194.629 297.928 194.968 298.911C194.992 298.979 194.899 299.056 194.845 299.126L194.448 299.174C193.615 299.19 193.13 299.289 192.377 298.959C192.009 298.42 192.51 298.01 192.945 297.682Z" fill="#FEE9EC"/>
<path d="M176.958 296.561L178.451 296.603C178.388 298.159 178.338 299.446 178.543 301.002C179.551 301.555 180.015 301.735 180.86 300.841C181.019 299.598 180.98 297.886 180.966 296.599L182.375 296.606C182.353 298.618 182.354 300.631 182.378 302.644C181.889 302.638 181.559 302.714 181.177 302.489C180.959 301.97 181.088 301.855 180.991 301.44C180.822 301.647 180.695 301.949 180.529 302.142C179.955 302.811 178.301 302.865 177.706 302.207C176.627 301.014 176.942 298.055 176.958 296.561Z" fill="#FF2B71"/>
<path d="M150.019 294.621C150.56 294.617 151.113 294.625 151.656 294.627C152.473 295.928 153.071 297.016 153.777 298.364C154.256 297.17 154.991 295.553 155.871 294.628L157.488 294.607C156.692 295.483 156.126 296.59 155.529 297.621C154.177 299.755 154.372 300.16 154.459 302.599L153.013 302.673C153.094 297.915 152.077 298.43 150.019 294.621Z" fill="#FF2B71"/>
<path d="M168.093 296.62L169.526 296.586C169.495 297.706 169.605 301.669 169.467 302.453C169.158 302.682 168.676 302.607 168.319 302.509C168.108 302.041 168.517 302.027 168.306 301.56L168.092 301.506C167.917 301.855 167.735 302.219 167.378 302.377C164.538 303.636 164.176 300.975 164.253 298.846C164.28 298.084 164.204 297.388 164.413 296.673C164.713 296.523 165.234 296.622 165.587 296.658C165.53 297.836 165.143 300.537 166.234 301.318C166.553 301.547 167.147 301.416 167.506 301.338C168.421 300.344 168.117 298.05 168.093 296.62Z" fill="#FF2B71"/>
<path d="M170.222 294.649C171.374 294.639 175.607 294.533 176.487 294.72C176.626 294.955 176.626 295.472 176.449 295.682C175.915 295.892 174.634 295.745 174.004 295.71L174.01 300.136L174.032 302.644L172.642 302.606C172.735 300.342 172.669 297.994 172.628 295.723C171.875 295.733 171.032 295.978 170.421 295.689C170.15 295.283 170.237 295.199 170.222 294.649Z" fill="#FF2B71"/>
</g>
<g clip-path="url(#clip4_44_3094)">
<path d="M13.1288 328H97.8788C98.2969 328.239 100.784 328.68 101.588 329.018C105.66 330.728 108.792 333.891 110.218 338.096C110.525 339.002 110.721 340.426 111 341.154V426.036C109.552 431.784 107.13 435.629 101.42 438.023C100.893 438.244 98.524 438.843 98.2915 439H12.638C11.7411 438.65 10.6188 438.359 9.63833 437.981C5.69402 436.489 2.67888 433.513 1.06342 429.627C0.641975 428.613 0.409456 426.876 0 426.067V341.147C0.105723 340.927 0.49029 338.873 0.700845 338.282C2.18763 334.019 5.24131 330.695 9.44503 329.006C10.2586 328.679 12.6655 328.278 13.1288 328Z" fill="#F0FAFD"/>
<path d="M97.7597 386.903C97.7645 386.958 97.7693 387.012 97.7741 387.066C97.6751 389.37 98.3438 392.197 96.6034 394.02C95.7034 394.962 94.5874 395.178 93.3992 395.189C87.8709 395.242 82.3204 395.219 76.7935 395.219L45.224 395.215L27.0306 395.213C24.0405 395.215 20.9208 395.288 17.9366 395.154C16.9704 395.11 15.9923 394.555 15.287 393.896C14.3783 393.048 14.3125 391.019 14.3051 389.831L14.307 364.892L14.2985 356.802C14.2973 355.165 14.2578 353.572 14.3932 351.939C14.7516 347.616 19.6489 348.375 22.7107 348.375L31.7392 348.38C41.6484 348.38 51.7437 348.28 61.6365 348.397C67.9763 348.255 74.833 348.375 81.212 348.377L89.137 348.381C93.0562 348.383 97.7714 347.499 97.7846 353.023C97.7998 359.446 97.7584 365.874 97.78 372.297C97.7223 376.932 97.9574 382.347 97.7597 386.903Z" fill="#51C5FF"/>
<path d="M61.6364 348.397C67.9762 348.255 74.8329 348.375 81.2119 348.377L89.1369 348.381C93.0561 348.383 97.7714 347.499 97.7845 353.023C97.7998 359.446 97.7583 365.874 97.7799 372.297C97.7222 376.932 97.9573 382.347 97.7596 386.903L97.5737 386.915C97.4522 387.155 97.5258 387.276 97.5667 387.59C97.4306 387.278 97.2105 386.685 96.9863 386.475C96.6424 386.547 96.3056 386.949 96.0361 387.214C92.7495 384.155 89.9691 381.296 86.8196 378.129L75.2843 366.557L67.1273 358.466C65.9588 357.317 59.2566 350.875 59.5575 349.505C59.8243 349.144 60.3109 348.943 60.7178 348.732L60.6874 348.644C59.6278 348.601 54.0671 348.733 53.4402 348.559C53.8379 348.437 54.6258 348.543 55.0457 348.502C56.6813 348.343 60.2248 348.824 61.6364 348.397Z" fill="#75E3FD"/>
<path d="M62.1239 361.422C63.569 361.204 64.152 361.468 65.3602 362.164C66.8281 364.736 65.3044 368.218 63.8667 370.417C62.2751 372.85 58.7437 377.381 55.8532 377.953C51.2746 378.859 51.8376 368.319 49.2843 366.262C49.0125 366.05 48.5817 366.2 48.2492 366.297C47.8209 366.603 47.7481 366.786 47.4863 367.253C47.0196 366.681 46.7721 366.411 46.458 365.738C47.7204 364.472 49.9274 362.517 51.5807 361.851C55.129 360.45 55.1499 365.748 55.5542 367.952C55.8959 370.196 56.5445 374.314 58.9697 370.245C59.5736 369.231 60.7392 367.277 60.0889 366.037C59.6351 365.172 58.518 365.973 57.8565 365.832L57.7595 365.652C57.9414 363.648 60.1255 361.638 62.1239 361.422Z" fill="#F0FAFD"/>
<path d="M44.7172 389.282C45.5646 389.077 48.5459 389.144 49.5448 389.144L58.5803 389.147C69.6306 389.152 80.681 389.143 91.7312 389.135C93.5854 389.133 93.7913 389.188 93.5215 390.993C91.9311 391.145 89.9035 391.094 88.2729 391.093L80.1448 391.085L56.2127 391.072C52.4591 391.07 47.6758 390.926 43.9963 391.081C44.2835 391.027 44.3833 391.026 44.6389 390.869C44.9644 390.307 44.8382 389.929 44.7172 389.282Z" fill="#8ED9FE"/>
<path d="M43.9965 391.081C35.8384 391.211 27.6115 391.029 19.4493 391.071C19.1916 391.072 18.8452 390.981 18.6618 390.791C18.4802 390.417 18.2846 389.508 18.6612 389.398C20.2163 388.946 23.5961 389.12 25.11 389.118L34.7159 389.113L40.4613 389.113C41.656 389.114 43.587 389.065 44.7173 389.282C44.8383 389.929 44.9646 390.308 44.6391 390.869C44.3835 391.026 44.2836 391.027 43.9965 391.081Z" fill="#F0FAFD"/>
<path d="M69.1527 415.609C72.9186 415.143 74.0177 420.506 70.2974 421.63C69.1224 421.759 68.8341 421.652 67.724 421.268C66.5328 419.291 66.4514 417.939 67.7846 415.994C68.2404 415.814 68.6781 415.722 69.1527 415.609Z" fill="#43BBFE"/>
<path d="M69.0431 416.793C71.4243 416.456 71.4061 419.499 70.1058 420.528C67.7741 420.744 67.6823 417.846 69.0431 416.793Z" fill="#F0FAFD"/>
<path d="M50.358 415.607C50.746 415.596 51.2183 415.533 51.5325 415.734C51.5703 416.026 51.5325 416.164 51.4873 416.45L51.6185 416.573C51.9727 416.5 52.2455 416.093 52.5417 415.813C52.7716 415.597 53.0808 415.485 53.396 415.505C54.3473 415.559 54.3924 416.084 54.9944 416.725L55.1563 416.703C55.3209 416.42 55.4939 416.142 55.6752 415.869C56.3029 415.517 57.6969 415.38 58.1681 415.927C59.1053 417.015 58.7672 420.196 58.7752 421.624L57.3479 421.663C57.3558 420.5 57.6718 418.004 57.0541 417.102C56.8244 416.767 56.3273 416.756 55.9353 416.715C54.8903 417.392 55.2615 420.42 55.2829 421.638L53.8843 421.656C53.9101 420.6 54.2002 417.8 53.5662 417.119C53.3461 416.882 53.035 416.753 52.7124 416.763C51.2784 416.811 51.7783 420.633 51.82 421.598C51.3396 421.629 50.8156 421.636 50.3308 421.653C50.3861 419.638 50.3952 417.622 50.358 415.607Z" fill="#43BBFE"/>
<path d="M38.5166 413.644C39.132 413.634 39.7671 413.607 40.3841 413.588C40.8182 415.18 41.4728 416.959 41.9979 418.552C42.536 418.608 42.6236 418.624 43.0787 418.907C43.3195 417.832 44.2948 414.641 44.6514 413.628C45.1944 413.604 45.9673 413.639 46.53 413.649C45.6647 414.81 44.0043 420.06 43.5224 421.63C42.6893 421.665 42.316 421.654 41.4869 421.564C40.9061 419.622 39.5726 415.245 38.5166 413.644Z" fill="#43BBFE"/>
<path d="M41.998 418.552C42.5361 418.608 42.6237 418.625 43.0788 418.907C42.9328 419.299 42.8256 419.832 42.529 420.051C42.2493 419.814 42.1038 418.969 41.998 418.552Z" fill="#D5EBFC"/>
<path d="M62.631 415.623C64.9572 415.258 65.5537 417.089 65.7341 418.952C64.9622 418.97 61.9787 418.766 61.5645 419.081C61.313 420.35 62.3803 420.625 63.3538 420.492C64.0538 420.396 63.9252 420.257 64.4539 419.914L64.6249 419.972C65.0892 420.069 65.5691 420.129 65.5836 420.681C64.7343 421.882 62.7014 421.72 61.4614 421.437C61.0851 421.052 60.715 420.661 60.3513 420.264C59.992 418.916 60.0155 418.394 60.3554 417.065C60.7026 416.718 61.0853 416.262 61.4156 415.888C61.7828 415.779 62.2475 415.699 62.631 415.623Z" fill="#43BBFE"/>
<path d="M62.5333 416.69C63.3331 416.683 64.4203 416.983 64.2311 417.99C63.9078 418.238 63.9283 418.158 63.4402 418.182C62.8183 418.208 61.6512 418.395 61.4678 417.638C61.6426 417.197 62.134 416.903 62.5333 416.69Z" fill="#F0FAFD"/>
<path d="M47.2691 415.566L48.7632 415.592C48.6645 417.468 48.7313 419.706 48.7518 421.608C48.4181 421.653 47.6305 421.66 47.2612 421.674L47.2691 415.566Z" fill="#43BBFE"/>
<path d="M47.1738 413.775C47.466 413.038 48.043 412.761 48.6512 413.417L48.7777 413.867C48.7676 414.649 48.1245 414.779 47.5086 414.492C47.2078 414.352 47.2317 414.072 47.1738 413.775Z" fill="#43BBFE"/>
<path d="M47.1738 413.775C47.466 413.038 48.043 412.761 48.6512 413.417L48.7777 413.867C48.2317 413.826 47.7231 413.79 47.1738 413.775Z" fill="#8ED9FE"/>
</g>
<g clip-path="url(#clip5_44_3094)">
<path d="M13.0213 485H96.7618C96.7758 485.011 96.7898 485.021 96.8039 485.032C97.903 485.306 98.9334 485.467 100.023 485.874C105.144 487.788 108.456 491.77 109.665 497.071C109.912 498.154 109.824 500.888 109.822 502.133L109.81 510.926L109.808 546.059L109.81 571.03L109.82 578.846C109.824 580.531 109.973 582.229 109.614 583.885C108.456 589.228 104.813 593.303 99.6539 595.085C98.7987 595.38 97.7643 595.575 96.9789 595.859H12.6198C7.31897 594.274 3.38233 591.996 1.132 586.648C0.650558 585.504 0.444696 584.129 0.029663 583.104L0 583.032V497.961C0.149776 497.612 0.233311 496.954 0.329212 496.555C1.6621 491.004 6.07333 486.454 11.7289 485.335C12.1622 485.249 12.6187 485.182 13.0213 485Z" fill="#EBF9EA"/>
<path d="M62.6699 503.282C64.6872 498.976 69.1442 496.355 73.8871 496.684C78.6301 497.013 82.6825 500.225 84.0861 504.767C85.4895 509.309 83.9554 514.247 80.2247 517.195C80.5754 517.726 80.4583 527.813 80.4578 529.025L80.4678 541.903C80.4707 544.167 80.4929 546.427 80.4466 548.693C80.392 551.367 79.2008 552.752 76.4791 552.99C74.1773 553.192 71.8244 553.094 69.5145 553.089L57.8453 553.087L42.9449 553.098C40.2067 553.1 37.4523 553.152 34.7216 553.041C32.2921 552.942 30.4886 551.863 30.3787 549.28C30.2624 546.544 30.2971 543.837 30.2976 541.102L30.304 526.75L30.2995 513.817C30.2993 511.333 30.2312 508.814 30.4043 506.348C30.5704 503.981 32.1759 502.74 34.4415 502.671C36.3054 502.615 38.1363 502.623 39.9951 502.623L50.0638 502.633L57.888 502.627C59.1816 502.625 61.3008 502.566 62.5295 502.7C62.7377 502.916 62.6708 502.908 62.6699 503.282Z" fill="#FEFEFE"/>
<path d="M62.6701 503.282C64.6874 498.976 69.1444 496.355 73.8873 496.684C78.6303 497.013 82.6827 500.225 84.0863 504.767C85.4897 509.309 83.9555 514.247 80.2249 517.195C76.0375 520.503 70.1251 520.498 65.9429 517.184C61.7607 513.869 60.4058 508.114 62.6701 503.282Z" fill="#11DB5B"/>
<path d="M69.3593 502.77C72.5321 502.469 75.7326 502.849 78.7469 503.884C79.4039 504.117 81.3987 504.935 81.4961 505.548C81.9242 508.241 78.8117 506.394 78.065 506.043C75.1479 504.952 71.5128 504.712 68.4596 505.217C67.8618 505.316 65.7847 505.773 65.4489 505.315C63.7886 503.049 68.463 502.837 69.3593 502.77Z" fill="#FEFEFE"/>
<path d="M70.1176 506.747C73.0444 506.508 76.8438 507.32 79.391 508.804C80.2071 509.279 80.0048 510.041 79.4402 510.636C78.8858 510.743 77.1727 509.761 76.3008 509.438C72.872 508.316 70.0517 508.132 66.5833 509.306C66.2057 508.93 65.9002 508.54 65.5657 508.127C67.0956 506.887 68.206 506.884 70.1176 506.747Z" fill="#FEFEFE"/>
<path d="M69.7913 510.609C72.3962 510.203 76.3549 510.956 78.5735 512.576C78.487 512.988 78.3241 513.509 78.2076 513.924C77.5829 513.669 76.5373 513.112 75.866 512.798C73.7376 512.103 71.6857 511.752 69.4489 512.107C68.7958 512.211 67.3915 512.502 66.7975 512.459C66.425 512.144 66.2893 511.653 66.5733 511.225C67.1657 510.861 69.0167 510.705 69.7913 510.609Z" fill="#FEFEFE"/>
<path d="M40.3341 537.035C41.2814 536.994 42.2367 536.998 43.1855 537.002C49.2573 537.029 55.3391 536.949 61.4092 537.033C62.0444 537.041 63.5054 537.178 63.5467 537.961C63.6155 539.267 63.0542 539.79 61.8974 539.988L48.2619 540C45.3808 540.001 42.165 540.068 39.3063 539.963C37.401 538.585 38.0588 537.181 40.3341 537.035Z" fill="#EBF9EA"/>
<path d="M39.446 530.788C42.6454 530.664 46.2858 530.825 49.5324 530.759C50.867 530.731 55.6074 530.686 56.5947 530.906C56.9127 531.27 57.234 531.565 57.3084 532.062C57.458 533.062 57.0789 533.821 56.0159 533.956C51.0893 534.143 46.0321 533.847 41.1023 533.99C38.486 534.066 36.9932 532.618 39.446 530.788Z" fill="#EBF9EA"/>
<path d="M40.3277 543.052C42.1408 542.952 49.6175 542.743 50.8631 543.345C51.1061 543.462 51.2432 543.627 51.3217 543.887C51.5289 544.573 51.0697 545.294 50.7437 545.867C50.3848 545.926 50.0173 545.965 49.6557 546.008C48.0107 546.013 39.9005 546.315 39.0398 545.734C38.6306 545.457 38.3677 545.02 38.2766 544.538C38.2254 544.267 38.211 543.89 38.3888 543.661C38.8034 543.127 39.7076 543.096 40.3277 543.052Z" fill="#EBF9EA"/>
<path d="M43.889 580.571C43.8234 579.488 43.6939 573.007 43.9608 572.319C44.3106 572.157 44.239 572.132 44.589 572.154C44.8938 572.389 45.0397 572.544 45.304 572.82C45.514 572.729 45.565 572.685 45.7514 572.549C46.395 572.374 46.7608 572.208 47.419 572.304C48.1697 572.442 48.4846 572.626 49.0955 573.085C49.5401 574.88 49.7709 575.971 48.7603 577.676C47.4869 578.397 46.4464 578.481 45.2135 577.61C45.2189 578.537 45.2493 579.595 45.1893 580.51L43.889 580.571Z" fill="#11DB5B"/>
<path d="M46.3647 573.073C48.1719 573.073 48.0785 575.277 47.8433 576.507C45.3606 578.706 44.2042 574.395 46.3012 573.107L46.3647 573.073Z" fill="#EBF9EA"/>
<path d="M45.7515 572.549C46.395 572.374 46.7609 572.208 47.4191 572.304C46.9549 573.084 47.0073 572.784 46.3648 573.073L46.3014 573.107C45.8399 572.992 45.8713 572.968 45.7515 572.549Z" fill="#02E651"/>
<path d="M53.1584 572.244C56.6935 572.373 56.78 575.612 55.0417 577.964C54.6143 578.042 54.1731 578.158 53.7494 578.261C50.4202 578.445 50.3862 575.55 51.0497 573.12C51.9033 572.563 52.2 572.446 53.1584 572.244Z" fill="#11DB5B"/>
<path d="M52.8602 573.089C54.9284 573.066 55.7147 575.594 54.1356 576.98C51.447 577.799 51.6059 574.587 52.8602 573.089Z" fill="#EBF9EA"/>
<path d="M38.8014 570.104C40.1533 569.972 42.5686 570.453 42.3043 572.241C41.6748 572.884 40.965 571.803 40.3783 571.503C39.5782 571.093 39.1559 571.306 38.3446 571.545C37.7994 572.882 38.5208 573.083 39.7209 573.515C40.6947 573.866 41.3246 574.07 42.2094 574.61C42.9961 577.171 41.9969 578.038 39.5582 578.315C37.6315 578.306 36.9357 577.65 36.3647 575.862C37.9283 575.709 37.3892 575.903 38.4986 576.847C39.0592 577.207 39.8068 577.02 40.3848 576.952C40.9179 576.889 41.3248 576.093 41.1015 575.75C40.1773 574.33 37.3283 574.753 36.7348 572.879C36.3381 571.626 37.7227 570.366 38.8014 570.104Z" fill="#11DB5B"/>
<path d="M71.1991 577.164C71.4264 575.862 71.9768 573.404 72.9455 572.43C73.167 572.207 73.7833 572.068 74.0212 572.374C73.9362 572.957 72.8767 575.533 72.6166 576.32C72.2334 577.333 71.6027 579.094 71.014 579.913C70.4204 580.214 69.4266 580.834 68.8056 580.488C68.6776 580.136 68.6034 580.008 68.661 579.638C69.3036 578.967 69.6 580.134 70.3901 578.412C69.9069 576.502 68.4909 573.645 68.2554 572.273C68.678 572.238 69.2295 572.236 69.6635 572.222C70.1575 573.923 70.6175 575.491 71.1991 577.164Z" fill="#11DB5B"/>
<path d="M66.7868 569.804C67.205 569.802 67.4314 569.746 67.668 570.104C67.6292 570.706 66.4559 571.29 65.8479 572.08C66.5342 572.161 67.1139 572.093 67.4781 572.731L67.3674 572.924C67.0573 573.167 66.595 573.116 66.188 573.12C66.1639 574.771 66.3069 576.536 66.2575 578.147C65.7871 578.233 65.3513 578.211 64.8752 578.205C64.9203 576.533 64.9388 574.86 64.9308 573.188C64.4089 573.131 63.8443 573.148 63.6924 572.56C63.934 572.232 64.9046 572.148 64.922 572.106C65.5264 570.634 64.6726 569.966 66.7868 569.804Z" fill="#11DB5B"/>
<path d="M59.5894 577.004C60.0534 577.187 60.4107 577.432 60.3872 577.954C60.0095 578.388 59.1883 578.39 58.7105 578.146C57.1753 577.36 58.289 574.745 57.8802 573.421C57.7421 572.973 57.0896 573.411 56.7915 572.588C56.9299 572.381 57.1788 572.314 57.4272 572.252C58.3797 572.016 57.6413 571.589 58.0119 570.845C58.3498 570.587 58.2361 570.593 58.5938 570.602C59.051 570.937 58.9586 571.622 59.0878 572.061C59.2176 572.503 60.1847 571.913 60.375 572.713C60.1542 573.054 60.1446 572.974 59.6937 573.159C59.5642 573.672 59.4655 576.483 59.5894 577.004Z" fill="#11DB5B"/>
<path d="M59.6937 573.159C59.5642 573.672 59.4655 576.483 59.5894 577.004C59.3567 576.983 59.3468 576.986 59.1723 576.841C58.8991 576.098 58.9375 574.081 59.0328 573.268C59.273 573.069 59.303 573.143 59.6937 573.159Z" fill="#D9F4D8"/>
<path d="M61.4547 572.218L62.8865 572.243C62.7877 574.068 62.8571 576.366 62.8862 578.202L61.4453 578.259C61.4317 576.246 61.4348 574.232 61.4547 572.218Z" fill="#11DB5B"/>
<path d="M61.5272 569.872C62.1217 569.846 62.3976 569.772 62.8395 570.124C62.9909 570.449 62.8835 570.78 62.8179 571.142C62.2055 571.188 61.8485 571.325 61.4441 570.809C61.385 570.389 61.4256 570.287 61.5272 569.872Z" fill="#11DB5B"/>
</g>
<g clip-path="url(#clip6_44_3094)">
<path d="M131.032 485H214.772C214.844 485.047 217.643 485.731 218.159 485.927C222.864 487.718 226.165 491.427 227.466 496.283C228.04 498.4 227.829 502.356 227.828 504.677L227.821 514.967L227.818 557.463L227.823 574.305C227.827 576.987 227.856 579.806 227.832 582.48C227.817 584.121 226.693 586.907 225.897 588.354C223.851 592.075 220.226 594.447 216.185 595.55C215.878 595.634 215.237 595.765 214.972 595.859H130.594C124.685 594.106 120.359 591.233 118.545 584.957C118.365 584.335 118.199 583.642 118 583.031V498.02C118.155 497.651 118.272 496.752 118.385 496.318C119.798 490.88 124.123 486.473 129.684 485.341C130.099 485.256 130.564 485.178 130.964 485.026L131.032 485Z" fill="#FFE9E8"/>
<path d="M165.951 511.073L166.098 510.774C166.674 510.677 169.504 510.785 170.25 510.788L180.075 510.784L199.885 510.785C203.29 510.784 206.757 510.743 210.161 510.813C210.966 510.829 211.948 511.025 212.614 511.493C213.39 512.041 213.917 512.873 214.08 513.808C214.275 514.961 214.227 517.668 214.227 518.918L214.221 527.328L214.215 535.975C214.227 539.372 215.172 544.35 210.544 544.825C208.832 545.001 207.043 544.933 205.32 544.923C202.633 544.906 199.946 544.903 197.258 544.915L166.617 544.923C166.355 544.921 166.147 544.96 165.946 544.761L165.88 544.861C165.432 545.045 138.001 544.969 134.945 544.878C134.097 544.852 132.829 544.04 132.378 543.24C131.986 542.543 131.68 542.194 131.615 541.292C131.484 539.479 131.527 537.586 131.526 535.765L131.526 526.041L131.525 518.668C131.524 517.269 131.407 515.44 131.663 514.105C132.13 511.672 133.691 510.872 135.924 510.822C138.33 510.769 140.633 510.783 142.995 510.784L156.143 510.791L162.558 510.779C163.23 510.777 165.272 510.728 165.83 510.853L165.951 511.073Z" fill="#FEFEFE"/>
<path d="M165.946 544.761L165.88 544.861C165.432 545.045 138.001 544.969 134.945 544.878C134.097 544.852 132.829 544.04 132.378 543.24C131.986 542.544 131.68 542.194 131.615 541.293C131.484 539.479 131.527 537.586 131.526 535.765L131.526 526.041L131.525 518.668C131.524 517.269 131.407 515.44 131.663 514.105C132.13 511.672 133.691 510.872 135.924 510.823C138.33 510.769 140.633 510.783 142.995 510.784L156.143 510.791L162.558 510.779C163.23 510.777 165.272 510.728 165.83 510.853L165.951 511.074C165.823 513.104 165.903 515.9 165.904 517.979L165.907 530.462L165.904 539.867C165.904 541.11 165.837 543.602 165.946 544.761Z" fill="#FA273A"/>
<path d="M144.896 520.841C145.858 520.411 154.363 518.513 154.958 518.92C154.914 519.974 155.132 522.319 154.51 523.071C154.162 523.217 154.297 523.215 153.983 523.127C153.44 522.899 147.212 524.287 145.859 524.457C145.697 527.687 145.913 531.031 145.679 534.267C145.65 534.661 145.468 535.069 145.306 535.429C144.226 536.075 142.74 536.674 141.521 535.923C140.602 535.357 140.449 534.091 141.039 533.211C141.795 532.084 143.396 532.003 144.643 531.77C144.868 528.389 144.509 524.059 144.896 520.841Z" fill="#FEFEFE"/>
<path d="M154.036 529.895L154.308 529.82C154.717 530.079 154.892 530.862 154.998 531.334C155.04 531.516 155.068 531.701 155.081 531.888C155.048 532.747 154.614 533.345 154.161 534.034C153.107 534.404 151.687 534.824 150.65 534.196C150.271 533.969 150.005 533.593 149.917 533.161C149.713 532.208 150.158 531.514 150.64 530.779C151.373 530.597 153.518 530.177 154.036 529.895Z" fill="#FEFEFE"/>
<path d="M154.958 518.92C155.252 520.711 155.368 530.168 155.081 531.888C155.068 531.701 155.04 531.516 154.999 531.334C154.893 530.862 154.717 530.079 154.308 529.82L154.036 529.895C153.905 528.853 153.986 524.432 153.983 523.127C154.297 523.215 154.162 523.217 154.51 523.071C155.132 522.319 154.914 519.974 154.958 518.92Z" fill="#FFE9E8"/>
<path d="M172.271 532.938C177.316 532.699 182.709 533.039 187.778 532.937C188.184 532.929 188.794 533.069 189.174 533.204C190.394 534.254 189.927 536.666 189.935 538.136C189.939 538.844 189.289 539.709 188.561 539.899C187.346 540.101 183.294 539.981 181.874 539.998C179.038 540.032 175.965 539.996 173.11 539.978C171.992 539.972 171.705 539.488 171.001 538.684C170.741 537.478 170.849 535.686 170.893 534.414C171.307 533.757 171.613 533.349 172.271 532.938Z" fill="#FFE9E8"/>
<path d="M172.147 520.912C173.181 520.877 174.218 520.885 175.252 520.886C183.938 520.893 192.624 520.86 201.309 520.897C201.543 520.898 202.33 520.948 202.495 521.066C203.448 521.743 203.092 523.624 201.911 523.861C200.417 523.905 198.878 523.896 197.382 523.884C188.954 523.814 180.49 523.993 172.066 523.862C170.748 522.878 170.05 521.514 172.147 520.912Z" fill="#DDDDDD"/>
<path d="M172.495 526.278C176.542 526.115 181.145 526.355 185.254 526.253C186.54 526.221 192.417 526.178 193.475 526.399C194.211 527.687 194.497 528.956 192.617 529.24C188.716 529.332 184.669 529.204 180.751 529.256C178.109 529.239 175.463 529.296 172.822 529.238C172.435 529.23 171.779 529.169 171.457 528.951C170.663 528.416 170.648 527.623 171.227 526.9C171.618 526.413 171.888 526.356 172.495 526.278Z" fill="#DDDDDD"/>
<path d="M174.439 570.088L176.484 570.073C176.542 570.446 176.643 570.742 176.796 571.088C177.624 572.959 178.197 574.794 178.659 576.782C178.889 575.786 179.08 575.085 179.386 574.124C179.735 573.028 180.595 571.159 180.702 570.11C181.462 570.067 182.323 570.087 183.092 570.09C183.062 572.795 183.062 575.501 183.091 578.206L181.648 578.254C181.57 576.594 181.642 574.881 181.559 573.167C181.556 573.101 181.552 573.036 181.548 572.97C181.524 572.647 181.554 572.521 181.353 572.344C180.599 573.208 180.283 578.237 178.491 578.222C177.189 577.657 176.521 573.214 175.83 572.048L175.737 572.111C175.635 572.759 175.782 573.74 175.795 574.446C175.819 575.685 175.84 576.928 175.873 578.167L174.438 578.263C174.462 575.598 174.503 572.748 174.439 570.088Z" fill="#FA273A"/>
<path d="M148.313 572.184C148.819 572.247 149.176 572.263 149.637 572.499C149.699 572.691 149.77 572.738 149.93 572.856C150.26 572.55 150.341 572.456 150.761 572.303C151.493 572.226 151.82 572.26 152.544 572.384C155.792 575.193 152.549 580.16 149.89 577.661C149.85 577.623 149.81 577.584 149.771 577.544C149.625 577.905 149.677 579.983 149.675 580.515C149.244 580.533 148.765 580.579 148.33 580.61C148.209 578.061 148.263 574.76 148.313 572.184Z" fill="#FA273A"/>
<path d="M148.313 572.184C148.819 572.247 149.176 572.263 149.637 572.499C149.699 572.691 149.77 572.738 149.93 572.856C150.026 573.254 149.95 573.104 150.262 573.421C149.659 574.534 149.279 576.298 150.533 577.127C150.136 577.213 150.077 577.283 149.771 577.544C149.625 577.905 149.677 579.983 149.675 580.515C149.244 580.533 148.765 580.579 148.33 580.61C148.209 578.061 148.263 574.76 148.313 572.184Z" fill="#FA273A"/>
<path d="M150.669 573.008C151.464 573.138 151.66 573.351 152.266 573.894C152.656 575.109 152.621 575.389 152.215 576.651C151.544 577.009 151.3 577.189 150.534 577.127C149.279 576.298 149.659 574.534 150.263 573.421L150.669 573.008Z" fill="#FFE9E8"/>
<path d="M149.93 572.856C150.26 572.55 150.341 572.456 150.761 572.303C151.155 572.357 151.261 572.292 151.453 572.534C151.267 572.826 151.014 572.953 150.669 573.008L150.263 573.421C149.95 573.104 150.026 573.254 149.93 572.856Z" fill="#FE1921"/>
<path d="M157.561 578.108C157.118 577.935 157.034 577.894 156.755 577.505L156.692 577.415L156.379 577.365C156.163 577.882 157.003 579.769 156.141 580.586C155.666 580.636 155.278 580.293 155.288 579.822C155.338 577.597 155.321 575.395 155.249 573.173C155.24 572.886 155.374 572.585 155.552 572.368C155.939 572.21 155.797 572.244 156.231 572.312C156.429 572.551 156.367 572.61 156.388 572.978L156.495 573.069L156.732 572.898C157.285 572.331 158.124 572.267 158.861 572.291C159.625 572.542 160.082 572.687 160.427 573.475C161.078 574.966 160.687 576.492 159.925 577.805C159.238 578.076 158.274 578.509 157.561 578.108Z" fill="#FA273A"/>
<path d="M157.561 578.108C157.118 577.935 157.034 577.894 156.755 577.505L156.692 577.415L156.379 577.365C156.163 577.882 157.003 579.769 156.141 580.586C155.666 580.636 155.278 580.293 155.288 579.822C155.338 577.597 155.321 575.395 155.249 573.173C155.24 572.886 155.374 572.585 155.552 572.368C155.939 572.21 155.797 572.244 156.231 572.312C156.429 572.551 156.367 572.61 156.388 572.978L156.495 573.069L156.732 572.898C157.285 572.331 158.124 572.267 158.861 572.291C158.469 572.644 158.336 572.88 157.866 572.978L157.42 573.21C156.859 573.921 156.46 574.42 156.536 575.414C156.559 575.711 156.748 575.911 156.734 576.169C156.569 576.937 157.066 577.489 157.656 577.906L157.669 578.029L157.561 578.108Z" fill="#FE1921"/>
<path d="M157.866 572.978C159.624 573.379 159.737 576.172 158.395 577.08C157.686 577.561 157.014 576.8 156.734 576.169C156.747 575.911 156.559 575.711 156.536 575.414C156.46 574.42 156.859 573.921 157.42 573.21L157.866 572.978Z" fill="#FFE9E8"/>
<path d="M142.597 570.103C143.113 570.072 143.717 570.077 144.241 570.068C144.455 570.786 144.942 571.908 145.217 572.65C145.898 574.505 146.562 576.365 147.211 578.232C146.598 578.243 146.144 578.208 145.538 578.159C145.38 577.608 145.421 577.031 145.124 576.566C144.878 576.32 144.687 576.34 144.345 576.312C143.499 576.293 142.603 576.312 141.753 576.315L141.324 578.229L139.639 578.218C140.667 576.116 141.603 572.564 142.597 570.103Z" fill="#FA273A"/>
<path d="M143.362 571.328C143.716 571.641 144.566 574.831 144.327 575.165L143.801 575.14L142.338 575.134C142.694 574.01 143.052 572.494 143.362 571.328Z" fill="#FFE9E8"/>
<path d="M167.363 572.253C168.501 572.223 169.071 572.592 169.867 573.322C170.12 574.145 170.175 574.705 170.247 575.554C168.802 575.543 167.333 575.564 165.887 575.571C166.95 578.352 167.841 576.702 169.631 576.561L169.676 576.558C169.873 576.639 169.905 576.737 170.019 576.919C170.017 577.725 168.965 578.061 168.297 578.197C167.259 578.408 166.199 578.161 165.317 577.576C164.463 575.814 164.387 574.725 165.278 572.944C166.099 572.455 166.446 572.41 167.363 572.253Z" fill="#FA273A"/>
<path d="M167.04 573.048C167.801 573.003 169.173 573.903 168.606 574.559L168.077 574.595L165.909 574.577C166.257 573.913 166.505 573.563 167.04 573.048Z" fill="#FFE9E8"/>
<path d="M193.259 572.249C193.412 572.236 193.564 572.227 193.717 572.221C194.962 572.181 195.566 572.748 196.41 573.54C196.138 573.608 195.244 573.843 195.045 573.77C194.348 573.518 193.676 572.735 192.839 573.229C192.664 573.51 192.687 573.648 192.685 573.971C193.026 574.582 194.352 574.562 195.03 574.925C196.913 575.935 196.437 577.635 194.469 578.219C193.554 578.352 190.691 578.32 191.305 576.686C192.189 576.248 193.636 577.569 194.597 577.047C194.805 576.692 194.755 576.853 194.76 576.416C194.199 575.415 191.471 575.914 191.229 574.21C191.007 572.642 192.022 572.462 193.259 572.249Z" fill="#FA273A"/>
<path d="M201.261 577.927C199.716 576.169 199.267 573.947 201.489 572.509C201.682 572.638 202.279 573.066 202.475 573.067C202.333 573.3 202.031 573.555 201.886 573.818C200.981 575.459 201.279 576.343 202.701 577.291C203.564 576.978 204.567 575.859 205.222 576.586C205.336 577.205 204.809 577.716 204.298 577.979C203.232 578.527 202.334 578.25 201.261 577.927Z" fill="#FA273A"/>
<path d="M161.94 570.084L163.345 570.089C163.321 572.799 163.32 575.509 163.34 578.22L161.939 578.239L161.94 570.084Z" fill="#FA273A"/>
<path d="M184.606 572.209L186.032 572.278C185.98 573.696 185.276 578.31 188.088 576.746C188.17 576.856 188.229 576.969 188.339 577.026C188.208 577.292 188.045 577.616 187.856 577.819C187.347 578.377 185.715 578.435 185.237 577.833C184.277 576.624 184.588 573.675 184.606 572.209Z" fill="#FA273A"/>
<path d="M188.363 572.214L189.777 572.287C189.653 574.167 189.71 576.263 189.752 578.159C189.366 578.201 188.875 578.313 188.571 578.107C188.373 577.843 188.371 577.37 188.339 577.026C188.229 576.969 188.17 576.856 188.088 576.746C188.482 575.768 188.37 573.375 188.363 572.214Z" fill="#FA273A"/>
<path d="M197.359 572.262C197.795 572.249 198.267 572.261 198.706 572.264C198.646 574.212 198.798 576.35 198.711 578.209L197.308 578.191C197.368 576.215 197.385 574.239 197.359 572.262Z" fill="#FA273A"/>
<path d="M201.489 572.509C202.194 572.328 202.789 572.152 203.532 572.303C204.223 572.442 205.646 573.028 205.263 573.941C204.037 574.707 203.782 573.025 202.475 573.067C202.279 573.066 201.682 572.638 201.489 572.509Z" fill="#FA273A"/>
<path d="M197.876 569.841C198.352 569.82 198.717 569.924 198.857 570.397C198.81 570.797 198.549 570.994 198.262 571.285C197.696 571.165 197.285 570.974 197.234 570.359C197.451 569.978 197.426 570.077 197.876 569.841Z" fill="#FA273A"/>
</g>
<g clip-path="url(#clip7_44_3094)">
<path d="M13.1303 604H97.8792C98.2721 604.229 100.783 604.686 101.552 605.005C105.639 606.703 108.797 609.879 110.218 614.096C110.514 614.975 110.726 616.466 111 617.162V701.966C109.547 707.789 107.216 711.563 101.439 714.01C100.815 714.275 98.5069 714.805 98.2116 715H12.8099C7.22324 713.403 3.25552 711.034 0.95011 705.374C0.525637 704.332 0.419959 703.152 0.0306894 702.131L0 702.052V617.139C0.148242 616.871 0.529135 614.769 0.709872 614.251C2.19664 609.985 5.24734 606.695 9.44968 605.004C10.2776 604.671 12.632 604.301 13.1303 604Z" fill="#EFEFEE"/>
<path d="M20.7329 632.88C20.8489 632.864 20.9657 632.854 21.0827 632.849C25.4671 632.68 30.8005 632.834 35.2778 632.834L63.25 632.831L82.0133 632.829C85.2563 632.829 88.5326 632.77 91.7691 632.904C94.6033 633.138 95.3772 635.354 95.3702 637.78C95.3585 643.773 95.3758 649.77 95.3783 655.764C95.3786 656.644 95.2576 658.339 94.7855 659.073C94.1341 660.087 92.8296 660.849 91.6218 660.868C91.532 660.883 91.4419 660.895 91.3516 660.906C90.2818 661.035 88.7251 660.997 87.6142 660.997L81.9124 660.997L63.0071 660.995L35.2173 660.998L26.2638 660.996C24.3735 660.996 22.4842 661.024 20.5979 660.928C19.5494 660.875 18.992 660.739 18.1911 660.053C17.3501 659.377 16.8047 658.308 16.7586 657.204C16.6331 654.195 16.7119 651.099 16.7059 648.085L16.6937 641.015C16.6918 637.347 15.9336 633.283 20.7329 632.88Z" fill="#FEFEFE"/>
<path d="M58.486 645.577C59.5079 645.293 67.4373 645.412 69.1604 645.407C73.9563 645.394 79.0622 645.414 83.8814 645.425C84.3962 645.426 85.1496 645.518 85.6641 645.615C86.8115 646.389 86.2029 647.482 85.4821 648.307C83.5944 648.525 80.9888 648.444 79.0293 648.445L68.7836 648.446L62.2162 648.446C61.0747 648.445 59.3672 648.545 58.2844 648.319C59.0351 647.223 59.2358 646.731 58.486 645.577Z" fill="#EFEFEE"/>
<path d="M26.8573 641.074C28.4643 641.579 33.6046 645.065 35.3784 646.097C35.5758 646.212 35.992 646.689 36.1511 646.882C35.1755 647.945 33.6652 648.769 32.4185 649.514C30.8443 650.478 28.6006 652.063 26.8482 652.573C26.1945 652.764 26.21 649.712 26.2199 649.276C26.2768 646.79 26.0733 644.22 26.3676 641.75C26.4145 641.357 26.5607 641.264 26.8573 641.074Z" fill="black"/>
<path d="M44.8251 648.302C43.1944 647.055 43.5397 645.495 45.7332 645.44C48.9262 645.36 52.1185 645.401 55.3131 645.401C56.2872 645.401 57.5626 645.345 58.486 645.577C59.2358 646.731 59.0351 647.223 58.2844 648.319C57.6398 648.551 45.848 648.5 44.8251 648.302Z" fill="black"/>
<path d="M46.3133 689.167L46.4272 689.228C46.5404 689.745 47.2945 691.335 47.5232 691.977C47.9775 693.251 48.2728 694.342 48.6275 695.644C48.9766 694.747 49.2964 693.289 49.6236 692.294C49.9314 691.359 50.5497 690.032 50.7275 689.196L52.8791 689.198C52.8269 691.88 52.8819 694.739 52.8727 697.442L51.3837 697.439C51.3922 695.836 51.469 693.177 51.3292 691.649L51.1402 691.646C50.8021 693.491 49.8561 695.625 49.1977 697.453L48.0641 697.457C47.0417 695.012 46.4939 693.19 45.6407 690.732C45.6521 690.987 45.6912 691.239 45.716 691.494C45.9093 693.463 45.8592 695.447 45.8532 697.423L44.3614 697.446C44.3892 694.699 44.3876 691.95 44.3567 689.203C45.0089 689.195 45.6612 689.183 46.3133 689.167Z" fill="#9D9C9C"/>
<path d="M54.4274 689.2C56.4767 689.173 59.9912 688.779 60.3449 691.552C60.5787 693.385 59.3264 694.488 57.6185 694.669C57.0767 694.693 56.4829 694.693 55.9364 694.703L55.919 697.446L54.4229 697.439C54.4394 694.693 54.441 691.946 54.4274 689.2Z" fill="#9D9C9C"/>
<path d="M55.9672 690.425C58.0373 690.503 59.6139 690.528 58.4551 693.239C57.7949 693.416 56.6039 693.413 55.9267 693.411C55.9144 692.402 55.8906 691.435 55.9672 690.425Z" fill="#EFEFEE"/>
<path d="M61.8987 689.21C63.4935 689.266 65.4369 689.095 66.9872 689.233C67.2645 689.428 67.1756 689.322 67.3094 689.657C67.2647 690.68 65.5855 691.7 64.9178 692.543C65.005 693.116 70.2848 693.506 65.7377 697.359C65.3486 697.403 64.9588 697.44 64.5685 697.47C63.8618 697.518 63.3506 697.443 62.8216 696.978C62.2587 696.644 61.1631 695.889 61.8025 695.165C62.8772 694.756 63.0484 695.334 63.5281 695.952C63.5855 696.026 64.2844 696.237 64.4202 696.278C64.9057 696.153 65.2149 696.084 65.6753 695.866C67.2986 693.37 63.7737 693.805 63.4111 693.224C63.466 692.199 64.4787 691.715 65.1859 690.393C64.1838 690.399 62.7414 690.699 62.0563 690.297C61.8146 689.9 61.898 689.722 61.8987 689.21Z" fill="#9D9C9C"/>
</g>
<path d="M2.27557 3.27273V12H0.958807V3.27273H2.27557ZM4.09091 12V5.45455H5.31392V6.51989H5.39489C5.53125 6.15909 5.75426 5.87784 6.06392 5.67614C6.37358 5.47159 6.74432 5.36932 7.17614 5.36932C7.61364 5.36932 7.98011 5.47159 8.27557 5.67614C8.57386 5.88068 8.79403 6.16193 8.93608 6.51989H9.00426C9.16051 6.17045 9.40909 5.89205 9.75 5.68466C10.0909 5.47443 10.4972 5.36932 10.9688 5.36932C11.5625 5.36932 12.0469 5.5554 12.4219 5.92756C12.7997 6.29972 12.9886 6.8608 12.9886 7.6108V12H11.7145V7.73011C11.7145 7.28693 11.5938 6.96591 11.3523 6.76705C11.1108 6.56818 10.8224 6.46875 10.4872 6.46875C10.0724 6.46875 9.75 6.59659 9.51989 6.85227C9.28977 7.10511 9.17472 7.4304 9.17472 7.82812V12H7.90483V7.64915C7.90483 7.29403 7.79403 7.00852 7.57244 6.79261C7.35085 6.5767 7.0625 6.46875 6.70739 6.46875C6.46591 6.46875 6.2429 6.53267 6.03835 6.66051C5.83665 6.78551 5.6733 6.96023 5.5483 7.18466C5.42614 7.40909 5.36506 7.66903 5.36506 7.96449V12H4.09091ZM16.6012 12.1449C16.1864 12.1449 15.8114 12.0682 15.4762 11.9148C15.141 11.7585 14.8754 11.5327 14.6793 11.2372C14.4862 10.9418 14.3896 10.5795 14.3896 10.1506C14.3896 9.78125 14.4606 9.47727 14.6026 9.23864C14.7447 9 14.9364 8.81108 15.1779 8.67188C15.4194 8.53267 15.6893 8.42756 15.9876 8.35653C16.2859 8.28551 16.5898 8.23153 16.8995 8.1946C17.2915 8.14915 17.6097 8.11222 17.854 8.08381C18.0984 8.05256 18.2759 8.00284 18.3867 7.93466C18.4975 7.86648 18.5529 7.75568 18.5529 7.60227V7.57244C18.5529 7.20028 18.4478 6.91193 18.2376 6.70739C18.0302 6.50284 17.7205 6.40057 17.3086 6.40057C16.8796 6.40057 16.5415 6.49574 16.2944 6.68608C16.0501 6.87358 15.881 7.08239 15.7873 7.3125L14.5898 7.03977C14.7319 6.64205 14.9393 6.32102 15.212 6.0767C15.4876 5.82955 15.8043 5.65057 16.1623 5.53977C16.5202 5.42614 16.8967 5.36932 17.2915 5.36932C17.5529 5.36932 17.8299 5.40057 18.1225 5.46307C18.418 5.52273 18.6935 5.63352 18.9492 5.79545C19.2077 5.95739 19.4194 6.18892 19.5842 6.49006C19.7489 6.78835 19.8313 7.17614 19.8313 7.65341V12H18.587V11.1051H18.5359C18.4535 11.2699 18.3299 11.4318 18.1651 11.5909C18.0004 11.75 17.7887 11.8821 17.5302 11.9872C17.2717 12.0923 16.962 12.1449 16.6012 12.1449ZM16.8782 11.1222C17.2305 11.1222 17.5316 11.0526 17.7816 10.9134C18.0344 10.7741 18.2262 10.5923 18.3569 10.3679C18.4904 10.1406 18.5572 9.89773 18.5572 9.6392V8.79545C18.5117 8.84091 18.4237 8.88352 18.293 8.9233C18.1651 8.96023 18.0188 8.9929 17.854 9.02131C17.6893 9.04687 17.5288 9.07102 17.3725 9.09375C17.2163 9.11364 17.0856 9.13068 16.9805 9.14489C16.7333 9.17614 16.5075 9.22869 16.3029 9.30256C16.1012 9.37642 15.9393 9.48295 15.8171 9.62216C15.6978 9.75852 15.6381 9.94034 15.6381 10.1676C15.6381 10.483 15.7546 10.7216 15.9876 10.8835C16.2205 11.0426 16.5174 11.1222 16.8782 11.1222ZM24.2727 14.5909C23.7528 14.5909 23.3054 14.5227 22.9304 14.3864C22.5582 14.25 22.2543 14.0696 22.0185 13.8452C21.7827 13.6207 21.6065 13.375 21.4901 13.108L22.5852 12.6562C22.6619 12.7812 22.7642 12.9134 22.892 13.0526C23.0227 13.1946 23.1989 13.3153 23.4205 13.4148C23.6449 13.5142 23.9332 13.5639 24.2855 13.5639C24.7685 13.5639 25.1676 13.446 25.483 13.2102C25.7983 12.9773 25.956 12.6051 25.956 12.0938V10.8068H25.875C25.7983 10.946 25.6875 11.1009 25.5426 11.2713C25.4006 11.4418 25.2045 11.5895 24.9545 11.7145C24.7045 11.8395 24.3793 11.902 23.9787 11.902C23.4616 11.902 22.9957 11.7812 22.581 11.5398C22.169 11.2955 21.8423 10.9361 21.6009 10.4616C21.3622 9.98437 21.2429 9.39773 21.2429 8.7017C21.2429 8.00568 21.3608 7.40909 21.5966 6.91193C21.8352 6.41477 22.1619 6.03409 22.5767 5.76989C22.9915 5.50284 23.4616 5.36932 23.9872 5.36932C24.3935 5.36932 24.7216 5.4375 24.9716 5.57386C25.2216 5.70739 25.4162 5.86364 25.5554 6.04261C25.6974 6.22159 25.8068 6.37926 25.8835 6.51562H25.9773V5.45455H27.2259V12.1449C27.2259 12.7074 27.0952 13.169 26.8338 13.5298C26.5724 13.8906 26.2188 14.1577 25.7727 14.331C25.3295 14.5043 24.8295 14.5909 24.2727 14.5909ZM24.2599 10.8452C24.6264 10.8452 24.9361 10.7599 25.1889 10.5895C25.4446 10.4162 25.6378 10.169 25.7685 9.84801C25.902 9.52415 25.9688 9.13636 25.9688 8.68466C25.9688 8.24432 25.9034 7.85653 25.7727 7.52131C25.642 7.18608 25.4503 6.92472 25.1974 6.73722C24.9446 6.54687 24.6321 6.4517 24.2599 6.4517C23.8764 6.4517 23.5568 6.55114 23.3011 6.75C23.0455 6.94602 22.8523 7.21307 22.7216 7.55114C22.5938 7.8892 22.5298 8.26705 22.5298 8.68466C22.5298 9.11364 22.5952 9.49006 22.7259 9.81392C22.8565 10.1378 23.0497 10.3906 23.3054 10.5724C23.5639 10.7543 23.8821 10.8452 24.2599 10.8452ZM31.7557 12.1321C31.1108 12.1321 30.5554 11.9943 30.0895 11.7188C29.6264 11.4403 29.2685 11.0497 29.0156 10.5469C28.7656 10.0412 28.6406 9.44886 28.6406 8.76989C28.6406 8.09943 28.7656 7.50852 29.0156 6.99716C29.2685 6.4858 29.6207 6.08665 30.0724 5.79972C30.527 5.51278 31.0582 5.36932 31.6662 5.36932C32.0355 5.36932 32.3935 5.4304 32.7401 5.55256C33.0866 5.67472 33.3977 5.86648 33.6733 6.12784C33.9489 6.3892 34.1662 6.72869 34.3253 7.14631C34.4844 7.56108 34.5639 8.06534 34.5639 8.65909V9.1108H29.3608V8.15625H33.3153C33.3153 7.82102 33.2472 7.52415 33.1108 7.26562C32.9744 7.00426 32.7827 6.7983 32.5355 6.64773C32.2912 6.49716 32.0043 6.42188 31.6747 6.42188C31.3168 6.42188 31.0043 6.50994 30.7372 6.68608C30.473 6.85937 30.2685 7.08665 30.1236 7.3679C29.9815 7.64631 29.9105 7.94886 29.9105 8.27557V9.02131C29.9105 9.45881 29.9872 9.83097 30.1406 10.1378C30.2969 10.4446 30.5142 10.679 30.7926 10.8409C31.071 11 31.3963 11.0795 31.7685 11.0795C32.0099 11.0795 32.2301 11.0455 32.429 10.9773C32.6278 10.9062 32.7997 10.8011 32.9446 10.6619C33.0895 10.5227 33.2003 10.3509 33.277 10.1463L34.483 10.3636C34.3864 10.7187 34.2131 11.0298 33.9631 11.2969C33.7159 11.5611 33.4048 11.767 33.0298 11.9148C32.6577 12.0597 32.233 12.1321 31.7557 12.1321Z" fill="black"/>
<path d="M1.72159 174.273L4.15057 181.381H4.24858L6.67756 174.273H8.10085L4.96023 183H3.43892L0.298295 174.273H1.72159ZM9.25888 183V176.455H10.533V183H9.25888ZM9.90234 175.445C9.68075 175.445 9.49041 175.371 9.33132 175.223C9.17507 175.072 9.09695 174.893 9.09695 174.686C9.09695 174.476 9.17507 174.297 9.33132 174.149C9.49041 173.999 9.68075 173.923 9.90234 173.923C10.1239 173.923 10.3129 173.999 10.4691 174.149C10.6282 174.297 10.7077 174.476 10.7077 174.686C10.7077 174.893 10.6282 175.072 10.4691 175.223C10.3129 175.371 10.1239 175.445 9.90234 175.445ZM14.6974 183.128C14.169 183.128 13.6974 182.993 13.2827 182.723C12.8707 182.45 12.5469 182.062 12.3111 181.56C12.0781 181.054 11.9616 180.447 11.9616 179.74C11.9616 179.033 12.0795 178.428 12.3153 177.925C12.554 177.422 12.8807 177.037 13.2955 176.77C13.7102 176.503 14.1804 176.369 14.706 176.369C15.1122 176.369 15.4389 176.438 15.6861 176.574C15.9361 176.707 16.1293 176.864 16.2656 177.043C16.4048 177.222 16.5128 177.379 16.5895 177.516H16.6662V174.273H17.9403V183H16.696V181.982H16.5895C16.5128 182.121 16.402 182.28 16.2571 182.459C16.1151 182.638 15.919 182.794 15.669 182.928C15.419 183.061 15.0952 183.128 14.6974 183.128ZM14.9787 182.041C15.3452 182.041 15.6548 181.945 15.9077 181.751C16.1634 181.555 16.3565 181.284 16.4872 180.938C16.6207 180.591 16.6875 180.187 16.6875 179.727C16.6875 179.273 16.6222 178.875 16.4915 178.534C16.3608 178.193 16.169 177.928 15.9162 177.737C15.6634 177.547 15.3509 177.452 14.9787 177.452C14.5952 177.452 14.2756 177.551 14.0199 177.75C13.7642 177.949 13.571 178.22 13.4403 178.564C13.3125 178.908 13.2486 179.295 13.2486 179.727C13.2486 180.165 13.3139 180.558 13.4446 180.908C13.5753 181.257 13.7685 181.534 14.0241 181.739C14.2827 181.94 14.6009 182.041 14.9787 182.041ZM22.5799 183.132C21.935 183.132 21.3796 182.994 20.9137 182.719C20.4506 182.44 20.0927 182.05 19.8398 181.547C19.5898 181.041 19.4648 180.449 19.4648 179.77C19.4648 179.099 19.5898 178.509 19.8398 177.997C20.0927 177.486 20.445 177.087 20.8967 176.8C21.3512 176.513 21.8825 176.369 22.4904 176.369C22.8597 176.369 23.2177 176.43 23.5643 176.553C23.9109 176.675 24.2219 176.866 24.4975 177.128C24.7731 177.389 24.9904 177.729 25.1495 178.146C25.3086 178.561 25.3881 179.065 25.3881 179.659V180.111H20.185V179.156H24.1396C24.1396 178.821 24.0714 178.524 23.935 178.266C23.7987 178.004 23.6069 177.798 23.3597 177.648C23.1154 177.497 22.8285 177.422 22.4989 177.422C22.141 177.422 21.8285 177.51 21.5614 177.686C21.2972 177.859 21.0927 178.087 20.9478 178.368C20.8058 178.646 20.7347 178.949 20.7347 179.276V180.021C20.7347 180.459 20.8114 180.831 20.9648 181.138C21.1211 181.445 21.3384 181.679 21.6168 181.841C21.8952 182 22.2205 182.08 22.5927 182.08C22.8342 182.08 23.0543 182.045 23.2532 181.977C23.4521 181.906 23.6239 181.801 23.7688 181.662C23.9137 181.523 24.0245 181.351 24.1012 181.146L25.3072 181.364C25.2106 181.719 25.0373 182.03 24.7873 182.297C24.5401 182.561 24.229 182.767 23.854 182.915C23.4819 183.06 23.0572 183.132 22.5799 183.132ZM29.5589 183.132C28.9453 183.132 28.4098 182.991 27.9524 182.71C27.495 182.429 27.1399 182.036 26.8871 181.53C26.6342 181.024 26.5078 180.433 26.5078 179.757C26.5078 179.078 26.6342 178.484 26.8871 177.976C27.1399 177.467 27.495 177.072 27.9524 176.791C28.4098 176.51 28.9453 176.369 29.5589 176.369C30.1726 176.369 30.7081 176.51 31.1655 176.791C31.6229 177.072 31.978 177.467 32.2308 177.976C32.4837 178.484 32.6101 179.078 32.6101 179.757C32.6101 180.433 32.4837 181.024 32.2308 181.53C31.978 182.036 31.6229 182.429 31.1655 182.71C30.7081 182.991 30.1726 183.132 29.5589 183.132ZM29.5632 182.062C29.9609 182.062 30.2905 181.957 30.5518 181.747C30.8132 181.537 31.0064 181.257 31.1314 180.908C31.2592 180.558 31.3232 180.173 31.3232 179.753C31.3232 179.335 31.2592 178.952 31.1314 178.602C31.0064 178.25 30.8132 177.967 30.5518 177.754C30.2905 177.541 29.9609 177.435 29.5632 177.435C29.1626 177.435 28.8303 177.541 28.5661 177.754C28.3047 177.967 28.1101 178.25 27.9822 178.602C27.8572 178.952 27.7947 179.335 27.7947 179.753C27.7947 180.173 27.8572 180.558 27.9822 180.908C28.1101 181.257 28.3047 181.537 28.5661 181.747C28.8303 181.957 29.1626 182.062 29.5632 182.062Z" fill="black"/>
<path d="M0.958807 465.273H2.55682L5.33523 472.057H5.4375L8.21591 465.273H9.81392V474H8.56108V467.685H8.48011L5.90625 473.987H4.86648L2.29261 467.68H2.21165V474H0.958807V465.273ZM15.7724 471.286V467.455H17.0508V474H15.7979V472.866H15.7298C15.5792 473.216 15.3377 473.507 15.0053 473.74C14.6758 473.97 14.2653 474.085 13.7738 474.085C13.3533 474.085 12.9812 473.993 12.6573 473.808C12.3363 473.621 12.0835 473.344 11.8988 472.977C11.717 472.611 11.6261 472.158 11.6261 471.618V467.455H12.9002V471.464C12.9002 471.911 13.0238 472.266 13.271 472.53C13.5181 472.794 13.8391 472.926 14.234 472.926C14.4727 472.926 14.7099 472.866 14.9457 472.747C15.1843 472.628 15.3817 472.447 15.538 472.206C15.6971 471.964 15.7752 471.658 15.7724 471.286ZM23.6676 469.053L22.5128 469.257C22.4645 469.109 22.3878 468.969 22.2827 468.835C22.1804 468.702 22.0412 468.592 21.8651 468.507C21.6889 468.422 21.4688 468.379 21.2045 468.379C20.8438 468.379 20.5426 468.46 20.3011 468.622C20.0597 468.781 19.9389 468.987 19.9389 469.24C19.9389 469.459 20.0199 469.635 20.1818 469.768C20.3438 469.902 20.6051 470.011 20.9659 470.097L22.0057 470.335C22.608 470.474 23.0568 470.689 23.3523 470.979C23.6477 471.268 23.7955 471.645 23.7955 472.108C23.7955 472.5 23.6818 472.849 23.4545 473.156C23.2301 473.46 22.9162 473.699 22.5128 473.872C22.1122 474.045 21.6477 474.132 21.1193 474.132C20.3864 474.132 19.7884 473.976 19.3253 473.663C18.8622 473.348 18.5781 472.901 18.473 472.321L19.7045 472.134C19.7813 472.455 19.9389 472.697 20.1776 472.862C20.4162 473.024 20.7273 473.105 21.1108 473.105C21.5284 473.105 21.8622 473.018 22.1122 472.845C22.3622 472.669 22.4872 472.455 22.4872 472.202C22.4872 471.997 22.4105 471.825 22.2571 471.686C22.1065 471.547 21.875 471.442 21.5625 471.371L20.4545 471.128C19.8438 470.989 19.392 470.767 19.0994 470.463C18.8097 470.159 18.6648 469.774 18.6648 469.308C18.6648 468.922 18.7727 468.584 18.9886 468.294C19.2045 468.004 19.5028 467.778 19.8835 467.616C20.2642 467.452 20.7003 467.369 21.1918 467.369C21.8991 467.369 22.456 467.523 22.8622 467.83C23.2685 468.134 23.5369 468.541 23.6676 469.053ZM25.1964 474V467.455H26.4705V474H25.1964ZM25.8398 466.445C25.6183 466.445 25.4279 466.371 25.2688 466.223C25.1126 466.072 25.0344 465.893 25.0344 465.686C25.0344 465.476 25.1126 465.297 25.2688 465.149C25.4279 464.999 25.6183 464.923 25.8398 464.923C26.0614 464.923 26.2504 464.999 26.4066 465.149C26.5657 465.297 26.6452 465.476 26.6452 465.686C26.6452 465.893 26.5657 466.072 26.4066 466.223C26.2504 466.371 26.0614 466.445 25.8398 466.445ZM30.9418 474.132C30.3082 474.132 29.7628 473.989 29.3054 473.702C28.8509 473.412 28.5014 473.013 28.2571 472.504C28.0128 471.996 27.8906 471.413 27.8906 470.757C27.8906 470.092 28.0156 469.506 28.2656 468.997C28.5156 468.486 28.8679 468.087 29.3224 467.8C29.777 467.513 30.3125 467.369 30.929 467.369C31.4261 467.369 31.8693 467.462 32.2585 467.646C32.6477 467.828 32.9616 468.084 33.2003 468.413C33.4418 468.743 33.5852 469.128 33.6307 469.568H32.3906C32.3224 469.261 32.1662 468.997 31.9219 468.776C31.6804 468.554 31.3565 468.443 30.9503 468.443C30.5952 468.443 30.2841 468.537 30.017 468.724C29.7528 468.909 29.5469 469.173 29.3991 469.517C29.2514 469.858 29.1776 470.261 29.1776 470.727C29.1776 471.205 29.25 471.616 29.3949 471.963C29.5398 472.31 29.7443 472.578 30.0085 472.768C30.2756 472.959 30.5895 473.054 30.9503 473.054C31.1918 473.054 31.4105 473.01 31.6065 472.922C31.8054 472.831 31.9716 472.702 32.1051 472.534C32.2415 472.366 32.3366 472.165 32.3906 471.929H33.6307C33.5852 472.352 33.4474 472.73 33.2173 473.062C32.9872 473.395 32.679 473.656 32.2926 473.847C31.9091 474.037 31.4588 474.132 30.9418 474.132Z" fill="black"/>
<defs>
<clipPath id="clip0_44_3094">
<rect width="110" height="110.859" fill="white" transform="translate(0 39)"/>
</clipPath>
<clipPath id="clip1_44_3094">
<rect width="110" height="110.859" fill="white" transform="translate(118 39)"/>
</clipPath>
<clipPath id="clip2_44_3094">
<rect width="111" height="111" fill="white" transform="translate(0 209)"/>
</clipPath>
<clipPath id="clip3_44_3094">
<rect width="111" height="111" fill="white" transform="translate(118 209)"/>
</clipPath>
<clipPath id="clip4_44_3094">
<rect width="111" height="111" fill="white" transform="translate(0 328)"/>
</clipPath>
<clipPath id="clip5_44_3094">
<rect width="110" height="110.859" fill="white" transform="translate(0 485)"/>
</clipPath>
<clipPath id="clip6_44_3094">
<rect width="110" height="110.859" fill="white" transform="translate(118 485)"/>
</clipPath>
<clipPath id="clip7_44_3094">
<rect width="111" height="111" fill="white" transform="translate(0 604)"/>
</clipPath>
</defs>
</svg>
