<svg width="153" height="198" viewBox="0 0 153 198" fill="none" xmlns="http://www.w3.org/2000/svg">
<g filter="url(#filter0_d_1_6609)">
<rect x="4" width="145" height="190" rx="4" fill="white" shape-rendering="crispEdges"/>
<rect x="4.5" y="0.5" width="144" height="189" rx="3.5" stroke="#EAEAEA" shape-rendering="crispEdges"/>
<g filter="url(#filter1_d_1_6609)">
<rect x="14" y="10" width="125" height="26" rx="4" fill="white" shape-rendering="crispEdges"/>
<rect x="14.5" y="10.5" width="124" height="25" rx="3.5" stroke="#EAEAEA" shape-rendering="crispEdges"/>
<path d="M28.25 19.25V21.1625L25.1625 24.25H23.25V26.75H25.75V24.8417L28.8417 21.75H30.75V19.25M29.0833 20.0833H29.9167V20.9167H29.0833M24.0833 25.0833H24.9167V25.9167H24.0833" fill="#141414"/>
<path d="M36.6392 26V20.1818H38.7131C39.1657 20.1818 39.5407 20.2642 39.8381 20.429C40.1354 20.5937 40.358 20.8191 40.5057 21.1051C40.6534 21.3892 40.7273 21.7093 40.7273 22.0653C40.7273 22.4233 40.6525 22.7453 40.5028 23.0312C40.3551 23.3153 40.1316 23.5407 39.8324 23.7074C39.535 23.8722 39.161 23.9545 38.7102 23.9545H37.2841V23.2102H38.6307C38.9167 23.2102 39.1487 23.161 39.3267 23.0625C39.5047 22.9621 39.6354 22.8258 39.7188 22.6534C39.8021 22.4811 39.8438 22.285 39.8438 22.0653C39.8438 21.8456 39.8021 21.6506 39.7188 21.4801C39.6354 21.3097 39.5038 21.1761 39.3239 21.0795C39.1458 20.983 38.911 20.9347 38.6193 20.9347H37.517V26H36.6392ZM42.919 26.0966C42.6425 26.0966 42.3925 26.0455 42.169 25.9432C41.9455 25.839 41.7685 25.6884 41.6378 25.4915C41.509 25.2945 41.4446 25.053 41.4446 24.767C41.4446 24.5208 41.492 24.3182 41.5866 24.1591C41.6813 24 41.8092 23.8741 41.9702 23.7812C42.1312 23.6884 42.3111 23.6184 42.5099 23.571C42.7088 23.5237 42.9115 23.4877 43.1179 23.4631C43.3793 23.4328 43.5914 23.4081 43.7543 23.3892C43.9171 23.3684 44.0355 23.3352 44.1094 23.2898C44.1832 23.2443 44.2202 23.1705 44.2202 23.0682V23.0483C44.2202 22.8002 44.1501 22.608 44.0099 22.4716C43.8717 22.3352 43.6652 22.267 43.3906 22.267C43.1046 22.267 42.8793 22.3305 42.7145 22.4574C42.5516 22.5824 42.4389 22.7216 42.3764 22.875L41.5781 22.6932C41.6728 22.428 41.8111 22.214 41.9929 22.0511C42.1766 21.8864 42.3878 21.767 42.6264 21.6932C42.8651 21.6174 43.116 21.5795 43.3793 21.5795C43.5535 21.5795 43.7382 21.6004 43.9332 21.642C44.1302 21.6818 44.3139 21.7557 44.4844 21.8636C44.6567 21.9716 44.7978 22.1259 44.9077 22.3267C45.0175 22.5256 45.0724 22.7841 45.0724 23.1023V26H44.2429V25.4034H44.2088C44.1539 25.5133 44.0715 25.6212 43.9616 25.7273C43.8518 25.8333 43.7107 25.9214 43.5384 25.9915C43.366 26.0616 43.1596 26.0966 42.919 26.0966ZM43.1037 25.4148C43.3385 25.4148 43.5393 25.3684 43.706 25.2756C43.8745 25.1828 44.0024 25.0616 44.0895 24.9119C44.1785 24.7604 44.223 24.5985 44.223 24.4261V23.8636C44.1927 23.8939 44.134 23.9223 44.0469 23.9489C43.9616 23.9735 43.8641 23.9953 43.7543 24.0142C43.6444 24.0312 43.5374 24.0473 43.4332 24.0625C43.3291 24.0758 43.242 24.0871 43.1719 24.0966C43.0071 24.1174 42.8565 24.1525 42.7202 24.2017C42.5857 24.2509 42.4777 24.322 42.3963 24.4148C42.3168 24.5057 42.277 24.6269 42.277 24.7784C42.277 24.9886 42.3546 25.1477 42.5099 25.2557C42.6652 25.3617 42.8632 25.4148 43.1037 25.4148ZM48.2408 21.6364V22.3182H45.8572V21.6364H48.2408ZM46.4964 20.5909H47.3459V24.7188C47.3459 24.8835 47.3705 25.0076 47.4197 25.0909C47.469 25.1723 47.5324 25.2282 47.6101 25.2585C47.6896 25.2869 47.7758 25.3011 47.8686 25.3011C47.9368 25.3011 47.9964 25.2964 48.0476 25.2869C48.0987 25.2775 48.1385 25.2699 48.1669 25.2642L48.3203 25.9659C48.2711 25.9848 48.201 26.0038 48.1101 26.0227C48.0192 26.0436 47.9055 26.0549 47.7692 26.0568C47.5457 26.0606 47.3374 26.0208 47.1442 25.9375C46.951 25.8542 46.7947 25.7254 46.6754 25.5511C46.5561 25.3769 46.4964 25.1581 46.4964 24.8949V20.5909ZM50.1236 23.4091V26H49.2741V20.1818H50.1122V22.3466H50.1662C50.2685 22.1117 50.4247 21.9252 50.6349 21.7869C50.8452 21.6487 51.1198 21.5795 51.4588 21.5795C51.758 21.5795 52.0194 21.6411 52.2429 21.7642C52.4683 21.8873 52.6425 22.071 52.7656 22.3153C52.8906 22.5578 52.9531 22.8608 52.9531 23.2244V26H52.1037V23.3267C52.1037 23.0066 52.0213 22.7585 51.8565 22.5824C51.6918 22.4044 51.4626 22.3153 51.169 22.3153C50.9683 22.3153 50.7884 22.358 50.6293 22.4432C50.4721 22.5284 50.348 22.6534 50.2571 22.8182C50.1681 22.9811 50.1236 23.178 50.1236 23.4091Z" fill="#616161"/>
</g>
<g filter="url(#filter2_d_1_6609)">
<rect x="14" y="46" width="125" height="26" rx="4" fill="white" shape-rendering="crispEdges"/>
<rect x="14.5" y="46.5" width="124" height="25" rx="3.5" stroke="#EAEAEA" shape-rendering="crispEdges"/>
<path d="M22.8334 62.3334V55.6667H31.1667V62.3334H22.8334Z" fill="#141414"/>
<path d="M36.6392 62V56.1818H38.7131C39.1638 56.1818 39.5379 56.2595 39.8352 56.4148C40.1345 56.5701 40.358 56.785 40.5057 57.0597C40.6534 57.3324 40.7273 57.6477 40.7273 58.0057C40.7273 58.3617 40.6525 58.6752 40.5028 58.946C40.3551 59.215 40.1316 59.4242 39.8324 59.5739C39.535 59.7235 39.161 59.7983 38.7102 59.7983H37.1392V59.0426H38.6307C38.9148 59.0426 39.1458 59.0019 39.3239 58.9205C39.5038 58.839 39.6354 58.7206 39.7188 58.5653C39.8021 58.41 39.8438 58.2235 39.8438 58.0057C39.8438 57.786 39.8011 57.5956 39.7159 57.4347C39.6326 57.2737 39.5009 57.1506 39.321 57.0653C39.143 56.9782 38.9091 56.9347 38.6193 56.9347H37.517V62H36.6392ZM39.5114 59.375L40.9489 62H39.9489L38.5398 59.375H39.5114ZM43.5533 62.0881C43.1233 62.0881 42.7531 61.9962 42.4425 61.8125C42.1338 61.6269 41.8951 61.3665 41.7266 61.0312C41.5599 60.6941 41.4766 60.2992 41.4766 59.8466C41.4766 59.3996 41.5599 59.0057 41.7266 58.6648C41.8951 58.3239 42.13 58.0578 42.4311 57.8665C42.7341 57.6752 43.0883 57.5795 43.4936 57.5795C43.7398 57.5795 43.9785 57.6203 44.2095 57.7017C44.4406 57.7831 44.648 57.911 44.8317 58.0852C45.0154 58.2595 45.1603 58.4858 45.2663 58.7642C45.3724 59.0407 45.4254 59.3769 45.4254 59.7727V60.0739H41.9567V59.4375H44.593C44.593 59.214 44.5476 59.0161 44.4567 58.8438C44.3658 58.6695 44.2379 58.5322 44.0732 58.4318C43.9103 58.3314 43.719 58.2812 43.4993 58.2812C43.2607 58.2812 43.0523 58.34 42.8743 58.4574C42.6982 58.5729 42.5618 58.7244 42.4652 58.9119C42.3705 59.0975 42.3232 59.2992 42.3232 59.517V60.0142C42.3232 60.3059 42.3743 60.554 42.4766 60.7585C42.5807 60.9631 42.7256 61.1193 42.9112 61.2273C43.0968 61.3333 43.3137 61.3864 43.5618 61.3864C43.7228 61.3864 43.8696 61.3636 44.0021 61.3182C44.1347 61.2708 44.2493 61.2008 44.3459 61.108C44.4425 61.0152 44.5163 60.9006 44.5675 60.7642L45.3714 60.9091C45.3071 61.1458 45.1915 61.3532 45.0249 61.5312C44.8601 61.7074 44.6527 61.8447 44.4027 61.9432C44.1546 62.0398 43.8714 62.0881 43.5533 62.0881ZM48.206 62.0881C47.7836 62.0881 47.42 61.9924 47.1151 61.8011C46.812 61.608 46.5791 61.3419 46.4162 61.0028C46.2533 60.6638 46.1719 60.2756 46.1719 59.8381C46.1719 59.3949 46.2552 59.0038 46.4219 58.6648C46.5885 58.3239 46.8234 58.0578 47.1264 57.8665C47.4295 57.6752 47.7865 57.5795 48.1974 57.5795C48.5289 57.5795 48.8243 57.6411 49.0838 57.7642C49.3433 57.8854 49.5526 58.0559 49.7116 58.2756C49.8726 58.4953 49.9683 58.7519 49.9986 59.0455H49.1719C49.1264 58.8409 49.0223 58.6648 48.8594 58.517C48.6984 58.3693 48.4825 58.2955 48.2116 58.2955C47.9749 58.2955 47.7675 58.358 47.5895 58.483C47.4134 58.6061 47.276 58.7822 47.1776 59.0114C47.0791 59.2386 47.0298 59.5076 47.0298 59.8182C47.0298 60.1364 47.0781 60.411 47.1747 60.642C47.2713 60.8731 47.4077 61.0521 47.5838 61.179C47.7618 61.3059 47.9711 61.3693 48.2116 61.3693C48.3726 61.3693 48.5185 61.34 48.6491 61.2812C48.7817 61.2206 48.8925 61.1345 48.9815 61.0227C49.0724 60.911 49.1359 60.7765 49.1719 60.6193H49.9986C49.9683 60.9015 49.8764 61.1534 49.723 61.375C49.5696 61.5966 49.3641 61.7708 49.1065 61.8977C48.8509 62.0246 48.5507 62.0881 48.206 62.0881ZM52.9439 57.6364V58.3182H50.5604V57.6364H52.9439ZM51.1996 56.5909H52.049V60.7188C52.049 60.8835 52.0736 61.0076 52.1229 61.0909C52.1721 61.1723 52.2356 61.2282 52.3132 61.2585C52.3928 61.2869 52.4789 61.3011 52.5717 61.3011C52.6399 61.3011 52.6996 61.2964 52.7507 61.2869C52.8018 61.2775 52.8416 61.2699 52.87 61.2642L53.0234 61.9659C52.9742 61.9848 52.9041 62.0038 52.8132 62.0227C52.7223 62.0436 52.6087 62.0549 52.4723 62.0568C52.2488 62.0606 52.0405 62.0208 51.8473 61.9375C51.6541 61.8542 51.4979 61.7254 51.3786 61.5511C51.2592 61.3769 51.1996 61.1581 51.1996 60.8949V56.5909ZM55.1534 62.0966C54.8769 62.0966 54.6269 62.0455 54.4034 61.9432C54.1799 61.839 54.0028 61.6884 53.8722 61.4915C53.7434 61.2945 53.679 61.053 53.679 60.767C53.679 60.5208 53.7263 60.3182 53.821 60.1591C53.9157 60 54.0436 59.8741 54.2045 59.7812C54.3655 59.6884 54.5455 59.6184 54.7443 59.571C54.9432 59.5237 55.1458 59.4877 55.3523 59.4631C55.6136 59.4328 55.8258 59.4081 55.9886 59.3892C56.1515 59.3684 56.2699 59.3352 56.3438 59.2898C56.4176 59.2443 56.4545 59.1705 56.4545 59.0682V59.0483C56.4545 58.8002 56.3845 58.608 56.2443 58.4716C56.1061 58.3352 55.8996 58.267 55.625 58.267C55.339 58.267 55.1136 58.3305 54.9489 58.4574C54.786 58.5824 54.6733 58.7216 54.6108 58.875L53.8125 58.6932C53.9072 58.428 54.0455 58.214 54.2273 58.0511C54.411 57.8864 54.6222 57.767 54.8608 57.6932C55.0994 57.6174 55.3504 57.5795 55.6136 57.5795C55.7879 57.5795 55.9725 57.6004 56.1676 57.642C56.3646 57.6818 56.5483 57.7557 56.7188 57.8636C56.8911 57.9716 57.0322 58.1259 57.142 58.3267C57.2519 58.5256 57.3068 58.7841 57.3068 59.1023V62H56.4773V61.4034H56.4432C56.3883 61.5133 56.3059 61.6212 56.196 61.7273C56.0862 61.8333 55.9451 61.9214 55.7727 61.9915C55.6004 62.0616 55.3939 62.0966 55.1534 62.0966ZM55.3381 61.4148C55.5729 61.4148 55.7737 61.3684 55.9403 61.2756C56.1089 61.1828 56.2367 61.0616 56.3239 60.9119C56.4129 60.7604 56.4574 60.5985 56.4574 60.4261V59.8636C56.4271 59.8939 56.3684 59.9223 56.2812 59.9489C56.196 59.9735 56.0985 59.9953 55.9886 60.0142C55.8788 60.0312 55.7718 60.0473 55.6676 60.0625C55.5634 60.0758 55.4763 60.0871 55.4062 60.0966C55.2415 60.1174 55.0909 60.1525 54.9545 60.2017C54.8201 60.2509 54.7121 60.322 54.6307 60.4148C54.5511 60.5057 54.5114 60.6269 54.5114 60.7784C54.5114 60.9886 54.589 61.1477 54.7443 61.2557C54.8996 61.3617 55.0975 61.4148 55.3381 61.4148ZM59.2876 59.4091V62H58.4382V57.6364H59.2536V58.3466H59.3075C59.4079 58.1155 59.5651 57.9299 59.7791 57.7898C59.995 57.6496 60.2668 57.5795 60.5945 57.5795C60.8918 57.5795 61.1522 57.642 61.3757 57.767C61.5992 57.8902 61.7725 58.0739 61.8956 58.3182C62.0187 58.5625 62.0803 58.8646 62.0803 59.2244V62H61.2308V59.3267C61.2308 59.0104 61.1484 58.7633 60.9837 58.5852C60.8189 58.4053 60.5926 58.3153 60.3047 58.3153C60.1077 58.3153 59.9325 58.358 59.7791 58.4432C59.6276 58.5284 59.5073 58.6534 59.4183 58.8182C59.3312 58.9811 59.2876 59.178 59.2876 59.4091ZM65.049 63.7273C64.7024 63.7273 64.4041 63.6818 64.1541 63.5909C63.906 63.5 63.7034 63.3797 63.5462 63.2301C63.389 63.0805 63.2715 62.9167 63.1939 62.7386L63.924 62.4375C63.9751 62.5208 64.0433 62.6089 64.1286 62.7017C64.2157 62.7964 64.3331 62.8769 64.4808 62.9432C64.6304 63.0095 64.8227 63.0426 65.0575 63.0426C65.3795 63.0426 65.6456 62.964 65.8558 62.8068C66.0661 62.6515 66.1712 62.4034 66.1712 62.0625V61.2045H66.1172C66.0661 61.2973 65.9922 61.4006 65.8956 61.5142C65.8009 61.6278 65.6702 61.7263 65.5036 61.8097C65.3369 61.893 65.12 61.9347 64.853 61.9347C64.5083 61.9347 64.1977 61.8542 63.9212 61.6932C63.6465 61.5303 63.4287 61.2907 63.2678 60.9744C63.1087 60.6562 63.0291 60.2652 63.0291 59.8011C63.0291 59.3371 63.1077 58.9394 63.2649 58.608C63.424 58.2765 63.6418 58.0227 63.9183 57.8466C64.1948 57.6686 64.5083 57.5795 64.8587 57.5795C65.1295 57.5795 65.3482 57.625 65.5149 57.7159C65.6816 57.8049 65.8113 57.9091 65.9041 58.0284C65.9988 58.1477 66.0717 58.2528 66.1229 58.3438H66.1854V57.6364H67.0178V62.0966C67.0178 62.4716 66.9306 62.7794 66.7564 63.0199C66.5821 63.2604 66.3464 63.4384 66.049 63.554C65.7536 63.6695 65.4202 63.7273 65.049 63.7273ZM65.0405 61.2301C65.2848 61.2301 65.4912 61.1733 65.6598 61.0597C65.8303 60.9441 65.959 60.7794 66.0462 60.5653C66.1352 60.3494 66.1797 60.0909 66.1797 59.7898C66.1797 59.4962 66.1361 59.2377 66.049 59.0142C65.9619 58.7907 65.834 58.6165 65.6655 58.4915C65.4969 58.3646 65.2886 58.3011 65.0405 58.3011C64.7848 58.3011 64.5717 58.3674 64.4013 58.5C64.2308 58.6307 64.102 58.8087 64.0149 59.0341C63.9297 59.2595 63.8871 59.5114 63.8871 59.7898C63.8871 60.0758 63.9306 60.3267 64.0178 60.5426C64.1049 60.7585 64.2337 60.9271 64.4041 61.0483C64.5765 61.1695 64.7886 61.2301 65.0405 61.2301ZM69.0064 56.1818V62H68.157V56.1818H69.0064ZM72.0298 62.0881C71.5999 62.0881 71.2296 61.9962 70.919 61.8125C70.6103 61.6269 70.3717 61.3665 70.2031 61.0312C70.0365 60.6941 69.9531 60.2992 69.9531 59.8466C69.9531 59.3996 70.0365 59.0057 70.2031 58.6648C70.3717 58.3239 70.6065 58.0578 70.9077 57.8665C71.2107 57.6752 71.5649 57.5795 71.9702 57.5795C72.2164 57.5795 72.455 57.6203 72.6861 57.7017C72.9171 57.7831 73.1245 57.911 73.3082 58.0852C73.492 58.2595 73.6368 58.4858 73.7429 58.7642C73.849 59.0407 73.902 59.3769 73.902 59.7727V60.0739H70.4332V59.4375H73.0696C73.0696 59.214 73.0241 59.0161 72.9332 58.8438C72.8423 58.6695 72.7145 58.5322 72.5497 58.4318C72.3868 58.3314 72.1955 58.2812 71.9759 58.2812C71.7372 58.2812 71.5289 58.34 71.3509 58.4574C71.1747 58.5729 71.0384 58.7244 70.9418 58.9119C70.8471 59.0975 70.7997 59.2992 70.7997 59.517V60.0142C70.7997 60.3059 70.8509 60.554 70.9531 60.7585C71.0573 60.9631 71.2022 61.1193 71.3878 61.2273C71.5734 61.3333 71.7902 61.3864 72.0384 61.3864C72.1993 61.3864 72.3461 61.3636 72.4787 61.3182C72.6113 61.2708 72.7259 61.2008 72.8224 61.108C72.919 61.0152 72.9929 60.9006 73.044 60.7642L73.848 60.9091C73.7836 61.1458 73.6681 61.3532 73.5014 61.5312C73.3366 61.7074 73.1293 61.8447 72.8793 61.9432C72.6312 62.0398 72.348 62.0881 72.0298 62.0881Z" fill="#616161"/>
</g>
<g filter="url(#filter3_d_1_6609)">
<rect x="14" y="82" width="125" height="26" rx="4" fill="white" shape-rendering="crispEdges"/>
<rect x="14.5" y="82.5" width="124" height="25" rx="3.5" stroke="#EAEAEA" shape-rendering="crispEdges"/>
<g clip-path="url(#clip0_1_6609)">
<path d="M27 99.1666C26.4237 99.1666 25.882 99.0572 25.375 98.8383C24.8681 98.6194 24.4271 98.3226 24.0521 97.9479C23.6771 97.5732 23.3803 97.1322 23.1617 96.625C22.9431 96.1178 22.8337 95.5761 22.8334 95C22.8331 94.4239 22.9425 93.8822 23.1617 93.375C23.3809 92.8678 23.6777 92.4268 24.0521 92.0521C24.4266 91.6773 24.8675 91.3805 25.375 91.1616C25.8825 90.9428 26.4242 90.8333 27 90.8333C27.5759 90.8333 28.1175 90.9428 28.625 91.1616C29.1325 91.3805 29.5735 91.6773 29.948 92.0521C30.3224 92.4268 30.6193 92.8678 30.8388 93.375C31.0582 93.8822 31.1675 94.4239 31.1667 95C31.1659 95.5761 31.0564 96.1178 30.8384 96.625C30.6203 97.1322 30.3235 97.5732 29.948 97.9479C29.5724 98.3226 29.1314 98.6196 28.625 98.8387C28.1187 99.0579 27.577 99.1672 27 99.1666Z" fill="#141414"/>
</g>
<path d="M36.6392 98V92.1818H40.2869V92.9375H37.517V94.7102H40.0966V95.4631H37.517V97.2443H40.321V98H36.6392ZM42.2408 92.1818V98H41.3913V92.1818H42.2408ZM44.233 92.1818V98H43.3835V92.1818H44.233ZM45.3757 98V93.6364H46.2251V98H45.3757ZM45.8047 92.9631C45.657 92.9631 45.5301 92.9138 45.424 92.8153C45.3198 92.715 45.2678 92.5956 45.2678 92.4574C45.2678 92.3172 45.3198 92.1979 45.424 92.0994C45.5301 91.9991 45.657 91.9489 45.8047 91.9489C45.9524 91.9489 46.0784 91.9991 46.1825 92.0994C46.2886 92.1979 46.3416 92.3172 46.3416 92.4574C46.3416 92.5956 46.2886 92.715 46.1825 92.8153C46.0784 92.9138 45.9524 92.9631 45.8047 92.9631ZM47.3679 99.6364V93.6364H48.1974V94.3438H48.2685C48.3177 94.2528 48.3887 94.1477 48.4815 94.0284C48.5743 93.9091 48.7031 93.8049 48.8679 93.7159C49.0327 93.625 49.2505 93.5795 49.5213 93.5795C49.8736 93.5795 50.188 93.6686 50.4645 93.8466C50.741 94.0246 50.9579 94.2812 51.1151 94.6165C51.2741 94.9517 51.3537 95.3551 51.3537 95.8267C51.3537 96.2983 51.2751 96.7027 51.1179 97.0398C50.9607 97.375 50.7448 97.6335 50.4702 97.8153C50.1955 97.9953 49.8821 98.0852 49.5298 98.0852C49.2647 98.0852 49.0478 98.0407 48.8793 97.9517C48.7126 97.8627 48.5819 97.7585 48.4872 97.6392C48.3925 97.5199 48.3196 97.4138 48.2685 97.321H48.2173V99.6364H47.3679ZM48.2003 95.8182C48.2003 96.125 48.2448 96.3939 48.3338 96.625C48.4228 96.8561 48.5516 97.0369 48.7202 97.1676C48.8887 97.2964 49.0952 97.3608 49.3395 97.3608C49.5933 97.3608 49.8054 97.2936 49.9759 97.1591C50.1463 97.0227 50.2751 96.8381 50.3622 96.6051C50.4512 96.3722 50.4957 96.1098 50.4957 95.8182C50.4957 95.5303 50.4522 95.2718 50.3651 95.0426C50.2798 94.8134 50.151 94.6326 49.9787 94.5C49.8082 94.3674 49.5952 94.3011 49.3395 94.3011C49.0933 94.3011 48.8849 94.3646 48.7145 94.4915C48.5459 94.6184 48.4181 94.7955 48.331 95.0227C48.2438 95.25 48.2003 95.5152 48.2003 95.8182ZM55.5753 94.7017L54.8054 94.8381C54.7732 94.7396 54.7221 94.6458 54.652 94.5568C54.5838 94.4678 54.491 94.3949 54.3736 94.3381C54.2562 94.2812 54.1094 94.2528 53.9332 94.2528C53.6927 94.2528 53.492 94.3068 53.331 94.4148C53.17 94.5208 53.0895 94.6581 53.0895 94.8267C53.0895 94.9725 53.1435 95.09 53.2514 95.179C53.3594 95.268 53.5336 95.3409 53.7741 95.3977L54.4673 95.5568C54.8688 95.6496 55.1681 95.7926 55.3651 95.9858C55.562 96.179 55.6605 96.4299 55.6605 96.7386C55.6605 97 55.5848 97.233 55.4332 97.4375C55.2836 97.6402 55.0743 97.7992 54.8054 97.9148C54.5384 98.0303 54.2287 98.0881 53.8764 98.0881C53.3878 98.0881 52.9891 97.9839 52.6804 97.7756C52.3717 97.5653 52.1823 97.267 52.1122 96.8807L52.9332 96.7557C52.9844 96.9697 53.0895 97.1316 53.2486 97.2415C53.4077 97.3494 53.6151 97.4034 53.8707 97.4034C54.1491 97.4034 54.3717 97.3456 54.5384 97.2301C54.705 97.1127 54.7884 96.9697 54.7884 96.8011C54.7884 96.6648 54.7372 96.5502 54.6349 96.4574C54.5346 96.3646 54.3802 96.2945 54.1719 96.2472L53.4332 96.0852C53.026 95.9924 52.7249 95.8447 52.5298 95.642C52.3366 95.4394 52.2401 95.1828 52.2401 94.8722C52.2401 94.6146 52.312 94.3892 52.456 94.196C52.5999 94.0028 52.7988 93.8523 53.0526 93.7443C53.3063 93.6345 53.5971 93.5795 53.9247 93.5795C54.3963 93.5795 54.7675 93.6818 55.0384 93.8864C55.3092 94.089 55.4882 94.3608 55.5753 94.7017ZM58.4751 98.0881C58.0452 98.0881 57.675 97.9962 57.3643 97.8125C57.0556 97.6269 56.817 97.3665 56.6484 97.0312C56.4818 96.6941 56.3984 96.2992 56.3984 95.8466C56.3984 95.3996 56.4818 95.0057 56.6484 94.6648C56.817 94.3239 57.0518 94.0578 57.353 93.8665C57.656 93.6752 58.0102 93.5795 58.4155 93.5795C58.6617 93.5795 58.9003 93.6203 59.1314 93.7017C59.3625 93.7831 59.5698 93.911 59.7536 94.0852C59.9373 94.2595 60.0821 94.4858 60.1882 94.7642C60.2943 95.0407 60.3473 95.3769 60.3473 95.7727V96.0739H56.8786V95.4375H59.5149C59.5149 95.214 59.4695 95.0161 59.3786 94.8438C59.2876 94.6695 59.1598 94.5322 58.995 94.4318C58.8321 94.3314 58.6409 94.2812 58.4212 94.2812C58.1825 94.2812 57.9742 94.34 57.7962 94.4574C57.62 94.5729 57.4837 94.7244 57.3871 94.9119C57.2924 95.0975 57.245 95.2992 57.245 95.517V96.0142C57.245 96.3059 57.2962 96.554 57.3984 96.7585C57.5026 96.9631 57.6475 97.1193 57.8331 97.2273C58.0187 97.3333 58.2356 97.3864 58.4837 97.3864C58.6446 97.3864 58.7914 97.3636 58.924 97.3182C59.0566 97.2708 59.1712 97.2008 59.2678 97.108C59.3643 97.0152 59.4382 96.9006 59.4893 96.7642L60.2933 96.9091C60.2289 97.1458 60.1134 97.3532 59.9467 97.5312C59.782 97.7074 59.5746 97.8447 59.3246 97.9432C59.0765 98.0398 58.7933 98.0881 58.4751 98.0881Z" fill="#616161"/>
</g>
<g filter="url(#filter4_d_1_6609)">
<rect x="14" y="118" width="125" height="26" rx="4" fill="white" shape-rendering="crispEdges"/>
<rect x="14.5" y="118.5" width="124" height="25" rx="3.5" stroke="#EAEAEA" shape-rendering="crispEdges"/>
<path fill-rule="evenodd" clip-rule="evenodd" d="M27.4167 126.661V131.244L30.9226 134.75H23.25V130.827L27.4167 126.661Z" fill="#141414"/>
<path d="M36.6392 134V128.182H38.7131C39.1657 128.182 39.5407 128.264 39.8381 128.429C40.1354 128.594 40.358 128.819 40.5057 129.105C40.6534 129.389 40.7273 129.709 40.7273 130.065C40.7273 130.423 40.6525 130.745 40.5028 131.031C40.3551 131.315 40.1316 131.541 39.8324 131.707C39.535 131.872 39.161 131.955 38.7102 131.955H37.2841V131.21H38.6307C38.9167 131.21 39.1487 131.161 39.3267 131.062C39.5047 130.962 39.6354 130.826 39.7188 130.653C39.8021 130.481 39.8438 130.285 39.8438 130.065C39.8438 129.846 39.8021 129.651 39.7188 129.48C39.6354 129.31 39.5038 129.176 39.3239 129.08C39.1458 128.983 38.911 128.935 38.6193 128.935H37.517V134H36.6392ZM43.4716 134.088C43.0625 134.088 42.7055 133.994 42.4006 133.807C42.0956 133.619 41.8589 133.357 41.6903 133.02C41.5218 132.683 41.4375 132.289 41.4375 131.838C41.4375 131.385 41.5218 130.99 41.6903 130.651C41.8589 130.312 42.0956 130.048 42.4006 129.861C42.7055 129.673 43.0625 129.58 43.4716 129.58C43.8807 129.58 44.2377 129.673 44.5426 129.861C44.8475 130.048 45.0843 130.312 45.2528 130.651C45.4214 130.99 45.5057 131.385 45.5057 131.838C45.5057 132.289 45.4214 132.683 45.2528 133.02C45.0843 133.357 44.8475 133.619 44.5426 133.807C44.2377 133.994 43.8807 134.088 43.4716 134.088ZM43.4744 133.375C43.7396 133.375 43.9593 133.305 44.1335 133.165C44.3078 133.025 44.4366 132.838 44.5199 132.605C44.6051 132.372 44.6477 132.116 44.6477 131.835C44.6477 131.557 44.6051 131.301 44.5199 131.068C44.4366 130.833 44.3078 130.645 44.1335 130.503C43.9593 130.361 43.7396 130.29 43.4744 130.29C43.2074 130.29 42.9858 130.361 42.8097 130.503C42.6354 130.645 42.5057 130.833 42.4205 131.068C42.3371 131.301 42.2955 131.557 42.2955 131.835C42.2955 132.116 42.3371 132.372 42.4205 132.605C42.5057 132.838 42.6354 133.025 42.8097 133.165C42.9858 133.305 43.2074 133.375 43.4744 133.375ZM47.3033 128.182V134H46.4538V128.182H47.3033ZM48.983 135.636C48.8561 135.636 48.7405 135.626 48.6364 135.605C48.5322 135.586 48.4545 135.565 48.4034 135.543L48.608 134.847C48.7633 134.888 48.9015 134.906 49.0227 134.901C49.1439 134.895 49.2509 134.849 49.3438 134.764C49.4384 134.679 49.5218 134.54 49.5938 134.347L49.6989 134.057L48.1023 129.636H49.0114L50.1165 133.023H50.1619L51.267 129.636H52.179L50.3807 134.582C50.2973 134.81 50.1913 135.002 50.0625 135.159C49.9337 135.318 49.7803 135.438 49.6023 135.517C49.4242 135.597 49.2178 135.636 48.983 135.636ZM54.6584 135.727C54.3118 135.727 54.0135 135.682 53.7635 135.591C53.5154 135.5 53.3127 135.38 53.1555 135.23C52.9983 135.08 52.8809 134.917 52.8033 134.739L53.5334 134.438C53.5845 134.521 53.6527 134.609 53.7379 134.702C53.825 134.796 53.9425 134.877 54.0902 134.943C54.2398 135.009 54.4321 135.043 54.6669 135.043C54.9889 135.043 55.255 134.964 55.4652 134.807C55.6754 134.652 55.7805 134.403 55.7805 134.062V133.205H55.7266C55.6754 133.297 55.6016 133.401 55.505 133.514C55.4103 133.628 55.2796 133.726 55.1129 133.81C54.9463 133.893 54.7294 133.935 54.4624 133.935C54.1177 133.935 53.8071 133.854 53.5305 133.693C53.2559 133.53 53.0381 133.291 52.8771 132.974C52.718 132.656 52.6385 132.265 52.6385 131.801C52.6385 131.337 52.7171 130.939 52.8743 130.608C53.0334 130.277 53.2512 130.023 53.5277 129.847C53.8042 129.669 54.1177 129.58 54.468 129.58C54.7389 129.58 54.9576 129.625 55.1243 129.716C55.291 129.805 55.4207 129.909 55.5135 130.028C55.6082 130.148 55.6811 130.253 55.7322 130.344H55.7947V129.636H56.6271V134.097C56.6271 134.472 56.54 134.779 56.3658 135.02C56.1915 135.26 55.9557 135.438 55.6584 135.554C55.3629 135.67 55.0296 135.727 54.6584 135.727ZM54.6499 133.23C54.8942 133.23 55.1006 133.173 55.2692 133.06C55.4396 132.944 55.5684 132.779 55.6555 132.565C55.7446 132.349 55.7891 132.091 55.7891 131.79C55.7891 131.496 55.7455 131.238 55.6584 131.014C55.5713 130.791 55.4434 130.616 55.2749 130.491C55.1063 130.365 54.898 130.301 54.6499 130.301C54.3942 130.301 54.1811 130.367 54.0107 130.5C53.8402 130.631 53.7114 130.809 53.6243 131.034C53.5391 131.259 53.4964 131.511 53.4964 131.79C53.4964 132.076 53.54 132.327 53.6271 132.543C53.7143 132.759 53.843 132.927 54.0135 133.048C54.1858 133.17 54.398 133.23 54.6499 133.23ZM59.6044 134.088C59.1953 134.088 58.8383 133.994 58.5334 133.807C58.2285 133.619 57.9917 133.357 57.8232 133.02C57.6546 132.683 57.5703 132.289 57.5703 131.838C57.5703 131.385 57.6546 130.99 57.8232 130.651C57.9917 130.312 58.2285 130.048 58.5334 129.861C58.8383 129.673 59.1953 129.58 59.6044 129.58C60.0135 129.58 60.3705 129.673 60.6754 129.861C60.9804 130.048 61.2171 130.312 61.3857 130.651C61.5542 130.99 61.6385 131.385 61.6385 131.838C61.6385 132.289 61.5542 132.683 61.3857 133.02C61.2171 133.357 60.9804 133.619 60.6754 133.807C60.3705 133.994 60.0135 134.088 59.6044 134.088ZM59.6072 133.375C59.8724 133.375 60.0921 133.305 60.2663 133.165C60.4406 133.025 60.5694 132.838 60.6527 132.605C60.7379 132.372 60.7805 132.116 60.7805 131.835C60.7805 131.557 60.7379 131.301 60.6527 131.068C60.5694 130.833 60.4406 130.645 60.2663 130.503C60.0921 130.361 59.8724 130.29 59.6072 130.29C59.3402 130.29 59.1186 130.361 58.9425 130.503C58.7682 130.645 58.6385 130.833 58.5533 131.068C58.4699 131.301 58.4283 131.557 58.4283 131.835C58.4283 132.116 58.4699 132.372 58.5533 132.605C58.6385 132.838 58.7682 133.025 58.9425 133.165C59.1186 133.305 59.3402 133.375 59.6072 133.375ZM63.4361 131.409V134H62.5866V129.636H63.402V130.347H63.456C63.5563 130.116 63.7135 129.93 63.9276 129.79C64.1435 129.65 64.4152 129.58 64.7429 129.58C65.0402 129.58 65.3007 129.642 65.5241 129.767C65.7476 129.89 65.9209 130.074 66.044 130.318C66.1671 130.562 66.2287 130.865 66.2287 131.224V134H65.3793V131.327C65.3793 131.01 65.2969 130.763 65.1321 130.585C64.9673 130.405 64.741 130.315 64.4531 130.315C64.2562 130.315 64.081 130.358 63.9276 130.443C63.776 130.528 63.6558 130.653 63.5668 130.818C63.4796 130.981 63.4361 131.178 63.4361 131.409Z" fill="#616161"/>
</g>
<g filter="url(#filter5_d_1_6609)">
<rect x="14" y="154" width="125" height="26" rx="4" fill="white" shape-rendering="crispEdges"/>
<rect x="14.5" y="154.5" width="124" height="25" rx="3.5" stroke="#EAEAEA" shape-rendering="crispEdges"/>
<path d="M24.4271 170.75L25.1042 167.823L22.8334 165.854L25.8334 165.594L27 162.833L28.1667 165.594L31.1667 165.854L28.8959 167.823L29.573 170.75L27 169.198L24.4271 170.75Z" fill="black"/>
<path d="M39.8125 165.71C39.7822 165.441 39.6572 165.233 39.4375 165.085C39.2178 164.936 38.9413 164.861 38.608 164.861C38.3693 164.861 38.1629 164.899 37.9886 164.974C37.8144 165.048 37.679 165.151 37.5824 165.281C37.4877 165.41 37.4403 165.557 37.4403 165.722C37.4403 165.86 37.4725 165.979 37.5369 166.08C37.6032 166.18 37.6894 166.264 37.7955 166.332C37.9034 166.399 38.0189 166.455 38.142 166.5C38.2652 166.544 38.3835 166.58 38.4972 166.608L39.0653 166.756C39.2509 166.801 39.4413 166.863 39.6364 166.94C39.8314 167.018 40.0123 167.12 40.179 167.247C40.3456 167.374 40.4801 167.531 40.5824 167.719C40.6866 167.906 40.7386 168.131 40.7386 168.392C40.7386 168.722 40.6534 169.014 40.483 169.27C40.3144 169.526 40.0691 169.727 39.7472 169.875C39.4271 170.023 39.0398 170.097 38.5852 170.097C38.1496 170.097 37.7727 170.027 37.4545 169.889C37.1364 169.751 36.8873 169.555 36.7074 169.301C36.5275 169.045 36.428 168.742 36.4091 168.392H37.2898C37.3068 168.602 37.375 168.777 37.4943 168.918C37.6155 169.056 37.7699 169.159 37.9574 169.227C38.1468 169.294 38.3542 169.327 38.5795 169.327C38.8277 169.327 39.0483 169.288 39.2415 169.21C39.4366 169.131 39.59 169.021 39.7017 168.881C39.8134 168.739 39.8693 168.573 39.8693 168.384C39.8693 168.211 39.8201 168.07 39.7216 167.96C39.625 167.85 39.4934 167.759 39.3267 167.688C39.1619 167.616 38.9754 167.552 38.767 167.497L38.0795 167.31C37.6136 167.183 37.2443 166.996 36.9716 166.75C36.7008 166.504 36.5653 166.178 36.5653 165.773C36.5653 165.437 36.6563 165.145 36.8381 164.895C37.0199 164.645 37.2661 164.451 37.5767 164.312C37.8873 164.172 38.2377 164.102 38.6278 164.102C39.0218 164.102 39.3693 164.171 39.6705 164.31C39.9735 164.448 40.2121 164.638 40.3864 164.881C40.5606 165.121 40.6515 165.398 40.6591 165.71H39.8125ZM43.7564 165.636V166.318H41.3729V165.636H43.7564ZM42.0121 164.591H42.8615V168.719C42.8615 168.884 42.8861 169.008 42.9354 169.091C42.9846 169.172 43.0481 169.228 43.1257 169.259C43.2053 169.287 43.2914 169.301 43.3842 169.301C43.4524 169.301 43.5121 169.296 43.5632 169.287C43.6143 169.277 43.6541 169.27 43.6825 169.264L43.8359 169.966C43.7867 169.985 43.7166 170.004 43.6257 170.023C43.5348 170.044 43.4212 170.055 43.2848 170.057C43.0613 170.061 42.853 170.021 42.6598 169.938C42.4666 169.854 42.3104 169.725 42.1911 169.551C42.0717 169.377 42.0121 169.158 42.0121 168.895V164.591ZM45.9659 170.097C45.6894 170.097 45.4394 170.045 45.2159 169.943C44.9924 169.839 44.8153 169.688 44.6847 169.491C44.5559 169.295 44.4915 169.053 44.4915 168.767C44.4915 168.521 44.5388 168.318 44.6335 168.159C44.7282 168 44.8561 167.874 45.017 167.781C45.178 167.688 45.358 167.618 45.5568 167.571C45.7557 167.524 45.9583 167.488 46.1648 167.463C46.4261 167.433 46.6383 167.408 46.8011 167.389C46.964 167.368 47.0824 167.335 47.1562 167.29C47.2301 167.244 47.267 167.17 47.267 167.068V167.048C47.267 166.8 47.197 166.608 47.0568 166.472C46.9186 166.335 46.7121 166.267 46.4375 166.267C46.1515 166.267 45.9261 166.33 45.7614 166.457C45.5985 166.582 45.4858 166.722 45.4233 166.875L44.625 166.693C44.7197 166.428 44.858 166.214 45.0398 166.051C45.2235 165.886 45.4347 165.767 45.6733 165.693C45.9119 165.617 46.1629 165.58 46.4261 165.58C46.6004 165.58 46.785 165.6 46.9801 165.642C47.1771 165.682 47.3608 165.756 47.5312 165.864C47.7036 165.972 47.8447 166.126 47.9545 166.327C48.0644 166.526 48.1193 166.784 48.1193 167.102V170H47.2898V169.403H47.2557C47.2008 169.513 47.1184 169.621 47.0085 169.727C46.8987 169.833 46.7576 169.921 46.5852 169.991C46.4129 170.062 46.2064 170.097 45.9659 170.097ZM46.1506 169.415C46.3854 169.415 46.5862 169.368 46.7528 169.276C46.9214 169.183 47.0492 169.062 47.1364 168.912C47.2254 168.76 47.2699 168.598 47.2699 168.426V167.864C47.2396 167.894 47.1809 167.922 47.0938 167.949C47.0085 167.973 46.911 167.995 46.8011 168.014C46.6913 168.031 46.5843 168.047 46.4801 168.062C46.3759 168.076 46.2888 168.087 46.2188 168.097C46.054 168.117 45.9034 168.152 45.767 168.202C45.6326 168.251 45.5246 168.322 45.4432 168.415C45.3636 168.506 45.3239 168.627 45.3239 168.778C45.3239 168.989 45.4015 169.148 45.5568 169.256C45.7121 169.362 45.91 169.415 46.1506 169.415ZM49.2507 170V165.636H50.0717V166.33H50.1172C50.1967 166.095 50.3369 165.91 50.5376 165.776C50.7403 165.639 50.9695 165.571 51.2251 165.571C51.2782 165.571 51.3407 165.573 51.4126 165.577C51.4865 165.58 51.5443 165.585 51.5859 165.591V166.403C51.5518 166.394 51.4912 166.384 51.4041 166.372C51.317 166.359 51.2299 166.352 51.1428 166.352C50.942 166.352 50.763 166.395 50.6058 166.48C50.4505 166.563 50.3274 166.68 50.2365 166.83C50.1456 166.977 50.1001 167.146 50.1001 167.335V170H49.2507Z" fill="#616161"/>
</g>
</g>
<defs>
<filter id="filter0_d_1_6609" x="0" y="0" width="153" height="198" filterUnits="userSpaceOnUse" color-interpolation-filters="sRGB">
<feFlood flood-opacity="0" result="BackgroundImageFix"/>
<feColorMatrix in="SourceAlpha" type="matrix" values="0 0 0 0 0 0 0 0 0 0 0 0 0 0 0 0 0 0 127 0" result="hardAlpha"/>
<feOffset dy="4"/>
<feGaussianBlur stdDeviation="2"/>
<feComposite in2="hardAlpha" operator="out"/>
<feColorMatrix type="matrix" values="0 0 0 0 0 0 0 0 0 0 0 0 0 0 0 0 0 0 0.25 0"/>
<feBlend mode="normal" in2="BackgroundImageFix" result="effect1_dropShadow_1_6609"/>
<feBlend mode="normal" in="SourceGraphic" in2="effect1_dropShadow_1_6609" result="shape"/>
</filter>
<filter id="filter1_d_1_6609" x="10" y="8" width="133" height="34" filterUnits="userSpaceOnUse" color-interpolation-filters="sRGB">
<feFlood flood-opacity="0" result="BackgroundImageFix"/>
<feColorMatrix in="SourceAlpha" type="matrix" values="0 0 0 0 0 0 0 0 0 0 0 0 0 0 0 0 0 0 127 0" result="hardAlpha"/>
<feOffset dy="2"/>
<feGaussianBlur stdDeviation="2"/>
<feComposite in2="hardAlpha" operator="out"/>
<feColorMatrix type="matrix" values="0 0 0 0 0.776765 0 0 0 0 0.776765 0 0 0 0 0.776765 0 0 0 0.25 0"/>
<feBlend mode="normal" in2="BackgroundImageFix" result="effect1_dropShadow_1_6609"/>
<feBlend mode="normal" in="SourceGraphic" in2="effect1_dropShadow_1_6609" result="shape"/>
</filter>
<filter id="filter2_d_1_6609" x="10" y="44" width="133" height="34" filterUnits="userSpaceOnUse" color-interpolation-filters="sRGB">
<feFlood flood-opacity="0" result="BackgroundImageFix"/>
<feColorMatrix in="SourceAlpha" type="matrix" values="0 0 0 0 0 0 0 0 0 0 0 0 0 0 0 0 0 0 127 0" result="hardAlpha"/>
<feOffset dy="2"/>
<feGaussianBlur stdDeviation="2"/>
<feComposite in2="hardAlpha" operator="out"/>
<feColorMatrix type="matrix" values="0 0 0 0 0.776765 0 0 0 0 0.776765 0 0 0 0 0.776765 0 0 0 0.25 0"/>
<feBlend mode="normal" in2="BackgroundImageFix" result="effect1_dropShadow_1_6609"/>
<feBlend mode="normal" in="SourceGraphic" in2="effect1_dropShadow_1_6609" result="shape"/>
</filter>
<filter id="filter3_d_1_6609" x="10" y="80" width="133" height="34" filterUnits="userSpaceOnUse" color-interpolation-filters="sRGB">
<feFlood flood-opacity="0" result="BackgroundImageFix"/>
<feColorMatrix in="SourceAlpha" type="matrix" values="0 0 0 0 0 0 0 0 0 0 0 0 0 0 0 0 0 0 127 0" result="hardAlpha"/>
<feOffset dy="2"/>
<feGaussianBlur stdDeviation="2"/>
<feComposite in2="hardAlpha" operator="out"/>
<feColorMatrix type="matrix" values="0 0 0 0 0.776765 0 0 0 0 0.776765 0 0 0 0 0.776765 0 0 0 0.25 0"/>
<feBlend mode="normal" in2="BackgroundImageFix" result="effect1_dropShadow_1_6609"/>
<feBlend mode="normal" in="SourceGraphic" in2="effect1_dropShadow_1_6609" result="shape"/>
</filter>
<filter id="filter4_d_1_6609" x="10" y="116" width="133" height="34" filterUnits="userSpaceOnUse" color-interpolation-filters="sRGB">
<feFlood flood-opacity="0" result="BackgroundImageFix"/>
<feColorMatrix in="SourceAlpha" type="matrix" values="0 0 0 0 0 0 0 0 0 0 0 0 0 0 0 0 0 0 127 0" result="hardAlpha"/>
<feOffset dy="2"/>
<feGaussianBlur stdDeviation="2"/>
<feComposite in2="hardAlpha" operator="out"/>
<feColorMatrix type="matrix" values="0 0 0 0 0.776765 0 0 0 0 0.776765 0 0 0 0 0.776765 0 0 0 0.25 0"/>
<feBlend mode="normal" in2="BackgroundImageFix" result="effect1_dropShadow_1_6609"/>
<feBlend mode="normal" in="SourceGraphic" in2="effect1_dropShadow_1_6609" result="shape"/>
</filter>
<filter id="filter5_d_1_6609" x="10" y="152" width="133" height="34" filterUnits="userSpaceOnUse" color-interpolation-filters="sRGB">
<feFlood flood-opacity="0" result="BackgroundImageFix"/>
<feColorMatrix in="SourceAlpha" type="matrix" values="0 0 0 0 0 0 0 0 0 0 0 0 0 0 0 0 0 0 127 0" result="hardAlpha"/>
<feOffset dy="2"/>
<feGaussianBlur stdDeviation="2"/>
<feComposite in2="hardAlpha" operator="out"/>
<feColorMatrix type="matrix" values="0 0 0 0 0.776765 0 0 0 0 0.776765 0 0 0 0 0.776765 0 0 0 0.25 0"/>
<feBlend mode="normal" in2="BackgroundImageFix" result="effect1_dropShadow_1_6609"/>
<feBlend mode="normal" in="SourceGraphic" in2="effect1_dropShadow_1_6609" result="shape"/>
</filter>
<clipPath id="clip0_1_6609">
<rect width="10" height="10" fill="white" transform="translate(22 90)"/>
</clipPath>
</defs>
</svg>
