<svg width="200" height="200" viewBox="0 0 200 200" fill="none" xmlns="http://www.w3.org/2000/svg">
<path d="M54.4205 55.0177C69.6782 28.2349 77.307 14.8435 87.3962 10.5638C95.4548 7.14541 104.545 7.14541 112.604 10.5638C122.693 14.8435 130.322 28.2349 145.579 55.0177L178.577 112.941C193.678 139.448 201.228 153.707 199.837 164.568C198.726 173.246 195.192 180.105 188.255 185.388C179.571 192 163.38 192 132.998 192H67.0024C36.62 192 20.4288 192 11.7455 185.388C4.80821 180.105 1.27413 173.246 0.16293 164.568C-1.22793 153.707 6.32234 139.448 21.4229 112.941L54.4205 55.0177Z" fill="black"/>
</svg>
